<?xml version="1.0" encoding="utf-8"?>
<!-- Generator: Adobe Illustrator 23.0.1, SVG Export Plug-In . SVG Version: 6.00 Build 0)  -->
<svg version="1.1" id="Layer_1" xmlns="http://www.w3.org/2000/svg" xmlns:xlink="http://www.w3.org/1999/xlink" x="0px" y="0px"
	 viewBox="0 0 254.93 250.78" style="enable-background:new 0 0 254.93 250.78;" xml:space="preserve">
<style type="text/css">
	.st0{fill:#CBA051;}
	.st1{fill:#FFFFFF;}
</style>
<g>
	<rect x="19.11" y="242.4" class="st0" width="39.21" height="8.39"/>
	<g>
		<path class="st0" d="M48.37,250.78h3.32c-0.37-1.58-0.73-3.16-1.1-4.74c-0.31-0.08-0.63-0.16-0.94-0.23
			C49.28,247.27,48.9,248.73,48.37,250.78z"/>
		<path class="st0" d="M233.34,250.78c0.07-0.56,0.14-1.15,0.22-1.81c1.99,0.67,3.81,1.01,5.26,1.81h5.78
			c1.14-3.29,2.37-6.47,3.1-8.44c2.78-2.07,6.05-3.24,6.7-5.24c1.64-5.09-0.76-9.35-4.77-11.06c-0.49-2.88-0.06-7.11-1.6-8.02
			c-4.29-2.55-2.63-5.79-2.46-8.99c0.17-3.14,0.54-6.26,0.62-9.4c0.08-2.93-1.49-4.14-4.44-3.91c-1.47,0.11-2.97-0.26-4.46-0.42
			c0.04-0.54,0.08-1.09,0.12-1.63c1.52,0,3.07,0.14,4.57-0.05c1.2-0.15,3.32-0.61,3.37-1.1c0.42-4.08,0.77-8.23,0.29-12.26
			c-0.08-0.66-4.33-1.06-6.68-1.15c-10.21-0.42-20.8,2.75-30.43-3.3c-0.46-0.29-1.3,0.02-1.96,0.03c-2.66,0.04-5.33,0.1-7.99,0.11
			c-5.44,0.01-5.73-0.39-4.67-6.34c2.93-0.38,6.59,0.61,6.55-4.8c-0.09-11.15-0.69-12.74-7.95-14.24c0-2.29,0-4.55,0-7.22
			c2.15,0.17,4.06,0.78,5.68,0.34c1.97-0.53,5.35-2.15,5.26-2.96c-0.69-5.86,1.38-10.46,4.36-15.32c1.26-2.05-0.71-5.85-0.39-8.76
			c0.53-4.87-2.14-5.09-5.74-4.97c-4.74,0.16-9.48,0.04-14.35,0.04c-0.36-2.62-0.71-5.18-1.14-8.27c1.93,0,3.22-0.07,4.5,0.01
			c6.25,0.37,12.49,0.92,18.75,1.08c1.46,0.04,4.28-1.31,4.24-1.85c-0.32-4.23-0.51-8.72-2.21-12.46c-0.65-1.42-5.16-1.08-7.91-1.57
			c-0.3-0.05-0.56-0.32-1.08-0.63c0-2.28,0-4.69,0-7.06c8.85-1.52,9.23-2.09,7.89-11.49c-0.02-0.16-0.01-0.33-0.03-0.5
			c-0.76-6.1-1.53-6.59-7.93-6.23c-3.91,0.22-7.85,0.04-11.94,0.04c-0.21-2.68-0.37-4.76-0.55-7.02c2.33-0.12,4.15-0.4,5.95-0.27
			c6.33,0.45,8.33-1.55,7.03-7.57c-0.65-3.02-1.86-5.8,2.54-7.14c0.77-0.24,1.38-2.89,1.12-4.26c-0.88-4.71-2.74-9.29-3.2-14.02
			c-1.04-10.64-1.59-11.29-12.04-9.29c-1.09,0.21-2.16,0.56-3.24,0.85c0.26-0.88,0.44-1.81,0.84-2.63
			c3.13-6.32,0.79-10.42-5.94-10.49c-28.11-0.3-56.22-0.67-84.33-0.95C86.04-0.11,86.04-0.04,86.9,12.7
			c0.01,0.17-0.01,0.33,0.01,0.5c0.27,2.89,1.04,4.7,4.73,3.66c2.27-0.64,4.87-0.12,7.11-0.12c3.14,3.61-2.87,11.28,6.04,11.9
			c0,2.8,0,5.49,0,8.31c-6.47-1.71-7.14-1.17-7.05,5c0.03,2.48,0.01,4.95,0.01,7.64c-0.91,0.1-1.7,0.27-2.5,0.25
			c-9.85-0.22-9.85-0.23-9.13,9.76c0.05,0.66,0.1,1.33,0.1,2c0,2.84,1.03,4.15,4.23,3.96c5.27-0.31,10.56-0.08,16.14-0.08
			c0,3.14,0,5.72,0,8.29c-7.77,0.54-7.75,0.54-7.72,8.66c0.01,1.75-0.2,3.5-0.31,5.3c-1.6,0.08-2.58,0.18-3.57,0.17
			c-19.07-0.29-38.14-0.47-57.19-1c-4.42-0.12-6.72,0.73-6.09,5.63c0.26,2.04,0.04,4.14,0.04,6.56c-3.01-0.23-5.15-0.34-7.28-0.57
			c-9.66-1.01-9.66-1.02-9.68,8.51c-0.02,7.73-0.01,7.97,7.37,7.82c4.88-0.09,7.63,1.03,6.6,6.59c-0.19,1,0.2,2.73,0.91,3.17
			c3.68,2.3,2.95,5.64,2.46,9.64c-3.88,0-8.81-1.41-11.47,0.44c-2.13,1.49-1.5,6.93-2.16,10.98c-0.13,0.03-0.76,0.3-1.39,0.29
			c-4.14-0.11-8.3-0.07-12.41-0.51c-2.42-0.26-4.01-0.13-4.07,2.7c-0.07,3.15-0.17,6.3-0.09,9.45c0.08,3.21,0.68,5.58,5.05,4.05
			c1.74-0.61,4.68-0.23,5.92,0.94c1,0.94,0.73,3.87,0.18,5.66c-1.08,3.49-2.76,6.8-4.31,10.46c-7.3,0.81-7.3,0.81-7.38,8.97
			c0,0.5-0.03,1,0,1.5c0.24,3.88,1.97,6.3,6.19,6.15c3.12-0.11,6.23-0.3,10.55-0.51c-0.92,7.41-1.76,14.19-2.49,20.06
			c-1.84,0.72-4.92,1.32-4.95,2.05c-0.2,4.39-0.14,8.92,0.85,13.16c0.26,1.12,4.12,1.4,6.38,2.08c0,1.39,0,2.83,0,3.16l0.01,15.46
			h11.77c-0.51-0.99-1.03-1.98-1.54-2.96c0.5-0.32,1-0.64,1.49-0.96c0.81,1.31,1.62,2.61,2.43,3.92h12.83
			c-4.16-1.7-8.26-3.37-12.37-5.05c0.14-0.42,0.27-0.83,0.41-1.25c7.21,0,14.42,0,21.96,0c0,2.37,0,4.38,0,6.3H233.34z"/>
	</g>
	<path class="st1" d="M249.47,226.04c-0.49-2.88-0.06-7.11-1.6-8.02c-4.29-2.55-2.63-5.79-2.46-8.99c0.17-3.14,0.54-6.26,0.62-9.4
		c0.08-2.93-1.49-4.14-4.44-3.91c-1.47,0.11-2.97-0.26-4.46-0.42c0.04-0.54,0.08-1.09,0.12-1.63c1.52,0,3.07,0.14,4.57-0.05
		c1.2-0.15,3.32-0.61,3.37-1.1c0.42-4.08,0.77-8.23,0.29-12.26c-0.08-0.66-4.33-1.06-6.68-1.15c-10.21-0.42-20.8,2.75-30.43-3.3
		c-0.46-0.29-1.3,0.02-1.96,0.03c-2.66,0.04-5.33,0.1-7.99,0.11c-5.44,0.01-5.73-0.39-4.67-6.34c2.93-0.38,6.59,0.61,6.55-4.8
		c-0.09-11.15-0.69-12.74-7.95-14.24c0-2.29,0-4.55,0-7.22c2.15,0.17,4.06,0.78,5.68,0.34c1.97-0.53,5.35-2.15,5.26-2.96
		c-0.69-5.86,1.38-10.46,4.36-15.32c1.26-2.05-0.71-5.85-0.39-8.76c0.53-4.87-2.14-5.09-5.74-4.97c-4.74,0.16-9.48,0.04-14.35,0.04
		c-0.36-2.62-0.71-5.18-1.14-8.27c1.93,0,3.22-0.07,4.5,0.01c6.25,0.37,12.49,0.92,18.75,1.08c1.46,0.04,4.28-1.31,4.24-1.85
		c-0.32-4.23-0.51-8.72-2.21-12.46c-0.65-1.42-5.16-1.08-7.91-1.57c-0.3-0.05-0.56-0.32-1.08-0.63c0-2.28,0-4.69,0-7.06
		c8.85-1.52,9.23-2.09,7.89-11.49c-0.02-0.16-0.01-0.33-0.03-0.5c-0.76-6.1-1.53-6.59-7.93-6.23c-3.91,0.22-7.85,0.04-11.94,0.04
		c-0.21-2.68-0.37-4.76-0.55-7.02c2.33-0.12,4.15-0.4,5.95-0.27c6.33,0.45,8.33-1.55,7.03-7.57c-0.65-3.02-1.86-5.8,2.54-7.14
		c0.77-0.24,1.38-2.89,1.12-4.26c-0.88-4.71-2.74-9.29-3.2-14.02c-1.04-10.64-1.59-11.29-12.04-9.29
		c-1.09,0.21,0.97,11.09,0.97,11.09l-14.87,20.08l-1.75,47.45l-2.84,10.97l-4.2,9.19l5.17,21.71l-7.91,31.11l-2.45,15.8l29.92,11.94
		l10.59,10.42l-3.24,47.79h32.65c0.07-0.56,0.14-1.15,0.22-1.81c1.99,0.67,3.81,1.01,5.26,1.81h5.78c1.14-3.29,2.37-6.47,3.1-8.44
		c2.78-2.07,6.05-3.24,6.7-5.24C255.88,232.01,253.48,227.75,249.47,226.04z"/>
	<g>
		<path d="M49.66,245.81c-0.38,1.45-0.76,2.92-1.29,4.97h3.32c-0.36-1.58-0.73-3.16-1.09-4.74
			C50.29,245.97,49.97,245.89,49.66,245.81z"/>
		<path d="M249.63,226.04c-0.49-2.88-0.06-7.11-1.6-8.02c-4.29-2.55-2.63-5.79-2.46-8.99c0.17-3.14,0.54-6.26,0.62-9.4
			c0.08-2.93-1.49-4.14-4.44-3.91c-1.47,0.11-2.97-0.26-4.46-0.42c0.04-0.54,0.08-1.09,0.12-1.63c1.53,0,3.07,0.14,4.57-0.05
			c1.2-0.15,3.32-0.61,3.37-1.1c0.42-4.08,0.77-8.23,0.29-12.26c-0.08-0.66-4.33-1.06-6.68-1.15c-10.21-0.42-20.8,2.75-30.43-3.3
			c-0.46-0.29-1.3,0.02-1.96,0.03c-2.66,0.04-5.33,0.1-7.99,0.11c-5.44,0.01-5.73-0.39-4.67-6.34c2.93-0.38,6.59,0.61,6.55-4.8
			c-0.09-11.15-0.69-12.74-7.95-14.24c0-2.29,0-4.55,0-7.22c2.15,0.17,4.06,0.78,5.68,0.34c1.97-0.53,5.35-2.15,5.26-2.96
			c-0.69-5.86,1.38-10.46,4.36-15.32c1.26-2.05-0.71-5.85-0.39-8.76c0.53-4.87-2.14-5.09-5.74-4.97c-4.74,0.16-9.48,0.04-14.35,0.04
			c-0.36-2.62-0.71-5.18-1.14-8.27c1.93,0,3.22-0.07,4.5,0.01c6.25,0.37,12.49,0.92,18.75,1.08c1.47,0.04,4.28-1.31,4.24-1.85
			c-0.32-4.23-0.51-8.72-2.22-12.46c-0.65-1.42-5.16-1.08-7.91-1.57c-0.3-0.05-0.56-0.32-1.08-0.63c0-2.28,0-4.69,0-7.06
			c8.85-1.52,9.23-2.09,7.89-11.49c-0.02-0.16-0.01-0.33-0.03-0.5c-0.76-6.1-1.53-6.59-7.93-6.23c-3.91,0.22-7.85,0.04-11.94,0.04
			c-0.21-2.68-0.37-4.76-0.55-7.02c2.33-0.12,4.15-0.4,5.95-0.27c6.33,0.45,8.33-1.55,7.03-7.57c-0.65-3.02-1.86-5.8,2.54-7.14
			c0.77-0.24,1.38-2.89,1.12-4.26c-0.88-4.71-2.74-9.29-3.2-14.02c-1.04-10.64-1.59-11.29-12.04-9.29
			c-1.09,0.21-2.16,0.56-3.24,0.85c0.26-0.88,0.44-1.81,0.84-2.63c3.13-6.32,0.79-10.42-5.94-10.49
			c-28.11-0.3-56.22-0.67-84.33-0.95C86.04-0.11,86.04-0.04,86.9,12.7c0.01,0.17-0.01,0.33,0.01,0.5c0.27,2.89,1.04,4.7,4.73,3.66
			c2.27-0.64,4.87-0.12,7.11-0.12c3.14,3.61-2.87,11.28,6.04,11.9c0,2.8,0,5.49,0,8.31c-6.47-1.71-7.14-1.17-7.05,5
			c0.03,2.48,0.01,4.95,0.01,7.64c-0.91,0.1-1.7,0.27-2.5,0.25c-9.86-0.22-9.85-0.23-9.13,9.76c0.05,0.66,0.1,1.33,0.1,2
			c0,2.84,1.03,4.15,4.23,3.96c5.27-0.31,10.56-0.08,16.14-0.08c0,3.14,0,5.72,0,8.29c-7.77,0.54-7.75,0.54-7.72,8.66
			c0.01,1.75-0.2,3.5-0.31,5.3c-1.6,0.08-2.58,0.18-3.57,0.17c-19.07-0.29-38.14-0.47-57.19-1c-4.42-0.12-6.72,0.73-6.09,5.63
			c0.26,2.04,0.04,4.14,0.04,6.56c-3.01-0.23-5.15-0.34-7.28-0.57c-9.66-1.01-9.66-1.02-9.68,8.51c-0.02,7.73-0.01,7.97,7.37,7.82
			c4.88-0.09,7.63,1.03,6.6,6.59c-0.19,1,0.2,2.73,0.91,3.17c3.68,2.3,2.95,5.64,2.46,9.64c-3.88,0-8.81-1.41-11.47,0.44
			c-2.13,1.49-1.5,6.93-2.16,10.98c-0.13,0.03-0.76,0.3-1.39,0.29c-4.14-0.11-8.3-0.07-12.41-0.51c-2.42-0.26-4.01-0.13-4.07,2.7
			c-0.07,3.15-0.17,6.3-0.09,9.45c0.08,3.21,0.68,5.58,5.05,4.05c1.74-0.61,4.68-0.22,5.92,0.94c1,0.94,0.73,3.87,0.18,5.66
			c-1.08,3.49-2.76,6.8-4.31,10.46c-7.3,0.81-7.3,0.81-7.38,8.97c0,0.5-0.03,1,0,1.5c0.24,3.88,1.97,6.3,6.19,6.15
			c3.12-0.11,6.23-0.3,10.55-0.51c-0.92,7.41-1.76,14.19-2.49,20.06c-1.84,0.72-4.92,1.32-4.95,2.05c-0.2,4.39-0.14,8.92,0.85,13.16
			c0.26,1.12,4.12,1.4,6.38,2.08c0,1.39,0,2.83,0,3.16l0.01,15.46h11.77c-0.51-0.99-1.03-1.98-1.54-2.96c0.5-0.32,1-0.64,1.49-0.96
			c0.81,1.31,1.62,2.61,2.43,3.92h12.83c-4.16-1.7-8.26-3.37-12.37-5.05c0.14-0.42,0.27-0.83,0.41-1.25c7.21,0,14.42,0,21.96,0
			c0,2.37,0,4.38,0,6.3h179.78c0.07-0.56,0.14-1.15,0.22-1.81c1.99,0.67,3.81,1.01,5.26,1.81h5.78c1.14-3.29,2.37-6.47,3.1-8.44
			c2.78-2.07,6.05-3.24,6.7-5.24C256.05,232.01,253.64,227.75,249.63,226.04z M208.39,93.46c0.39,2.08,0.75,3.95,1.1,5.82
			c-7.23,1.43-7.98,0.84-7.44-6.19C204.31,93.23,206.25,93.34,208.39,93.46z M196.24,67.53c2.99,0,5.85,0,9.16,0
			c0,2.65,0,5.18,0,8.05c-2.85,0-5.76,0-9.16,0C196.24,72.76,196.24,70.32,196.24,67.53z M191.32,79.57
			c2.44,0.32,4.51,0.59,6.56,0.86c0.58,8.96,0.16,9.46-6.56,7.62C191.32,85.35,191.32,82.62,191.32,79.57z M193.63,203.58
			c1.82,0,3.72,0,6.01,0c0.26,2.36,0.52,4.61,0.82,7.34c-2.1,0.35-4.12,0.68-6.84,1.13C193.63,208.73,193.63,206.3,193.63,203.58z
			 M195.78,164.23c-2.61,0.16-5.28,0.32-8.28,0.5c0-3.36,0-6.09,0-8.8C196.13,155.38,196.58,155.83,195.78,164.23z M203.46,116.47
			c0,3.08,0,5.84,0,9.22c-2.15,0.11-4.36,0.22-7.1,0.36c-0.2-3.27-0.37-6.17-0.58-9.59C198.66,116.47,200.91,116.47,203.46,116.47z
			 M189.44,129.94c3.32,0.35,6.73,0.16,9.62,1.31c0.92,0.37,1.24,5.85,0.46,6.25c-2.79,1.4-6.17,1.61-10.07,2.42
			C189.44,136.02,189.44,133.58,189.44,129.94z M187.68,150.85c-2.41,0-4.8,0-7.39,0c0-2.65,0-4.9,0-7.12
			C189.03,142.61,189.66,143.25,187.68,150.85z M181.4,92.4c0,2.33,0,4.47,0,6.62c-0.24,0.03-0.48,0.06-0.71,0.09
			c-0.31-2.02-0.62-4.04-0.93-6.06c-0.5,0.02-1,0.04-1.49,0.06c-0.28,1.93-0.55,3.87-0.83,5.8c-0.36-0.08-0.72-0.17-1.08-0.25
			c0.2-2.06,0.4-4.12,0.61-6.26C178.5,92.4,179.79,92.4,181.4,92.4z M185.51,55.71c0.11,1.2,0.27,2.16,0.27,3.12
			c0.01,1.13-0.11,2.27-0.19,3.67c-1.22,0.18-2.31,0.39-3.42,0.48c-0.97,0.08-1.96,0.02-2.86,0.02
			C176.97,56.38,178.17,54.87,185.51,55.71z M182.48,103.58c0,2.78,0,5.21,0,7.61c-8.36,2-8.67,1.75-8.83-7.61
			C176.7,103.58,179.45,103.58,182.48,103.58z M201.3,37.18c-2.67,0.13-5.39,0.26-8.43,0.41c0.11-2.6,0.22-5.01,0.32-7.38
			C201.47,27.96,203.13,29.38,201.3,37.18z M192.55,17.93c5.96-1.63,6.6-0.93,5.84,7.21c-1.99,0.21-3.76,0.4-5.84,0.62
			C192.55,23.06,192.55,20.51,192.55,17.93z M198.19,41.59c-0.15,3.09-0.09,6.08-0.68,8.94c-0.09,0.42-4.66,0.69-4.86,0.17
			c-1.07-2.84-1.42-5.96-2.19-9.88C193.74,41.14,195.51,41.32,198.19,41.59z M176.02,15.17c0.17-3.09,0.35-6.17,0.52-9.19
			c1.06-0.18,2-0.34,2.82-0.45c0.82-0.11,1.54-0.19,2.16-0.21s1.14,0.02,1.59,0.12c0.45,0.1,0.82,0.28,1.13,0.54
			c0.15,0.13,0.29,0.28,0.42,0.45c0.89,1.2,1.13,3.5,1.47,7.49c0.61,0.1,1.22,0.19,1.83,0.29c0-0.03,0-0.05,0-0.08
			c0,0,0.09,0.1,0.09,0.1c-0.03,0-0.06-0.01-0.09-0.01c0,1.61,0,3.23,0,5.61c0.87-1.08,1.28-1.59,2.27-2.82
			c0.23,3.07,0.42,5.48,0.6,7.89c-0.3,0.07-0.59,0.14-0.89,0.21c-1.64-3.32-3.28-6.63-4.92-9.95c-0.53,0.83-1.61,1.75-1.49,2.47
			c0.34,2.14,1.16,4.19,1.71,6.04c-1.63-1.58-3.15-3.06-5.06-4.91c-0.3,2.13-0.53,3.83-0.98,7.04c-0.36-1.7-0.67-3.19-0.96-4.55
			c-0.48-2.27-0.89-4.19-1.29-6.1c0,3.31,0,6.61,0,9.92c-0.62-0.03-1.24-0.05-1.87-0.08C174.42,21.7,172.76,18.38,176.02,15.17z
			 M174.05,41.22c0.35-0.01,0.71-0.02,1.06-0.04c0,3.33,0,6.66,0,9.99c-0.35,0.04-0.71,0.08-1.06,0.12
			C174.05,47.94,174.05,44.58,174.05,41.22z M173.99,88.35c-0.45,0.02-0.9,0.04-1.35,0.06c-0.14-2.84-0.29-5.69-0.43-8.53
			c0.6-0.06,1.19-0.13,1.79-0.19C173.99,82.57,173.99,85.46,173.99,88.35z M165.85,114.99c0.46,0.05,0.91,0.11,1.37,0.16
			c0,3.52,0,7.03,0,10.55c-0.46,0.01-0.91,0.02-1.37,0.03C165.85,122.15,165.85,118.57,165.85,114.99z M166.02,92.36
			c0.56-0.17,1.12-0.33,1.67-0.5c1.93,2.28,1.01,5.04,0.74,7.69c-0.56,0.11-1.12,0.22-1.69,0.32
			C166.5,97.37,166.26,94.86,166.02,92.36z M165.19,66.57c0,2.87,0,5.73,0,8.6c-0.46,0.03-0.91,0.07-1.37,0.1
			c-0.19-2.87-0.38-5.75-0.58-8.62C163.89,66.62,164.54,66.59,165.19,66.57z M163.61,89.26c-0.38-3.91-0.67-6.83-0.96-9.86
			C166.26,80.25,166.88,84.14,163.61,89.26z M161.72,16.6c-0.14,2.92-0.27,5.57-0.39,8.22c-0.57,0.01-1.14,0.01-1.71,0.02
			c-0.17-2.4-0.34-4.81-0.51-7.21c-0.42-0.09-0.84-0.18-1.26-0.27c-0.5,2.37-1,4.74-1.5,7.11c-0.23-0.01-0.47-0.02-0.7-0.03
			c-0.22-2.38-0.44-4.76-0.65-7.14c-0.49-0.04-0.99-0.08-1.48-0.12c-0.36,2.47-0.73,4.94-1.09,7.41c-0.33,0.01-0.67,0.03-1,0.04
			c-0.53-2.42-1.07-4.83-1.6-7.25c-0.39-0.03-0.77-0.05-1.16-0.08c-0.32,2.49-0.65,4.98-0.97,7.47c-0.52-0.02-1.04-0.04-1.56-0.05
			c-0.32-2.49-0.65-4.98-1.05-8.11C150.88,16.6,155.97,16.6,161.72,16.6z M158.89,211.92c-0.47-0.05-0.94-0.1-1.41-0.15
			c-0.53-2.78-1.06-5.57-1.59-8.35c-0.39,0.05-0.78,0.09-1.17,0.13c0,2.61,0,5.23,0,7.84c-0.48,0.25-0.96,0.51-1.44,0.76
			c-0.68-1.26-1.63-2.46-1.96-3.81c-0.38-1.59-0.22-3.32-0.3-4.99c-0.56-0.01-1.13-0.03-1.69-0.04c-0.18,2.6-0.36,5.19-0.64,9.19
			c-1.7-1.09-3.6-1.68-4.28-2.93c-0.8-1.48-0.54-3.53-0.74-5.33c-0.5,0.01-1,0.02-1.5,0.02c-0.22,2.3-0.44,4.59-0.68,7.05
			c-11.54,0-23.03,0-34.84,0c-0.62-3.46-1.12-6.29-1.77-9.93c2.41,0,4.18-0.01,5.95,0c14.76,0.12,29.53,0.29,44.29,0.31
			c2.78,0,3.97,0.96,3.81,3.76C158.79,207.61,158.89,209.77,158.89,211.92z M148.15,214.68c0,2.97,0,5.94,0,8.92
			c-0.44,0.02-0.88,0.04-1.32,0.06c0-3,0-5.99,0-8.99C147.27,214.67,147.71,214.67,148.15,214.68z M139.56,222.88
			c-0.91,0.11-1.83,0.22-2.74,0.32c-0.22-2.83-0.44-5.65-0.66-8.48c0.77-0.1,1.53-0.21,2.3-0.31
			C138.83,217.24,139.2,220.06,139.56,222.88z M133.36,214.87c0,2.58,0,5.15,0,7.73c-0.5,0.04-1.01,0.07-1.51,0.11
			c-0.18-2.65-0.37-5.31-0.55-7.96C131.99,214.78,132.67,214.82,133.36,214.87z M128.55,222.61c-0.7,0.2-1.4,0.39-2.1,0.59
			c-0.49-2.64-0.98-5.27-1.46-7.91c0.64-0.17,1.28-0.34,1.92-0.51C129.96,216.59,128.6,219.81,128.55,222.61z M154.45,40.61
			c0.3,3.42,0.58,6.73,0.87,10.04c-0.52,0.09-1.04,0.17-1.56,0.26c-0.44-3.27-0.87-6.54-1.31-9.81c-0.59,0.01-1.17,0.02-1.76,0.04
			c-0.27,3.18-0.54,6.35-0.81,9.53c-0.33,0.02-0.67,0.05-1,0.07c-0.45-3.07-0.9-6.15-1.36-9.22c-0.52,0.07-1.04,0.14-1.57,0.21
			c0,2.69,0,5.39,0,8.08c-0.43-0.01-0.85-0.01-1.28-0.02c-0.19-2.92-0.38-5.85-0.6-9.17C147.61,40.61,150.84,40.61,154.45,40.61z
			 M149.24,28.66c3.74,0.99,4.06,2.08,2.93,7.97c-0.6,0.13-1.21,0.26-1.81,0.39C149.99,34.32,149.63,31.63,149.24,28.66z
			 M152.8,62.41c-0.58,0.06-1.17,0.12-1.75,0.18c0-2.61,0-5.22,0-7.84c0.45-0.02,0.91-0.04,1.36-0.06
			C152.54,57.26,152.67,59.84,152.8,62.41z M148,66.1c0.8,3.27,1.43,5.83,2.06,8.39c0.62-0.13,1.25-0.27,1.87-0.4
			c-0.2-2.35-0.39-4.7-0.59-7.05c0.78-0.27,1.45-0.43,2-0.46c0.92-0.06,1.54,0.22,1.91,0.95c0.07,0.15,0.14,0.31,0.19,0.49
			c0.11,0.37,0.18,0.81,0.22,1.33c0.09,1.31-0.04,3.12-0.33,5.54c-12.26,0-24.49,0.04-36.71-0.01c-7.43-0.03-8.25-1.16-6.9-8.77
			C123.92,66.1,136.08,66.1,148,66.1z M153.21,92.02c0.7-0.27,1.41-0.53,2.11-0.8c0.51,1.7,1.4,3.4,1.4,5.11c0,1.1-1.29,2.21-2,3.31
			c-0.45-0.26-0.9-0.52-1.35-0.77c-0.05-0.97-0.13-1.94-0.15-2.91C153.19,94.65,153.21,93.33,153.21,92.02z M154.26,79.4
			c0,2.78,0,5.59,0,8.86C150.81,84.79,151.17,80.25,154.26,79.4z M144.29,99.14c-9.45-0.12-18.91-0.03-28.19-0.03
			c-2.17-7.08-1.78-7.74,4.79-7.8c9.77-0.09,19.53-0.02,29.18-0.02C151.46,99.2,151.34,99.23,144.29,99.14z M156.5,114.58
			c0.19,3.76,0.35,7.19,0.55,11.09c-1.29,0.09-2.5,0.18-3.86,0.27c-0.28-3.75-0.55-7.27-0.81-10.79c-0.58,0.04-1.16,0.08-1.74,0.11
			c0,3.31,0,6.62,0,9.99c-13.94,0-27.44,0-41.21,0c-0.45-3.77-0.82-6.98-1.26-10.67C124.57,114.58,140.31,114.58,156.5,114.58z
			 M155.65,163.89c0-2.92,0-5.85,0-8.86C158.86,156.62,159.12,159.45,155.65,163.89z M158.51,186.11c-0.28,0.45-1.11,0.91-1.57,0.82
			c-0.65-0.14-1.62-0.72-1.71-1.24c-0.34-1.91-0.37-3.87-0.56-6.26C157.86,180.37,159.79,184.1,158.51,186.11z M155.36,150.47
			c0-2.61,0-5.23,0-7.84c0.31-0.01,0.61-0.02,0.92-0.03c0,2.61,0,5.23,0,7.84C155.97,150.45,155.67,150.46,155.36,150.47z
			 M158.13,138.84c-0.41,0-0.83-0.01-1.24-0.01c0-3.05,0-6.1,0-9.15c0.41,0,0.83,0,1.24,0
			C158.13,132.73,158.13,135.79,158.13,138.84z M113.19,186.41c0-2.22-0.02-3.54,0.01-4.86c0.02-0.65,0.13-1.3,0.23-2.17
			c10.33,0,20.55,0,31.11,0c0.18,2.59,0.32,4.7,0.48,7.03C134.49,186.41,124.15,186.41,113.19,186.41z M134.21,198.3
			c-4.03-3.17-3.96-6.09-0.61-8.04C133.82,193.15,134.02,195.72,134.21,198.3z M123.71,197.94c-5.27,0-10.18,0-15.08,0
			c-3.95,0-7.91-0.11-11.85,0.05c-3.02,0.13-4.52-0.62-4.57-4.09c-0.05-3.64,1.61-4.03,4.59-3.94c4.79,0.14,9.6-0.33,14.38-0.06
			c1.4,0.08,2.85,1.63,4.03,2.77c0.81,0.78,1.18,2.01,1.74,3.04c0.33-0.09,0.65-0.19,0.98-0.28c0.13-1.55,0.27-3.1,0.42-4.88
			C124.57,189.32,122.99,193.99,123.71,197.94z M142.76,164.5c-0.38-3.38-0.71-6.31-1.04-9.24c-0.5,0-1,0-1.49,0
			c-0.24,2.62-0.48,5.23-0.87,9.57c-1.85-1.5-3.56-2.25-4.11-3.5c-0.76-1.73-0.64-3.84-0.9-5.79c-0.52,0.01-1.04,0.02-1.57,0.03
			c-0.28,2.65-0.55,5.3-0.83,7.96c-9.6,0-19.17,0-28.88,0c-0.32-3.16-0.59-5.85-0.9-8.94c14.99,0,29.55,0,44.49,0
			c0.31,2.9,0.62,5.75,0.98,9.05C146.07,163.92,144.57,164.18,142.76,164.5z M130.05,142.2c1.63,0,3.26,0,5.34,0
			c0,3.33,0,5.87,0,8.41c-0.58,0.18-1.16,0.35-1.73,0.53c-0.87-2.58-1.74-5.16-2.6-7.74c-0.28-0.05-0.55-0.1-0.83-0.15
			c-0.18,1.57-0.12,3.22-0.62,4.69c-0.33,0.98-1.44,1.71-2.2,2.55c-0.77-0.79-2.05-1.48-2.23-2.39
			C124.22,143.3,125.22,142.21,130.05,142.2z M143.9,138.51c-3.19-0.45-4-2.86-3.21-9.44C144.28,129.63,144.45,130.14,143.9,138.51z
			 M145.72,142.41c0.65,1.4,1.81,2.79,1.82,4.19c0.01,0.88-0.43,1.76-0.92,2.65c-0.29,0.53-0.6,1.06-0.84,1.59l0,0v0
			c-0.19-0.29-0.38-0.58-0.58-0.87c-0.58-0.88-1.18-1.78-1.85-2.8C144.3,145.28,145.01,143.84,145.72,142.41z M142.55,146.35
			c-1,1.85-1.7,3.14-2.4,4.43c-0.64-1.42-1.72-2.81-1.81-4.26c-0.08-1.34,0.9-2.73,1.41-4.11
			C140.64,143.67,141.53,144.91,142.55,146.35z M151.74,179.2c0.31,2.51,0.59,4.75,0.94,7.48c-6.43,1.2-4.99-3.25-5.5-6.8
			C148.68,179.66,150.05,179.45,151.74,179.2z M150.93,165.4c-0.67-4.08-1.17-7.15-1.68-10.28
			C153.11,155.19,154.01,159.33,150.93,165.4z M152.58,138.55c-0.5-2.84-0.99-5.67-1.49-8.51c-0.54,0.03-1.07,0.05-1.61,0.08
			c-0.22,2.93-0.43,5.86-0.65,8.78c-0.56-0.02-1.12-0.03-1.68-0.05c-0.15-2.93-0.79-5.98-0.14-8.73c0.2-0.83,3.95-0.83,6.6-1.3
			c0,3.74,0,6.61,0,9.49C153.27,138.39,152.93,138.47,152.58,138.55z M137.42,128.76c0.38,3.37,0.72,6.41,1.11,9.9
			c-7.79,0.45-2.34-7.27-6.81-9.23c0,3.11,0,5.95,0,8.78c-9.06,0-17.46,0-26.24,0c-0.54-3.41-0.99-6.24-1.5-9.45
			C115.47,128.76,126.3,128.76,137.42,128.76z M119.47,142.17c0.88,0.02,2.34,1.41,2.48,2.32c0.26,1.83-0.21,3.76-0.37,5.66
			c-1.44-0.67-3.41-0.99-4.17-2.12c-0.76-1.15-0.32-3.1-0.4-4.7c-0.48-0.06-0.96-0.12-1.44-0.18c-0.4,2.06-0.79,4.12-1.26,6.55
			c-6.8,0-13.69,0-21.16,0c0-2.58,0-5.18,0-7.64C102.06,142.07,110.77,142,119.47,142.17z M122.84,168.13c0-0.02,0-0.05,0-0.07l0,0
			c0,0,0,0,0,0c0,0,0.06,0.07,0.06,0.07c3.75-0.21,7.5-0.58,11.24-0.51c0.86,0.02,2.29,1.5,2.4,2.43c0.19,1.65-0.42,3.39-0.7,5.09
			c-1.17-0.54-2.98-0.8-3.36-1.69c-0.65-1.51-0.41-3.41-0.54-5.14c-0.49-0.04-0.98-0.07-1.47-0.11c-0.24,1.4-0.28,2.87-0.77,4.16
			c-0.38,1-1.33,1.78-2.03,2.66c-0.81-0.84-1.75-1.59-2.38-2.55c-0.91-1.38-1.61-2.89-2.4-4.36
			C122.87,168.13,122.86,168.13,122.84,168.13c0,2.09,0,4.18,0,6.76c-9.14,0-17.72,0.29-26.25-0.27c-1.51-0.1-2.8-3.72-4.72-6.49
			C103.29,168.13,113.07,168.13,122.84,168.13z M93.25,214.33c7.6-0.29,15.21-0.14,23.09-0.14c0.46,2.75,0.83,5.01,1.2,7.27
			c0.52-0.04,1.04-0.08,1.56-0.12c0.5-2.34,1.01-4.68,1.51-7.02c0.57,0.04,1.15,0.07,1.72,0.11c0.24,2.71,0.48,5.41,0.76,8.49
			c-10.21,0-19.98,0.02-29.74-0.01c-3.88-0.01-4.15-3.09-3.83-5.62C89.67,216.12,91.9,214.38,93.25,214.33z M157.43,87.17
			c-0.17-2.73-0.08-5.48-0.08-8.22c0.78,0.02,1.55,0.03,2.33,0.05c0.3,2.65,0.68,5.3,0.81,7.96c0.03,0.53-0.9,1.52-1.41,1.55
			C158.53,88.52,157.46,87.68,157.43,87.17z M159.44,75.65c-2.26-2.81-1.29-5.94-0.77-9.02c0.59-0.05,1.18-0.1,1.77-0.15
			c0.19,3.01,0.38,6.02,0.57,9.03C160.49,75.55,159.96,75.6,159.44,75.65z M143.84,28.67c0.98,0.45,2.72,0.77,2.82,1.38
			c0.35,2.07,0.14,4.24,0.14,6.37c-0.47,0.27-0.94,0.53-1.41,0.8c-0.71-1.09-1.88-2.12-2.03-3.28
			C143.13,32.23,143.64,30.43,143.84,28.67z M137.54,4.6c0.69,0.02,1.92,0.49,1.95,0.84c0.17,2.43,0.09,4.89,0.09,7.33
			c-0.59,0.04-1.19,0.08-1.78,0.12c-0.47-2.35-1-4.69-1.35-7.06C136.39,5.46,137.17,4.59,137.54,4.6z M134.69,13.19
			c-7.05-0.66-3.38-5.7-5.52-9.07C136.35,5.04,133.03,9.69,134.69,13.19z M98.19,12.88c-7.32-0.14-7.32-0.17-6.69-8.2
			c11.5,0,23.06,0,35.15,0c0.34,2.52,0.66,4.94,1.1,8.27c-6.11,0-11.84,0.01-17.57,0C106.19,12.94,102.19,12.96,98.19,12.88z
			 M102.62,17.7c0.55-0.37,1.1-0.75,1.65-1.12c12.72,0,25.44,0,38.48,0c0,2.77,0,5.34,0,7.9c-0.53,0.14-1.05,0.28-1.58,0.41
			c-0.53-2.55-1.05-5.1-1.58-7.65c-0.38-0.05-0.75-0.09-1.13-0.14c-0.36,2.35-0.73,4.7-1.06,6.88c-10.47,0-20.92,0.21-31.34-0.28
			C104.82,23.65,103.76,19.79,102.62,17.7z M140.6,28.04c0,3.37,0,5.82,0,8.91c-9.31,0-18.74,0.4-28.08-0.36
			c-1.77-0.14-3.17-4.9-5.35-8.55C119.37,28.04,129.66,28.04,140.6,28.04z M141.49,41.14c0,2.96,0,6.13,0,9.31
			c-0.54,0.15-1.09,0.3-1.63,0.45c-0.85-2.89-1.7-5.78-2.55-8.67c-0.39,0.02-0.78,0.04-1.16,0.06c-0.21,2.72-0.41,5.45-0.62,8.17
			c-0.5,0.13-1,0.25-1.51,0.38c-0.89-2.81-1.78-5.62-2.67-8.43c-0.31,0.01-0.61,0.03-0.92,0.04c0,2.55,0,5.09,0,7.8
			c-9.05,0-17.71,0-27.17,0c-0.45-3.22-0.81-5.75-1.27-9.1C115.48,41.14,128.29,41.14,141.49,41.14z M94.01,61.82
			c-4.79-0.14-3.84-3.87-3.58-7.6c13.35,0,26.54,0,39.88,0c0.02-0.16,0.04-0.31,0.06-0.48c0.07,0.17,0.14,0.32,0.21,0.48
			c2.91,0,5.82,0,8.75,0c0,2.77,0,4.85,0,6.92c-0.17,0.06-0.34,0.12-0.51,0.18c-0.51-2.07-1.02-4.13-1.53-6.2
			c-0.53,0.05-1.06,0.09-1.58,0.14c-0.12,2.07-0.24,4.14-0.36,6.21c-0.42,0.22-0.85,0.45-1.27,0.67c-1-2.26-2-4.53-3.49-7.91
			c-0.09,0-0.18,0-0.27,0c-0.44,3.4-0.71,5.48-0.98,7.55c-0.39,0.1-0.77,0.2-1.16,0.29c-0.78-1.88-1.55-3.76-2.33-5.64
			c-0.34-0.03-0.67-0.07-1.01-0.1c-0.4,1.72-0.8,3.44-1.29,5.58C113.85,61.91,103.92,62.11,94.01,61.82z M109.12,78.39
			c4.98-0.01,9.96,0,15.08,0c0.24,1.96,0.44,3.64,0.68,5.53c3.51-0.53,0.61-7.72,6.24-5.06c0.57,2.26,1.19,4.72,1.81,7.19
			c0.45-0.08,0.89-0.16,1.34-0.24c0-2.18,0-4.37,0-6.52c1.98-0.42,1.98-0.42,7.36,6.92c0.25-2.93,0.45-5.33,0.65-7.73
			c0.58-0.01,1.17-0.02,1.75-0.03c0.43,2.86,0.85,5.72,1.28,8.58c0.4,0.03,0.8,0.07,1.2,0.1c0.3-2.52,0.6-5.03,0.9-7.55
			c0.42-0.06,0.85-0.13,1.27-0.19c0.4,2.64,0.8,5.28,1.2,7.94c-15.73,0-30.57,0-45.36,0c-0.26-1.23-0.4-1.87-0.53-2.51
			C102.66,78.41,102.66,78.4,109.12,78.39z M85.94,102.3c11.87,0,23.46,0,34.95,0c0.52,2.9,0.96,5.38,1.39,7.86
			c0.48-0.01,0.96-0.01,1.44-0.02c0.2-2.41,0.41-4.82,0.65-7.72c5.66,0,11.44-0.14,17.21,0.05c3.49,0.12,4.2,3.25,1.53,9.55
			c-0.6-3.46-1.02-5.83-1.43-8.21c-0.35-0.05-0.7-0.11-1.05-0.16c-0.63,2.48-1.26,4.97-1.89,7.45c-0.46-0.11-0.92-0.21-1.39-0.32
			c-0.35-2.55-0.7-5.09-1.05-7.64c-0.54-0.03-1.07-0.05-1.61-0.08c-0.46,2.59-0.92,5.18-1.38,7.77c-0.47,0.09-0.95,0.17-1.42,0.26
			c-0.85-2.66-1.71-5.33-2.56-7.99c-0.36-0.01-0.73-0.01-1.09-0.02c-0.29,2.42-0.58,4.83-0.89,7.38c-13.49,0-26.86,0-40.71,0
			c-0.31-2.38-0.55-4-0.73-5.63C85.89,104.22,85.94,103.58,85.94,102.3z M65.52,116.89c0.34,1.85,0.14,3.79,0.14,6.28
			c-3.16-1.51-4.55-6.01-2.87-7.21C63.27,115.62,65.42,116.39,65.52,116.89z M36.61,90.99c9.21,0,18.39,0,27.89,0
			c0,3.12,0,5.66,0,8.2c-0.44,0.08-0.87,0.17-1.31,0.25c-0.37-2.44-0.74-4.88-1.11-7.32c-0.59,0.07-1.19,0.14-1.78,0.21
			c-0.29,2.03-0.58,4.06-0.91,6.39c-7.49,0-14.9,0-22.77,0C36.61,96.17,36.61,93.64,36.61,90.99z M19.47,110.43
			c-0.14-2.72-0.25-4.93-0.37-7.32c13.18,0,25.98,0,38.77,0c0-0.03,0-0.05,0-0.08l0,0c0,0,0,0,0,0c0,0,0.05,0.08,0.05,0.08
			c1.51,0,3.03,0,4.91,0c-0.13,2.8-0.25,5.25-0.37,7.7c-0.29,0.01-0.58,0.01-0.88,0.02c-1.23-2.57-2.45-5.14-3.68-7.71
			c-0.01,0-0.03,0-0.04,0c-0.12,2.44-0.24,4.89-0.35,7.34c-0.47,0.22-0.93,0.45-1.4,0.67c-0.96-1.73-1.91-3.46-3.41-6.18
			c-0.62,2.22-1.07,3.86-1.53,5.5C40.8,110.43,30.41,110.43,19.47,110.43z M31.25,115.03c10.38,0,19.23,0,28.26,0
			c0,2.69,0,4.95,0,8.12c-8.46-0.41-16.67-0.55-24.79-1.46C33.46,121.55,32.63,117.82,31.25,115.03z M29.89,137.58
			c8.74-0.11,17.47-0.03,26.5-0.03c0.53,3.74,0.91,6.4,1.29,9.05c-0.66,0.2-1.32,0.39-1.98,0.59c-0.8-2.65-1.6-5.29-2.39-7.94
			c-0.3-0.06-0.6-0.12-0.9-0.18c-0.37,2.51-0.73,5.02-1.1,7.54c-0.49,0.19-0.98,0.37-1.47,0.56c-1.05-2.66-2.11-5.31-3.16-7.97
			c-0.34,0.04-0.69,0.09-1.03,0.13c0,2.24,0,4.47,0,7.32c-1.7,0-2.97,0-4.42,0c-0.35-2.21-0.69-4.3-1.03-6.39
			c-0.52-0.02-1.03-0.03-1.55-0.05c-0.36,1.9-0.71,3.79-1.09,5.82c-4.53,0-9.08,0-13.52,0C22.2,137.95,22.33,137.67,29.89,137.58z
			 M7.97,157.73c-4.42-0.26-3.29-4.07-3.69-7.6c18.8,0,37.25,0,56.59,0c-0.31,3.56-0.54,6.11-0.76,8.66
			c-0.46-0.01-0.92-0.01-1.38-0.02c-0.42-2.51-0.84-5.01-1.27-7.52c-0.48,0.03-0.96,0.07-1.44,0.1c-0.12,1.51-0.04,3.08-0.43,4.52
			c-0.29,1.07-1.19,1.98-1.82,2.97c-0.78-0.99-1.71-1.91-2.28-3.01c-0.46-0.89-0.5-2-1.05-4.48c-0.89,2.17-1.14,2.97-1.53,3.7
			c-0.67,1.26-1.41,2.48-2.12,3.71c-0.64-1.37-1.29-2.74-1.92-4.11c-0.32-0.69-0.62-1.38-2.07-2.13c-0.33,1.85-0.65,3.7-1.24,7.03
			c-1.97-2.28-3.45-3.99-5.3-6.13c-0.39,1.36-0.78,2.74-1.23,4.34c-1.38,0-2.81,0-4.19,0c-0.19-2-0.35-3.75-0.52-5.5
			c-0.5-0.04-1.01-0.08-1.51-0.11c-0.48,1.75-0.96,3.49-1.57,5.67C20.89,157.83,14.41,158.12,7.97,157.73z M60.34,146.87
			c-0.22-2.76-0.43-5.53-0.68-8.78c3.54,1.73,3.79,3.23,2.25,8.6C61.39,146.75,60.87,146.81,60.34,146.87z M61.85,192.03
			c-4.49-1.65-4.71-5.44-0.58-9.14C61.48,186.16,61.64,188.78,61.85,192.03z M53.79,183.38c0.73,0.08,1.47,0.16,2.2,0.24
			c-0.12,2.75-0.24,5.49-0.36,8.24c-0.88-0.11-1.75-0.22-2.63-0.32C53.27,188.82,53.53,186.1,53.79,183.38z M50.36,164.9
			c0.02-0.86,1.3-1.7,2-2.55c0.6,2.31,1.19,4.62,1.86,7.21C48.93,170.16,50.31,166.87,50.36,164.9z M45.81,170.32
			c-0.52-0.32-1.05-0.64-1.57-0.96c-0.2-2.01-0.41-4.01-0.61-6.02c-0.59-0.05-1.18-0.1-1.77-0.16c-0.32,2.08-0.63,4.15-0.93,6.09
			c-7.9,0-15.93,0-24.36,0c0-2.82,0-5.01,0-7.75c9.51,0,18.95-0.14,28.37,0.21c0.97,0.04,2.28,2.96,2.58,4.7
			C47.73,167.59,46.44,169.02,45.81,170.32z M46.39,173.33c0,2.37,0,4.37,0,6.37c-0.56,0.12-1.12,0.24-1.68,0.35
			c-0.6-1.96-1.21-3.92-1.81-5.88c-0.42-0.04-0.85-0.09-1.27-0.13c-0.36,1.71-0.72,3.42-1.08,5.15c-5.17,3.5-3.52-4.29-7.17-4.13
			c0,1.49,0,2.93,0,4.26c-6.69,0-13.21,0-19.64,0c-0.58-4.54,0.85-6.21,5.13-6.07C27.97,173.53,37.08,173.33,46.39,173.33z
			 M7.12,190.79c-4.85-0.21-2.28-4.35-2.95-7.55c15.62,0,30.75,0,46.04,0c0,3.4,0,5.84,0,8.44c-6.29,0.71-2.36-5.59-5.93-7.55
			c-0.34,2.73-0.64,5.11-0.94,7.49c-0.48,0.2-0.95,0.39-1.43,0.59c-0.98-2.3-1.96-4.6-2.94-6.9c-0.32,0.03-0.63,0.05-0.95,0.08
			c0,1.96,0,3.91,0,5.53C27.42,190.92,17.25,191.22,7.12,190.79z M19.58,216.66c0-3.1,0-5.98,0-9.38c5.42,0,10.92,0,16.57,0
			c0.64,3.04,1.13,5.37,1.62,7.71c0.44,0.02,0.89,0.04,1.33,0.06c0.47-2.43,0.94-4.85,1.4-7.28c0.37,0,0.73,0.01,1.1,0.01
			c0.56,2.81,1.12,5.62,1.76,8.87C35.43,216.66,27.75,216.66,19.58,216.66z M44.1,220.69c-0.2,2.58-0.37,4.86-0.54,7.13
			c-0.27,0.04-0.54,0.08-0.81,0.12c-0.39-2.21-0.79-4.42-1.18-6.64c-0.44-0.04-0.88-0.09-1.33-0.13c-0.36,2.27-0.73,4.54-1.09,6.81
			c-0.41,0-0.82,0-1.24,0c-0.32-2.26-0.64-4.52-1.03-7.29C39.46,220.69,41.51,220.69,44.1,220.69z M13.7,220.65
			c4.89,0,9.81,0,14.91,0c0.38,1.73,0.79,3.62,1.2,5.5c0.4,0,0.8-0.01,1.2-0.01c0.41-1.79,0.81-3.58,1.22-5.36
			c0.46-0.12,0.93-0.24,1.39-0.36c0.59,2.27,1.19,4.53,1.97,7.53c-5.8,0-10.99,0.06-16.18-0.02
			C13.99,227.85,13.11,226.72,13.7,220.65z M52.37,239.93c-10.09,0-20.39,0-30.97,0c-0.2-2.65-0.37-5.08-0.61-8.21
			c10.77,0,20.97,0,31.57,0C52.37,234.42,52.37,236.98,52.37,239.93z M45.33,209.56c-0.05-0.79,1.01-1.65,1.57-2.48
			c0.32,0.16,0.65,0.33,0.97,0.49c0,2.89,0,5.79,0,8.68c-0.48,0.1-0.95,0.21-1.43,0.31C46.03,214.23,45.46,211.91,45.33,209.56z
			 M51.8,228.37c0-2.55,0-5.11,0-7.66c0.5-0.04,1.01-0.07,1.51-0.11c0.11,2.52,0.23,5.04,0.34,7.56
			C53.03,228.24,52.42,228.31,51.8,228.37z M52.95,216.75c-0.8-0.65-2.24-1.27-2.27-1.95c-0.09-2.4,0.3-4.81,0.51-7.22
			c0.49-0.19,0.98-0.39,1.47-0.58c0.49,1.11,1.43,2.24,1.38,3.33C53.97,212.48,53.35,214.61,52.95,216.75z M50.03,198.34
			c-0.2,1.62-0.39,3.24-0.62,5.08c-4.45,0-8.97,0.05-13.48-0.02c-3.15-0.05-6.29-0.36-9.44-0.39c-6.15-0.07-6.6-0.56-5.78-7.38
			c13.83,0,27.7,0,41.81,0c0,2.95,0,5.55,0,8.69c-6.6,0.06-2.38-5.95-5.87-8.31c-0.37,2.68-0.68,4.95-1.03,7.53
			C50.06,206.23,53.67,198.84,50.03,198.34z M58.08,228.66c-0.44-0.02-0.87-0.03-1.31-0.05c0-2.69,0-5.37,0-8.06
			c0.44,0.03,0.87,0.06,1.31,0.09C58.08,223.31,58.08,225.98,58.08,228.66z M59.21,216.75c-0.63,0.07-1.26,0.14-1.89,0.21
			c-0.3-2.36-0.82-4.71-0.8-7.07c0.01-0.95,1.19-1.89,1.84-2.83c0.45,0.26,0.89,0.52,1.34,0.77
			C59.54,210.8,59.37,213.78,59.21,216.75z M61.95,228.58c0-2.65,0-5.3,0-7.95c0.47-0.05,0.94-0.09,1.41-0.14
			c0.23,2.63,0.45,5.26,0.68,7.89C63.34,228.45,62.65,228.51,61.95,228.58z M65.11,158.77c-0.45,0-0.89,0-1.34,0
			c0-2.7,0-5.39,0-8.09c0.45,0,0.89,0.01,1.34,0.01C65.11,153.38,65.11,156.07,65.11,158.77z M71.14,146.72
			c-0.42-0.07-0.83-0.15-1.25-0.22c0-2.64,0-5.29,0-7.93c0.42,0.01,0.83,0.01,1.25,0.02C71.14,141.3,71.14,144.01,71.14,146.72z
			 M74.35,134.73c-0.52,0.03-1.05,0.06-1.57,0.09c-0.31-2.26-0.62-4.53-0.93-6.79c-0.41-0.05-0.82-0.09-1.23-0.14
			c-0.4,2.28-0.8,4.56-1.2,6.84c-0.4,0.08-0.79,0.16-1.19,0.25c-0.65-2.2-1.3-4.41-1.96-6.61c-0.41-0.01-0.82-0.02-1.23-0.02
			c-0.24,2.01-0.48,4.03-0.72,6.04c-0.93,0.42-1.67,0.58-2.28,0.55c-2.23-0.11-2.66-2.81-3.78-5c-0.2-0.4-0.43-0.78-0.69-1.12
			c-0.55,2.23-0.93,3.73-1.32,5.3c-6.15,0-12.21,0-18.77,0c-0.25-2.57-0.46-4.79-0.71-7.31c12.74,0,25.11,0,37.56,0
			C74.35,129.76,74.35,132.24,74.35,134.73z M109.23,247.55c-7.47,0-15.1,0-22.97,0c-0.15-2.67-0.55-5.14-0.29-7.53
			c0.1-0.95,1.55-2.24,2.59-2.48c1.73-0.4,3.63-0.08,5.45-0.07c5.3,0.02,11.91-2.3,11.4,7.95c0.5-0.29,1-0.58,1.51-0.87
			c0.5-2.12,0.99-4.23,1.49-6.35c0.27,0.01,0.54,0.03,0.81,0.04C109.23,241.2,109.23,244.17,109.23,247.55z M115.63,247.09
			c-0.39,0.29-0.77,0.59-1.16,0.88c-0.74-0.88-2.04-1.72-2.1-2.64c-0.14-2.21,0.31-4.46,0.52-6.69c0.91,0.52,2.53,0.95,2.62,1.59
			C115.83,242.48,115.63,244.8,115.63,247.09z M119.9,247.77c-0.57-1.5-1.61-3-1.58-4.49c0.03-1.62,1.05-3.21,1.63-4.82
			c0.8,1.35,1.59,2.71,2.56,4.36C121.51,244.7,120.71,246.24,119.9,247.77z M126,247.77c-0.4,0.01-0.79,0.02-1.19,0.02
			c0-3.03,0-6.07,0-9.1c0.4-0.01,0.79-0.02,1.19-0.03C126,241.7,126,244.73,126,247.77z M132.57,246.35
			c-0.03,0.53-0.9,1.23-1.53,1.44c-0.41,0.14-1.55-0.44-1.55-0.7c-0.03-3-1.49-6.4,1.5-8.69c0.55,0.09,1.1,0.19,1.65,0.28
			C132.64,241.23,132.73,243.8,132.57,246.35z M137.28,247.52c-0.51,0.02-1.03,0.05-1.54,0.07c-0.13-2.96-0.26-5.93-0.39-8.89
			c0.65-0.01,1.29-0.02,1.94-0.03C137.28,241.62,137.28,244.57,137.28,247.52z M154.02,227.23c-0.02,0-0.04,0-0.06,0
			c-0.65,1.69-1.3,3.38-2.01,5.22c-0.24,0.63-0.49,1.27-0.75,1.94c-13.88,0-28.74,0-44.01,0c-0.37-2.83-0.67-5.16-0.93-7.16
			c16.22,0,31.94,0,47.66,0c0,0,0.02-0.03,0.04-0.05l0.03-0.04c0,0,0,0,0,0l0,0C154,227.17,154.01,227.2,154.02,227.23
			c1.4-0.09,2.8-0.18,4.08-0.26c0.29,0.64,0.58,0.96,0.54,1.22c-0.38,2.22-0.83,4.44-1.26,6.65c-0.9-1.95-1.81-3.9-2.7-5.86
			C154.42,228.41,154.23,227.81,154.02,227.23z M161.39,248.24c-1.82,0.22-3.75,0.45-5.78,0.69c0-3.25,0-6.24,0-9.22
			c0.33-0.02,0.66-0.05,0.98-0.07c0.26,2.47,0.51,4.93,0.77,7.4c0.46,0.09,0.92,0.17,1.38,0.26c0.59-2.67,1.18-5.35,1.77-8.02
			c0.29,0.03,0.59,0.07,0.88,0.1C161.39,242.19,161.39,245.01,161.39,248.24z M159.94,125.78c0-3.77,0-7.46,0-11.99
			C163.57,118.15,163.28,124.78,159.94,125.78z M161.23,143.02c0,2.68,0,5.36,0,8.04c-0.41,0-0.82,0-1.24-0.01c0-2.72,0-5.43,0-8.15
			C160.41,142.94,160.82,142.98,161.23,143.02z M163.33,234.72c-0.48,0.01-0.96,0.01-1.44,0.02c0-2.52,0-5.03,0-7.55
			c0.48-0.02,0.96-0.04,1.44-0.05C163.33,229.67,163.33,232.2,163.33,234.72z M161.63,164.66c0-3.08,0-6.16,0-9.23
			c0.41-0.07,0.82-0.13,1.22-0.2c0.22,3.1,0.45,6.21,0.67,9.31C162.9,164.58,162.27,164.62,161.63,164.66z M163.57,97.44
			c-0.12,0.86-1.06,1.61-1.63,2.41c-0.82-0.81-2.14-1.51-2.36-2.47c-0.39-1.7-0.11-3.55-0.11-5.78c1.5,0,2.61,0,4.17,0
			C163.65,93.64,163.82,95.57,163.57,97.44z M166.2,248.36c-0.43-0.03-0.86-0.07-1.3-0.1c0-2.92,0-5.83,0-8.75
			c0.58,0.03,1.16,0.06,1.74,0.09C166.5,242.52,166.35,245.44,166.2,248.36z M166.16,234.85c0.57-2.9,1.02-5.16,1.59-8.01
			C170.79,231.2,170.3,233.84,166.16,234.85z M169.18,18.6c-0.25,1.89-0.51,3.79-0.76,5.68c-0.25,0-0.49,0.01-0.74,0.01
			c0-2.63,0-5.26,0-8.04c1.44,0,3.03,0,4.76,0c0,2.93,0,5.73,0,8.53c-0.33,0.05-0.66,0.1-0.99,0.15c-0.55-2.08-1.1-4.15-1.65-6.23
			C169.6,18.67,169.39,18.64,169.18,18.6z M171.71,91.48c0.59,0.14,1.18,0.29,1.77,0.43c0,2.48,0,4.96,0,7.44
			c-0.53-0.05-1.06-0.1-1.6-0.15C172.06,96.65,170.44,93.97,171.71,91.48z M181.14,246.83c-2.42,1.43-5.57,1.62-8.79,2.38
			c0-3.47,0-5.76,0-8.91c0.37,2.82,0.63,4.79,0.89,6.76c0.45,0.02,0.91,0.04,1.36,0.06c0.31-2.07,0.62-4.15,1.07-7.14
			c0.57,2.12,0.92,3.41,1.66,6.16c1.09-2.61,1.69-4.03,2.29-5.45c0.42-0.02,0.84-0.05,1.25-0.07
			C181.02,242.79,181.98,246.34,181.14,246.83z M185.37,223.79c-2.57,0-4.99,0-7.78,0c0-2.48,0-4.84,0-7.2
			c0.25-0.01,0.5-0.02,0.75-0.03c0,2.12,0,4.24,0,6.35c0.42,0.1,0.83,0.19,1.25,0.29c0.68-1.65,1.36-3.3,1.72-4.18
			c1.16,0.17,2.42,0.35,4.06,0.59C185.37,220.52,185.37,222.02,185.37,223.79z M179.86,198.75c0.63-1.5,1.3-3.09,1.44-3.44
			c2.67-0.62,4.82-1.11,6.94-1.6C189,199.29,188.8,199.41,179.86,198.75z M183.23,175.74c-0.21-2.06-0.43-4.12-0.73-7.06
			c2.2,0.13,5.27-0.48,5.93,0.51c1.24,1.88,1.1,4.67,1.66,7.81C186.91,176.43,185.17,176.1,183.23,175.74z M197.71,235.57
			c-1.4-0.03-2.75-1.91-5.33-3.94c2.6-2.05,3.98-3.13,5.35-4.21c1.19,1.63,2.93,3.13,3.32,4.93
			C201.23,233.22,198.87,235.6,197.71,235.57z M207.14,187.68c-2.4,0-4.49,0-6.89,0c0-2.32,0-4.37,0-6.44
			C208.07,179.91,208.49,180.28,207.14,187.68z M244.26,222.37c0,1.69,0,3.09,0,4.48c-8.34,1.27-8.34,1.27-7.55-5.35
			C239.16,221.79,241.63,222.07,244.26,222.37z M241.1,200.94c0,1.39,0,2.82,0,4.78c-1.7,0.6-3.56,1.25-5.54,1.95
			C234.75,199.26,235.18,198.77,241.1,200.94z M235.14,183.72c0.56-0.71,3.18-0.73,4.05-0.03c1.12,0.89,1.43,2.82,2.46,5.14
			c-3.32,0-5.09,0-7.64,0C234.37,186.86,234.23,184.88,235.14,183.72z M233.32,217.84c0.42-2.85,0.74-5.05,1.06-7.19
			c5.02-0.57,6.14,2.01,5.79,6.47C238.06,217.34,235.91,217.56,233.32,217.84z M236.67,245.9c-0.56-0.34-1.11-0.68-1.67-1.03
			c0.98-1.51,1.68-3.46,3.06-4.33c0.67-0.42,3.67,1.03,3.81,1.93C242.62,246.99,238.85,245.36,236.67,245.9z M245.18,236.64
			c-1.5-0.23-2.72-2.33-4.06-3.62c0.6-0.76,1.21-1.53,1.81-2.29c2.26,1.11,4.52,2.22,6.78,3.33
			C248.19,235,246.53,236.85,245.18,236.64z"/>
	</g>
</g>
</svg>
