<?xml version="1.0" encoding="utf-8"?>
<!-- Generator: Adobe Illustrator 23.0.1, SVG Export Plug-In . SVG Version: 6.00 Build 0)  -->
<svg version="1.1" id="Layer_1" xmlns="http://www.w3.org/2000/svg" xmlns:xlink="http://www.w3.org/1999/xlink" x="0px" y="0px"
	 viewBox="0 0 389.29 228.08" style="enable-background:new 0 0 389.29 228.08;" xml:space="preserve">
<style type="text/css">
	.st0{fill:#CBA051;}
	.st1{fill:#0A243E;}
	.st2{fill:#FFFFFF;}
	.st3{fill:#CCCCCC;}
	.st4{fill:none;stroke:#000000;stroke-width:3;stroke-miterlimit:10;}
</style>
<g>
	<g>
		<polygon class="st0" points="18.58,38.26 3.85,59.1 3.85,97.59 8.47,134.59 121.52,131.58 119.8,75.26 122.85,51.96 111.92,36.55 
			60.52,39.26 		"/>
		<polygon class="st1" points="8.47,134.59 10.87,155.26 12.52,182.92 12.52,202.96 20.02,216.46 44.59,216.46 85.52,217.59 
			114.99,216.46 118.5,207.51 125.52,198.78 122.85,183.92 121.52,131.58 		"/>
		<path class="st2" d="M8.47,134.59l48.72,9.67l-12.6,6.67l15.93,3.67l18.58-3.71c1.72-0.34,1.86-2.76,0.18-3.29l-9.43-3
			l51.67-13.01v-9.66L7.09,123.56L8.47,134.59z"/>
		<path class="st3" d="M117.2,30.73c-0.13-2.79-1.34-4.45-4.07-5.03c-2.77-0.59-5.57-1.09-8.42-1.64c0.49-0.44,0.99-0.85,1.44-1.3
			c1.64-1.66,2.86-3.54,2.73-5.99c-0.22-4.12-1.94-7.6-4.85-10.45c-2.14-2.1-4.79-3.41-7.54-4.57c-5.02-2.13-9.92-2.57-14.78,0.48
			c-8.67,5.45-17.32,10.91-25.48,17.11c-2.1,1.6-4.12,3.31-6.18,4.96c-0.14,0.11-0.37,0.15-0.56,0.16c-6.33,0.24-12.67,0.46-19,0.73
			c-2.53,0.11-5.11,0.12-7.58,0.59c-6.64,1.26-9.25,6.56-8.63,11.93c0.11,0.92,0.04,1.73-0.22,2.53h44.86l37.38-1.45l19.84-2.85
			C117.05,34.39,117.29,32.63,117.2,30.73z"/>
		<polygon class="st3" points="22.02,223.29 70.02,225.13 107.19,224.21 115.69,219.31 109.35,216.46 52.1,216.46 22.02,216.46 
			20.02,219.31 		"/>
		<g>
			<path d="M104.76,24.06c2.85,0.55,5.65,1.05,8.42,1.64c2.73,0.58,3.95,2.24,4.07,5.03c0.11,2.51-0.33,4.78-2.18,6.64
				c1.75,1.86,3.45,3.64,5.12,5.44c2.7,2.92,4.75,6.26,6.17,9.97c0.29,0.76,0.49,1.66,0.39,2.45c-0.84,6.53-0.46,13.09-0.66,19.63
				c-0.22,7.35-0.48,14.7-0.43,22.05c0.06,8.81,0.42,17.63,0.69,26.44c0.28,9.27,0.27,18.53-0.27,27.79
				c-0.56,9.58-0.6,19.16,0.19,28.73c0.21,2.6,0.43,5.21,0.83,7.79c0.35,2.19,1.05,4.32,1.46,6.51c0.91,4.97-0.17,9.36-3.78,13.08
				c-2.57,2.65-4.45,5.77-5.7,9.27c-0.34,0.95-0.65,1.82-0.55,2.88c0.13,1.33-0.65,2.38-1.53,3.31c-2.14,2.25-4.99,3.08-7.86,3.53
				c-3.18,0.5-6.44,0.79-9.66,0.77c-3.99-0.02-7.92,0.38-11.87,0.82c-1.52,0.17-3.06,0.27-4.59,0.26
				c-12.55-0.09-25.09-0.16-37.64-0.37c-4.11-0.07-8.2-0.54-12.31-0.79c-2.63-0.16-5.28-0.2-7.91-0.38
				c-1.07-0.07-2.16-0.25-3.17-0.58c-2.47-0.8-3.49-2.9-4.33-5.12c-0.1-0.26-0.12-0.56-0.27-0.77c-2.67-3.81-5.4-7.59-8.04-11.43
				c-1.74-2.53-2.29-5.45-2.19-8.46c0.1-3.06,0.43-6.12,0.5-9.18c0.14-6.02,0.32-12.05,0.21-18.07c-0.14-7.52-0.48-15.04-0.9-22.56
				c-0.29-5.21-0.83-10.42-1.33-15.62c-0.62-6.44-1.33-12.88-1.99-19.32c-0.65-6.37-1.3-12.75-1.94-19.13
				c-0.97-9.74-2.04-19.48-1.65-29.3c0.12-3.1,0.08-6.2,0.24-9.29c0.09-1.78,1.06-3.13,2.41-4.34c2.02-1.8,3.91-3.76,5.78-5.72
				c1.55-1.64,3.01-3.37,4.45-5.1c0.41-0.5,0.66-1.14,0.94-1.74c0.45-0.99,0.56-1.96,0.43-3.1c-0.61-5.37,2-10.68,8.63-11.93
				c2.48-0.47,5.05-0.48,7.58-0.59c6.33-0.28,12.67-0.49,19-0.73c0.19-0.01,0.42-0.05,0.56-0.16c2.06-1.65,4.08-3.36,6.18-4.96
				c8.15-6.21,16.81-11.67,25.48-17.11c4.85-3.05,9.76-2.61,14.78-0.48c2.74,1.16,5.39,2.48,7.54,4.57
				c2.92,2.85,4.63,6.33,4.85,10.45c0.13,2.45-1.09,4.33-2.73,5.99C105.75,23.21,105.24,23.62,104.76,24.06z M41.52,58.53
				c0.02,0.3,0.02,0.47,0.04,0.63c0.4,3.42,0.92,6.84,1.19,10.27c0.63,8.13,1.11,16.27,1.72,24.39c0.48,6.43,1.17,12.84,1.59,19.27
				c0.7,10.74,1.31,21.49,1.85,32.25c0.3,5.99,0.31,11.99,0.62,17.97c0.36,7.1,0.93,14.18,1.36,21.27
				c0.27,4.49,0.42,8.98,0.66,13.47c0.05,0.99,0.25,1.97,0.41,3.15c1.52,0,2.9,0.02,4.29,0c4.11-0.06,8.22-0.16,12.34-0.2
				c0.32,0,0.65,0.3,0.97,0.46c-0.31,0.14-0.61,0.4-0.93,0.41c-3.62,0.21-7.24,0.39-10.86,0.57c-1.72,0.09-3.44,0.17-5.24,0.26
				c0.05,0.31,0.05,0.48,0.11,0.64c1.22,3.51,2.44,7.03,3.71,10.52c0.09,0.26,0.6,0.5,0.92,0.51c2.23,0.08,4.46,0.12,6.69,0.12
				c6.52-0.01,13.03-0.05,19.55-0.07c0.96,0,1.92,0,2.89,0c-0.26-2.05,0.38-2.72,2.36-2.81c3.76-0.17,7.52-0.41,11.27-0.65
				c0.48-0.03,0.95-0.17,1.43-0.26c-0.21-0.28-0.39-0.34-0.58-0.35c-4.46-0.16-8.92-0.29-13.37-0.46c-2.08-0.08-4.16-0.21-6.24-0.36
				c-0.87-0.06-1.24-0.62-1.07-1.45c0.21-1.02,1.1-0.81,1.78-0.82c2.16-0.03,4.32,0.07,6.47,0c3.59-0.11,7.17-0.29,10.75-0.47
				c0.84-0.04,1.66-0.23,2.49-0.36c-2.04-0.17-4.04-0.1-6.04-0.18c-4.94-0.21-9.88-0.49-14.82-0.73c-0.59-0.03-1.2,0.09-1.77-0.02
				c-0.32-0.06-0.56-0.48-0.84-0.73c0.27-0.29,0.52-0.61,0.84-0.85c0.13-0.1,0.41-0.03,0.61-0.03c4.98-0.01,9.97,0.03,14.95-0.04
				c2.42-0.03,4.83-0.26,7.33-0.41c0-0.78,0-1.63,0-2.56c-3.61-0.12-7.19-0.28-10.77-0.34c-3.56-0.06-7.13-0.01-10.7-0.01
				c0-0.1,0-0.19,0-0.29c6.74-0.26,13.47-0.52,20.21-0.78c-1.42-0.3-2.84-0.39-4.26-0.46c-2.33-0.12-4.67-0.11-6.99-0.37
				c-1.76-0.19-2.6-1.46-2.39-3.07c0.19-1.47,1.41-2.36,3.08-2.32c1.42,0.03,2.86,0.1,4.27-0.03c2.38-0.21,4.74-0.57,7.21-0.88
				c-0.11-0.76-0.2-1.35-0.25-1.64c-2.71,0-5.22-0.02-7.72,0.01c-1.29,0.02-2.57,0.17-3.86,0.2c-1.06,0.03-1.61-0.46-1.65-1.33
				c-0.04-0.88,0.44-1.35,1.52-1.48c0.28-0.03,0.56-0.02,0.83-0.05c2.78-0.25,5.55-0.47,8.32-0.78c2.05-0.23,2.04-0.29,1.67-2.4
				c-0.01-0.06-0.06-0.12-0.12-0.22c-0.17-0.02-0.37-0.07-0.58-0.07c-3.52-0.05-7.03-0.1-10.55-0.14c-1.48-0.02-2.32-0.72-2.31-1.97
				c0-1.12,0.93-1.85,2.3-1.91c2.23-0.1,4.45-0.23,6.68-0.36c1.2-0.07,2.4-0.15,3.61-0.22c-3.28-0.15-6.55-0.14-9.83-0.16
				c-1.49-0.01-2.41-0.84-2.38-2.06c0.03-1.19,0.92-1.88,2.4-1.88c1.95,0,3.91,0.07,5.85-0.03c1.44-0.07,2.88-0.36,4.38-0.55
				c-0.04-0.74-0.07-1.31-0.1-1.85c-1.4,0-2.68,0-3.97,0c-2.65-0.01-5.3,0.05-7.94-0.08c-1.5-0.07-2.25-1.65-1.62-3.02
				c0.49-1.07,1.4-1.17,2.43-1.2c3.41-0.09,6.82-0.24,10.23-0.41c0.25-0.01,0.66-0.31,0.68-0.51c0.08-0.7,0.03-1.42,0.03-1.98
				c-3.89,0-7.57,0.02-11.26-0.02c-0.64-0.01-1.31-0.21-1.91-0.44c-1.15-0.45-1.72-1.62-1.47-2.8c0.26-1.22,1.18-2,2.47-1.97
				c2.09,0.06,4.17,0.28,6.26,0.23c1.89-0.05,3.76-0.37,5.6-0.56c0-1.03,0-1.82,0-2.57c-2.16,0-4.24,0.06-6.32-0.02
				c-1.94-0.07-3.89-0.2-5.82-0.45c-1.03-0.13-1.48-0.9-1.41-1.88c0.07-0.92,0.71-1.54,1.73-1.63c0.38-0.03,0.77-0.02,1.15,0.04
				c3.04,0.43,6.05,0.25,9.05-0.32c1.46-0.28,1.54-0.47,1.08-1.99c-0.89,0.15-1.77,0.36-2.67,0.45c-2.94,0.27-5.89,0.58-8.84,0.72
				c-1.48,0.07-2.65-1.04-2.91-2.36c-0.28-1.39,0.33-2.84,1.61-3.43c0.64-0.29,1.4-0.33,2.12-0.43c3.16-0.45,6.34-0.82,9.49-1.36
				c1.41-0.24,1.42-0.46,1.09-2c-0.17,0.02-0.33,0.04-0.5,0.07c-3.81,0.61-7.62,1.27-11.45,1.81c-1.68,0.23-2.78-0.69-3.01-2.21
				c-0.24-1.62,0.61-2.86,2.25-3.23c1.09-0.24,2.19-0.42,3.28-0.63c2.9-0.56,5.81-1.1,8.7-1.69c0.34-0.07,0.89-0.32,0.9-0.53
				c0.09-1.08,0.04-2.17,0.04-3.01c-4.24,0.65-8.28,1.32-12.34,1.86c-1.56,0.21-2.53-0.57-2.61-1.74c-0.08-1.18,0.8-2.04,2.27-2.24
				c1.04-0.14,2.09-0.19,3.1-0.42c2.92-0.65,5.82-1.35,8.72-2.09c0.35-0.09,0.81-0.49,0.88-0.82c0.14-0.66,0.04-1.37,0.04-2.08
				c-0.92,0.14-1.77,0.29-2.63,0.39c-3.45,0.41-6.91,0.8-10.36,1.22c-0.9,0.11-1.57-0.23-2.09-0.91c-1.09-1.43-0.46-3.26,1.41-3.73
				c1.71-0.44,3.48-0.66,5.23-0.97c2.6-0.47,5.19-0.94,7.8-1.38c0.9-0.15,1.03-0.66,0.79-1.45c-2.77,0.54-5.52,1.09-8.28,1.63
				c-1.33,0.26-2.65,0.64-3.99,0.76c-1.55,0.14-2.71-1.07-2.72-2.64c-0.02-1.58,0.9-2.48,2.92-2.98c3.88-0.96,7.76-1.94,11.63-2.95
				c0.3-0.08,0.72-0.4,0.75-0.65c0.13-0.95,0.13-1.93,0.19-2.97c-1,0.24-1.86,0.49-2.74,0.64c-3.74,0.65-7.48,1.28-11.22,1.88
				c-0.5,0.08-1.06,0.07-1.53-0.09c-0.89-0.29-1.31-1.03-1.34-1.93c-0.04-1.02,0.49-1.77,1.46-2.06c1.1-0.32,2.23-0.52,3.36-0.73
				c3.99-0.74,7.98-1.46,12.09-2.21c0-0.76,0-1.64,0-2.56c-0.3,0.02-0.55,0.02-0.78,0.05c-2.48,0.37-4.95,0.76-7.43,1.1
				c-2.14,0.3-4.28,0.62-6.43,0.77c-0.67,0.05-1.58-0.25-2.02-0.72c-0.36-0.39-0.45-1.44-0.17-1.89c0.34-0.55,1.16-0.99,1.83-1.11
				c3.15-0.57,6.32-0.99,9.48-1.52c1.87-0.31,3.73-0.73,5.61-1.1c0-1.73,0-3.32,0-4.87c-2.87,0.28-5.7,0.59-8.53,0.82
				c-2.32,0.19-4.65,0.34-6.98,0.38c-1.19,0.02-1.67-0.56-1.66-1.55c0.01-1,0.63-1.54,1.78-1.63c1.59-0.13,3.2-0.18,4.78-0.44
				c3.32-0.55,6.63-1.22,9.94-1.85c0.75-0.14,0.96-0.56,0.6-1.32c-1.52,0.26-3.02,0.55-4.53,0.76c-3.21,0.44-6.43,0.83-9.68,0.36
				c-1.43-0.21-2.14-0.96-2.03-2.04c0.12-1.14,0.96-1.57,2.49-1.55c1.83,0.02,3.7,0.07,5.5-0.22c2.8-0.46,5.55-1.2,8.27-1.8
				c0-1.31,0-2.44,0-3.63c-2.38,0.19-4.66,0.37-6.95,0.56c-2.99,0.25-5.97,0.54-8.96,0.73c-1.18,0.08-1.9-0.67-1.95-1.73
				c-0.05-1,0.68-1.8,1.78-1.95c4.72-0.65,9.45-1.29,14.17-1.94c2.09-0.29,2.09-0.3,1.95-2.42c0-0.06-0.07-0.11-0.16-0.23
				c-0.4,0.09-0.83,0.25-1.27,0.29c-5.06,0.45-10.11,0.9-15.18,1.29c-1.08,0.08-1.77-0.67-1.85-1.72c-0.08-1.01,0.61-1.9,1.69-2.04
				c1.38-0.18,2.77-0.32,4.16-0.42c4.28-0.29,8.5-0.86,12.51-2.48c0-0.41,0-0.85,0-1.53c-4.68,0-9.28-0.01-13.87,0.01
				c-0.73,0-1.46,0.17-2.19,0.13c-0.27-0.02-0.51-0.42-0.77-0.65c0.23-0.24,0.45-0.66,0.71-0.7c2.86-0.39,5.74-0.7,8.6-1.08
				c2.31-0.31,4.61-0.68,6.91-1.06c0.23-0.04,0.4-0.36,0.6-0.55c-0.23-0.09-0.46-0.26-0.69-0.25c-4.18,0.08-8.36,0.19-12.53,0.28
				c-0.99,0.02-1.98-0.07-2.64-0.96c-1.24-1.66-0.31-3.94,1.8-4.14c3.12-0.3,6.26-0.4,9.38-0.63c1.54-0.12,3.07-0.36,4.51-0.53
				c0.36-1.27-0.09-1.6-1.13-1.65c-3.9-0.21-7.78-0.61-11.68-0.71c-2.67-0.07-5.35,0.26-8.03,0.36c-0.33,0.01-0.67-0.27-1.01-0.41
				c0.31-0.21,0.61-0.56,0.94-0.61c5.65-0.7,11.31-0.92,17-0.77c1.27,0.03,2.54,0,3.99,0c-0.35-1.64-0.66-3.08-0.97-4.51
				c-0.65,0.15-1.11,0.32-1.59,0.35c-3.58,0.18-7.16,0.41-10.75,0.45c-1.73,0.02-3.47-0.28-5.19-0.56c-1.05-0.17-1.5-1.4-0.78-2.05
				c0.37-0.33,1.06-0.45,1.61-0.44c1.74,0.03,3.49,0.34,5.21,0.22c3.42-0.24,6.83-0.7,10.41-1.09c-0.41-1.16-0.69-2.05-1.06-2.9
				c-0.08-0.19-0.48-0.36-0.73-0.34c-1.98,0.1-3.96,0.29-5.95,0.37c-10.65,0.46-21.3,0.93-31.95,1.32
				c-4.28,0.16-8.57,0.12-12.86,0.13c-0.85,0-1.2,0.22-1.28,1.16c-0.23,2.57-0.61,5.12-0.94,7.67c-0.17,1.33-0.34,2.66-0.54,4.23
				c9.83-0.79,19.53-0.84,29.14-2.46c-0.9,0.5-1.83,0.93-2.81,1.07c-4.76,0.67-9.53,1.24-14.29,1.89
				C49.4,57.38,45.51,57.96,41.52,58.53z M32.6,59.98c-0.31,0.03-0.58,0.06-0.85,0.09c-3.63,0.4-7.26,0.86-10.9,1.16
				c-2.12,0.18-2.2,0.06-2.11,2.2c0.22,5.64,0.52,11.27,0.75,16.9c0.17,4.14,0.28,8.28,0.45,12.42c0.45,10.38,1.47,20.71,2.69,31.02
				c1,8.54,1.89,17.09,2.74,25.64c0.5,4.98,0.92,9.98,1.23,14.98c0.51,8.29,0.46,16.59-0.32,24.86c-0.37,3.92-0.36,7.78,0.92,11.57
				c0.24,0.7,0.48,1.03,1.27,1c2.68-0.11,5.37-0.12,8.05-0.23c1.45-0.06,2.89-0.24,4.13-0.35c-0.12-3.76-0.41-7.38-0.32-10.99
				c0.21-8.56-0.48-17.06-1.24-25.57c-0.48-5.44-1.17-10.86-1.74-16.3c-0.61-5.79-1.27-11.57-1.75-17.36
				c-0.56-6.8-1.07-13.62-1.38-20.44c-0.33-7.38-0.41-14.77-0.58-22.16c-0.17-7.14-0.28-14.28-0.5-21.42
				C33.1,64.68,32.8,62.37,32.6,59.98z M8.47,61.41c0.12,2.42,0.33,4.61,0.3,6.8c-0.11,9.09,1,18.08,1.93,27.09
				c0.48,4.64,1.03,9.28,1.49,13.92c0.68,6.79,1.35,13.59,1.96,20.38c0.76,8.6,1.57,17.21,2.14,25.82
				c0.39,5.84,0.37,11.7,0.62,17.55c0.31,7.15,0.09,14.28-0.43,21.42c-0.16,2.25-0.24,4.51-0.37,6.87c2.58,0.17,4.98,0.32,7.41,0.48
				c-0.32-1.82-0.71-3.41-0.87-5.03c-0.17-1.66-0.22-3.34-0.14-5c0.16-3.27,0.59-6.53,0.65-9.8c0.12-6.2,0.21-12.41,0.02-18.6
				c-0.16-5.11-0.66-10.21-1.14-15.31c-0.58-6.21-1.25-12.41-1.95-18.6c-0.98-8.61-2.26-17.2-2.96-25.84
				c-0.73-8.99-0.95-18.02-1.35-27.03c-0.19-4.28-0.27-8.57-0.4-12.85c-0.02-0.78,0-1.57,0-2.28C13.09,61.41,10.84,61.41,8.47,61.41
				z M119.8,197.24c-0.08-0.88-0.06-1.59-0.21-2.26c-0.4-1.8-1.06-3.56-1.28-5.37c-0.56-4.74-1.1-9.49-1.33-14.25
				c-0.26-5.46-0.3-10.94-0.22-16.41c0.14-9.44,0.66-18.88,0.64-28.33c-0.02-10.87-0.72-21.75-0.62-32.62
				c0.12-13.65,0.2-27.33,1.46-40.95c0.03-0.31-0.3-0.92-0.48-0.92c-1.78-0.07-3.57-0.04-5.38-0.04c-0.04,0.58-0.08,1-0.09,1.41
				c-0.19,7.97-0.34,15.95-0.58,23.92c-0.2,6.69-0.59,13.37-0.73,20.06c-0.13,6.76,0,13.52-0.07,20.29
				c-0.06,5.96-0.23,11.91-0.39,17.87c-0.07,2.64-0.37,5.28-0.35,7.92c0.02,3.69,0.23,7.38,0.35,11.07
				c0.3,9.02,0.48,18.04,1.99,26.98c0.65,3.84,0.9,7.68-0.68,11.41c-0.2,0.48-0.2,1.04-0.32,1.74
				C114.38,198.25,117.03,197.76,119.8,197.24z M108.81,55.98c-0.23,0-0.75-0.16-1.08,0.03c-1,0.57-2,0.47-3.05,0.32
				c-0.74-0.11-1.49-0.18-2.13-0.25c0,8.78,0,17.48,0,26.15c1.8,0.26,2.62,0.95,2.76,2.18c0.17,1.48-0.18,1.9-2.11,2.63
				c-0.2,0.08-0.43,0.44-0.43,0.67c-0.02,3.31-0.02,6.62,0.01,9.93c0,0.35,0.18,0.72,0.36,1.03c0.55,0.92,0.63,1.81,0.05,2.75
				c-0.2,0.33-0.36,0.74-0.37,1.12c-0.09,3.48-0.17,6.97-0.2,10.45c0,0.63,0.29,1.26,0.36,1.9c0.08,0.71,0.31,1.55,0.02,2.12
				c-0.64,1.26-0.6,2.55-0.61,3.86c-0.05,4.98-0.08,9.96-0.09,14.95c0,0.3,0.21,0.76,0.46,0.88c2.12,1.07,2.56,4.25-0.02,5.51
				c-0.23,0.11-0.41,0.54-0.41,0.82c0,0.21,0.3,0.53,0.53,0.6c1.37,0.41,2.24,1.24,2.42,2.69c0.19,1.59-0.55,2.69-1.9,3.4
				c-0.64,0.34-1.23,0.6-0.98,1.52c0.18,0.66,0.02,1.53,0.39,1.99c0.97,1.16,1.01,2.18,0.17,3.39c-0.49,0.71,0.04,3.16,0.71,3.69
				c1.42,1.13,1.47,3.03,0.13,4.24c-0.24,0.21-0.53,0.52-0.55,0.8c-0.07,0.93-0.03,1.86-0.03,2.83c1.51,0.19,2.57,0.78,2.7,2.29
				c0.15,1.73-1.16,2.19-2.74,2.68c0.27,0.89,0.59,1.73,0.77,2.6c0.14,0.68,0.39,1.57,0.1,2.06c-0.76,1.25-0.54,2.33-0.07,3.55
				c0.19,0.5,0.09,1.13,0.06,1.7c-0.03,0.54-0.24,1.09-0.2,1.62c0.15,2.19,0.39,4.37,0.54,6.56c0.04,0.63,0.29,0.87,0.87,1.07
				c1.62,0.55,2.61,1.92,2.39,3.62c-0.14,1.1-0.73,2.14-1.12,3.21c0.16,0,0.53-0.03,0.89,0.01c0.85,0.08,1.21-0.27,1.36-1.15
				c0.19-1.16,0.69-2.27,0.88-3.43c0.24-1.5,0.49-3.04,0.4-4.54c-0.11-1.97-0.61-3.92-0.83-5.89c-0.63-5.71-1.33-11.41-1.76-17.14
				c-0.4-5.28-0.51-10.57-0.68-15.86c-0.09-2.78-0.25-5.58-0.02-8.34c0.59-7.06,0.63-14.13,0.52-21.2
				c-0.15-9.17-0.05-18.33,0.47-27.49c0.31-5.46,0.51-10.92,0.71-16.39c0.16-4.35,0.27-8.7,0.35-13.06
				C108.85,61.77,108.81,58.92,108.81,55.98z M38.48,59.1c-0.46,0.02-0.67,0.02-0.87,0.04c-1.66,0.13-1.65,0.13-1.53,1.76
				c0.25,3.36,0.61,6.72,0.72,10.09c0.38,11.88,0.65,23.76,0.99,35.64c0.1,3.66,0.17,7.32,0.46,10.97c0.67,8.4,1.44,16.8,2.21,25.19
				c0.62,6.73,1.38,13.44,1.96,20.18c0.48,5.58,0.94,11.18,1.15,16.77c0.19,5.05-0.01,10.11,0.06,15.16
				c0.03,2.03,0.32,4.06,0.49,6.05c1.39,0,2.56,0,3.73,0c-0.31-2.99-0.66-5.89-0.89-8.81c-0.3-3.93-0.48-7.86-0.74-11.79
				c-0.37-5.63-0.86-11.25-1.11-16.89c-0.44-9.96-0.65-19.92-1.1-29.88c-0.34-7.34-0.87-14.68-1.4-22.01
				c-0.52-7.16-1.19-14.3-1.74-21.46c-0.45-5.84-0.81-11.68-1.25-17.51C39.28,68.13,38.87,63.66,38.48,59.1z M48.74,36.36
				c0-0.07,0-0.14,0-0.21c3.45,0,6.9,0.07,10.35-0.02c5.81-0.14,11.62-0.32,17.43-0.58c4.91-0.22,9.8-0.65,14.71-0.83
				c4.84-0.18,9.68-0.14,14.53-0.25c1.32-0.03,2.65-0.16,3.94-0.41c1.52-0.29,2.33-1.42,2.22-2.94c-0.02-0.28-0.34-0.71-0.59-0.76
				c-4.76-0.99-9.55-1.4-14.43-1.07c-10.07,0.66-20.16,1.22-30.24,1.82c-5.67,0.34-11.33,0.66-17,1
				c-6.41,0.39-12.81,0.48-19.21-0.07c-2.42-0.21-4.86-0.48-7.26,0.27c-1.75,0.55-2.42,1.49-2.41,3.31c0,0.8,0.37,1.15,1.12,1.19
				c0.9,0.05,1.81,0.14,2.71,0.12C32.66,36.74,40.7,36.55,48.74,36.36z M62.15,23.62c1.66,0,3.01,0.05,4.36-0.03
				c0.5-0.03,1.07-0.25,1.47-0.57c1.76-1.4,3.6-2.66,5.86-3.06c2.4-0.43,4.73-0.06,6.24,1.95c0.75,0.99,1.38,1.42,2.54,1.39
				c1.25-0.04,2.52,0.16,3.75,0.01c1.11-0.13,2.27-0.41,3.24-0.95c2.22-1.23,4.39-2.56,6.46-4.03c2.1-1.49,3.42-3.54,3.43-6.25
				c0-0.76-0.24-1.34-0.98-1.68c-1.6-0.74-3.15-1.63-4.8-2.26c-3.34-1.26-6.61-1.43-9.7,0.89c-2.25,1.69-4.7,3.11-6.95,4.81
				c-3.91,2.96-7.8,5.94-12.18,8.21C64.01,22.51,63.19,23.02,62.15,23.62z M23.89,220.48c0.03,0.1,0.06,0.21,0.09,0.31
				c0.33,0.04,0.65,0.1,0.98,0.11c4.17,0.14,8.34,0.3,12.52,0.42c9.92,0.28,19.85,0.72,29.77,0.74c10.34,0.02,20.69-0.33,31.03-0.61
				c3.26-0.09,6.52-0.44,9.77-0.76c0.97-0.1,1.92-0.49,2.88-0.74c-0.02-0.18-0.05-0.35-0.07-0.53c-2.63-0.03-5.27-0.19-7.89-0.06
				c-2.5,0.12-4.98,0.73-7.47,0.8c-7.94,0.22-15.88,0.45-23.82,0.38c-7.28-0.06-14.55-0.6-21.83-0.72
				c-7.38-0.12-14.75,0.03-22.13,0.07c-0.87,0-1.75,0.03-2.61,0.13C24.68,220.07,24.29,220.32,23.89,220.48z M36.94,43.65
				c-2.57,0-4.97-0.02-7.36,0.03c-0.24,0-0.54,0.36-0.7,0.62c-1.72,2.73-3.39,5.5-5.14,8.22c-0.89,1.38-1.92,2.67-3.1,4.31
				c4.13-0.12,7.94-0.22,11.76-0.36c0.19-0.01,0.47-0.34,0.54-0.58c0.72-2.21,1.37-4.44,2.09-6.64
				C35.63,47.38,36.3,45.52,36.94,43.65z M41.38,203.77c-4.25,0.53-8.34,1.04-12.49,1.56c0.02,0.15-0.01,0.34,0.05,0.48
				c1,2.34,1.98,4.68,3.04,6.98c0.13,0.29,0.71,0.5,1.09,0.51c2.23,0.11,4.46,0.13,6.68,0.22c1.27,0.05,2.53,0.17,3.95,0.27
				C42.91,210.34,42.15,207.06,41.38,203.77z M26.28,44.03c-2.64-0.15-5.17-0.29-7.74-0.44c-1.15,4.93-4.38,8.71-7.67,12.58
				c2.03,0.1,3.8,0.21,5.57,0.26c0.29,0.01,0.68-0.17,0.85-0.4c1.92-2.51,3.81-5.04,5.71-7.58C24.1,46.99,25.18,45.52,26.28,44.03z
				 M118.5,200.69c-2.69,0.16-5.06,0.31-7.36,0.45c-0.94,4.29-1.88,8.55-2.82,12.85c0.69,0.09,1.57,0.21,2.59,0.35
				C112.5,209.37,114.83,204.83,118.5,200.69z M98.34,41.06c1.26,3.18,2.43,6.14,3.57,9.04c1.12,0.15,2.25,0.25,3.37,0.47
				c1.08,0.21,2.13,0.55,3.12,0.81c-0.6-2.03-4.27-8.62-5.77-10.25c-0.17-0.18-0.45-0.39-0.67-0.38
				C100.78,40.82,99.62,40.95,98.34,41.06z M117.22,51.26c-0.3-0.52-0.49-0.93-0.75-1.29c-1.87-2.64-3.77-5.25-5.63-7.9
				c-1.49-2.13-2.37-2.07-5.03-1.45c2.52,3.54,4.76,7.2,6.19,11.33C113.73,51.73,115.4,51.51,117.22,51.26z M52.1,214.31
				c-1.21-3.7-2.38-7.32-3.57-10.92c-0.06-0.18-0.33-0.43-0.49-0.42c-1.09,0.05-2.17,0.16-3.45,0.27c1.17,3.79,2.28,7.38,3.41,11.07
				C49.24,214.31,50.52,214.31,52.1,214.31z M23.72,213.88c1.57-0.19,3.14-0.38,4.74-0.57c-1.12-2.48-2.19-4.85-3.28-7.22
				c-0.1-0.21-0.38-0.48-0.57-0.47c-1.99,0.05-3.98,0.16-5.98,0.25C20.36,208.59,22.03,211.22,23.72,213.88z M108.15,201.04
				c-1.36,0-2.48,0-3.56,0c-0.34,3.2-0.66,6.29-0.99,9.46c0.72-0.04,1.29,0,1.82-0.11c0.27-0.06,0.63-0.33,0.69-0.58
				C106.81,206.94,107.46,204.06,108.15,201.04z M38.86,43.5c-0.97,4.3-1.92,8.54-2.9,12.88c0.85,0,1.5,0,2.13,0
				c0.77-4.31,1.53-8.56,2.3-12.88C39.74,43.5,39.3,43.5,38.86,43.5z M93.45,23.35c0.97,0.08,1.94,0.18,2.91,0.22
				c0.29,0.01,0.64-0.06,0.87-0.23c2.03-1.51,3.75-3.28,4.83-5.64c0.63-1.38,0.26-2.51-0.52-3.75
				C100.73,18.75,96.89,20.83,93.45,23.35z M77.14,23.29c-1.7-1.34-4.06-1.21-5.6,0C73.36,23.29,75.25,23.29,77.14,23.29z"/>
			<path d="M86.15,21.35c-2.81-0.18-4.96-1.51-6.69-3.52c-0.87-1-0.78-2.43,0.25-3.3c2.06-1.74,4.12-3.54,6.42-4.95
				c2.11-1.29,7.55-1.12,9.41,1.82c0.94,1.48,1.18,2.98,0.07,4.33c-2.13,2.62-4.75,4.57-8.08,5.42
				C87.06,21.27,86.57,21.29,86.15,21.35z M81.54,16.39c0.78,0.58,1.29,0.98,1.82,1.35c2.03,1.4,3.92,1.44,5.86-0.07
				c1.25-0.98,2.35-2.15,3.5-3.25c0.56-0.54,0.48-1.06-0.03-1.62c-1.04-1.15-3.8-1.68-5.24-0.74
				C85.48,13.34,83.65,14.83,81.54,16.39z"/>
		</g>
		<path class="st4" d="M12.19,134.81c3.31,3.79,7.79,4.22,20,5.44c17.97,1.81,23.8,2.44,23.93,3.79c0.2,2.03-12.67,3.78-12.6,6.43
			c0.07,2.41,8.91,4.78,17,4.78c10.33,0,20.34-3.87,20.11-6.11c-0.23-2.22-10.37-2.03-10.44-3.78c-0.04-1.01,3.29-2.02,24.22-6.33
			c7.96-1.64,15.88-3.23,26.11-7.11c0.26-0.1,1.31-0.06,2-0.78c1.48-1.54,0.72-5.42-1.44-7.56c0,0-1.1-1.08-2.56-1.56
			c-10.26-3.34-99.63,4.24-107.67,2c-0.28-0.08-1.37-0.42-2,0.11C7.3,125.45,9.21,131.41,12.19,134.81z"/>
	</g>
	<g>
		<polygon class="st0" points="279.01,38.21 264.28,59.05 264.28,97.55 268.9,134.55 381.95,131.54 380.23,75.21 383.28,51.92 
			372.35,36.51 320.95,39.21 		"/>
		<polygon class="st1" points="268.9,134.55 271.3,155.21 272.95,182.88 272.95,202.92 280.45,216.42 305.02,216.42 345.95,217.55 
			375.42,216.42 378.94,207.47 385.95,198.74 383.28,183.88 381.95,131.54 		"/>
		<path class="st2" d="M268.9,134.55l48.72,9.67l-12.6,6.67l15.93,3.67l18.58-3.71c1.72-0.34,1.86-2.76,0.18-3.29l-9.43-3
			l51.67-13.01v-9.66l-114.43,1.64L268.9,134.55z"/>
		<path class="st3" d="M377.64,30.69c-0.13-2.79-1.34-4.45-4.07-5.03c-2.77-0.59-5.57-1.09-8.42-1.64c0.49-0.44,0.99-0.85,1.44-1.3
			c1.64-1.66,2.86-3.54,2.73-5.99c-0.22-4.12-1.94-7.6-4.85-10.45c-2.14-2.1-4.79-3.41-7.54-4.57c-5.02-2.13-9.92-2.57-14.78,0.48
			c-8.67,5.45-17.32,10.91-25.48,17.11c-2.1,1.6-4.12,3.31-6.18,4.96c-0.14,0.11-0.37,0.15-0.56,0.16c-6.33,0.24-12.67,0.46-19,0.73
			c-2.53,0.11-5.11,0.12-7.58,0.59c-6.64,1.26-9.25,6.56-8.63,11.93c0.11,0.92,0.04,1.73-0.22,2.53h44.86l37.38-1.45l19.84-2.85
			C377.48,34.35,377.72,32.59,377.64,30.69z"/>
		<polygon class="st3" points="282.45,223.25 330.45,225.08 367.62,224.17 376.12,219.27 369.79,216.42 312.53,216.42 
			282.45,216.42 280.45,219.27 		"/>
		<g>
			<path d="M365.19,24.02c2.85,0.55,5.65,1.05,8.42,1.64c2.73,0.58,3.95,2.24,4.07,5.03c0.11,2.51-0.33,4.78-2.18,6.64
				c1.75,1.86,3.45,3.64,5.12,5.44c2.7,2.92,4.75,6.26,6.17,9.97c0.29,0.76,0.49,1.66,0.39,2.45c-0.84,6.53-0.46,13.09-0.66,19.63
				c-0.22,7.35-0.48,14.7-0.43,22.05c0.06,8.81,0.42,17.63,0.69,26.44c0.28,9.27,0.27,18.53-0.27,27.79
				c-0.56,9.58-0.6,19.16,0.19,28.73c0.21,2.6,0.43,5.21,0.83,7.79c0.35,2.19,1.05,4.32,1.46,6.51c0.91,4.97-0.17,9.36-3.78,13.08
				c-2.57,2.65-4.45,5.77-5.7,9.27c-0.34,0.95-0.65,1.82-0.55,2.88c0.13,1.33-0.65,2.38-1.53,3.31c-2.14,2.25-4.99,3.08-7.86,3.53
				c-3.18,0.5-6.44,0.79-9.66,0.77c-3.99-0.02-7.92,0.38-11.87,0.82c-1.52,0.17-3.06,0.27-4.59,0.26
				c-12.55-0.09-25.09-0.16-37.64-0.37c-4.11-0.07-8.2-0.54-12.31-0.79c-2.63-0.16-5.28-0.2-7.91-0.38
				c-1.07-0.07-2.16-0.25-3.17-0.58c-2.47-0.8-3.49-2.9-4.33-5.12c-0.1-0.26-0.12-0.56-0.27-0.77c-2.67-3.81-5.4-7.59-8.04-11.43
				c-1.74-2.53-2.29-5.45-2.19-8.46c0.1-3.06,0.43-6.12,0.5-9.18c0.14-6.02,0.32-12.05,0.21-18.07c-0.14-7.52-0.48-15.04-0.9-22.56
				c-0.29-5.21-0.83-10.42-1.33-15.62c-0.62-6.44-1.33-12.88-1.99-19.32c-0.65-6.37-1.3-12.75-1.94-19.13
				c-0.97-9.74-2.04-19.48-1.65-29.3c0.12-3.1,0.08-6.2,0.24-9.29c0.09-1.78,1.06-3.13,2.41-4.34c2.02-1.8,3.91-3.76,5.78-5.72
				c1.55-1.64,3.01-3.37,4.45-5.1c0.41-0.5,0.66-1.14,0.94-1.74c0.45-0.99,0.56-1.96,0.43-3.1c-0.61-5.37,2-10.68,8.63-11.93
				c2.48-0.47,5.05-0.48,7.58-0.59c6.33-0.28,12.67-0.49,19-0.73c0.19-0.01,0.42-0.05,0.56-0.16c2.06-1.65,4.08-3.36,6.18-4.96
				c8.15-6.21,16.81-11.67,25.48-17.11c4.85-3.05,9.76-2.61,14.78-0.48c2.74,1.16,5.39,2.48,7.54,4.57
				c2.92,2.85,4.63,6.33,4.85,10.45c0.13,2.45-1.09,4.33-2.73,5.99C366.18,23.17,365.67,23.58,365.19,24.02z M301.95,58.49
				c0.02,0.3,0.02,0.47,0.04,0.63c0.4,3.42,0.92,6.84,1.19,10.27c0.63,8.13,1.11,16.27,1.72,24.39c0.48,6.43,1.17,12.84,1.59,19.27
				c0.7,10.74,1.31,21.49,1.85,32.25c0.3,5.99,0.31,11.99,0.62,17.97c0.36,7.1,0.93,14.18,1.36,21.27
				c0.27,4.49,0.42,8.98,0.66,13.47c0.05,0.99,0.25,1.97,0.41,3.15c1.52,0,2.9,0.02,4.29,0c4.11-0.06,8.22-0.16,12.34-0.2
				c0.32,0,0.65,0.3,0.97,0.46c-0.31,0.14-0.61,0.4-0.93,0.41c-3.62,0.21-7.24,0.39-10.86,0.57c-1.72,0.09-3.44,0.17-5.24,0.26
				c0.05,0.31,0.05,0.48,0.11,0.64c1.22,3.51,2.44,7.03,3.71,10.52c0.09,0.26,0.6,0.5,0.92,0.51c2.23,0.08,4.46,0.12,6.69,0.12
				c6.52-0.01,13.03-0.05,19.55-0.07c0.96,0,1.92,0,2.89,0c-0.26-2.05,0.38-2.72,2.36-2.81c3.76-0.17,7.52-0.41,11.27-0.65
				c0.48-0.03,0.95-0.17,1.43-0.26c-0.21-0.28-0.39-0.34-0.58-0.35c-4.46-0.16-8.92-0.29-13.37-0.46c-2.08-0.08-4.16-0.21-6.24-0.36
				c-0.87-0.06-1.24-0.62-1.07-1.45c0.21-1.02,1.1-0.81,1.78-0.82c2.16-0.03,4.32,0.07,6.47,0c3.59-0.11,7.17-0.29,10.75-0.47
				c0.84-0.04,1.66-0.23,2.49-0.36c-2.04-0.17-4.04-0.1-6.04-0.18c-4.94-0.21-9.88-0.49-14.82-0.73c-0.59-0.03-1.2,0.09-1.77-0.02
				c-0.32-0.06-0.56-0.48-0.84-0.73c0.27-0.29,0.52-0.61,0.84-0.85c0.13-0.1,0.41-0.03,0.61-0.03c4.98-0.01,9.97,0.03,14.95-0.04
				c2.42-0.03,4.83-0.26,7.33-0.41c0-0.78,0-1.63,0-2.56c-3.61-0.12-7.19-0.28-10.77-0.34c-3.56-0.06-7.13-0.01-10.7-0.01
				c0-0.1,0-0.19,0-0.29c6.74-0.26,13.47-0.52,20.21-0.78c-1.42-0.3-2.84-0.39-4.26-0.46c-2.33-0.12-4.67-0.11-6.99-0.37
				c-1.76-0.19-2.6-1.46-2.39-3.07c0.19-1.47,1.41-2.36,3.08-2.32c1.42,0.03,2.86,0.1,4.27-0.03c2.38-0.21,4.74-0.57,7.21-0.88
				c-0.11-0.76-0.2-1.35-0.25-1.64c-2.71,0-5.22-0.02-7.72,0.01c-1.29,0.02-2.57,0.17-3.86,0.2c-1.06,0.03-1.61-0.46-1.65-1.33
				c-0.04-0.88,0.44-1.35,1.52-1.48c0.28-0.03,0.56-0.02,0.83-0.05c2.78-0.25,5.55-0.47,8.32-0.78c2.05-0.23,2.04-0.29,1.67-2.4
				c-0.01-0.06-0.06-0.12-0.12-0.22c-0.17-0.02-0.37-0.07-0.58-0.07c-3.52-0.05-7.03-0.1-10.55-0.14c-1.48-0.02-2.32-0.72-2.31-1.97
				c0-1.12,0.93-1.85,2.3-1.91c2.23-0.1,4.45-0.23,6.68-0.36c1.2-0.07,2.4-0.15,3.61-0.22c-3.28-0.15-6.55-0.14-9.83-0.16
				c-1.49-0.01-2.41-0.84-2.38-2.06c0.03-1.19,0.92-1.88,2.4-1.88c1.95,0,3.91,0.07,5.85-0.03c1.44-0.07,2.88-0.36,4.38-0.55
				c-0.04-0.74-0.07-1.31-0.1-1.85c-1.4,0-2.68,0-3.97,0c-2.65-0.01-5.3,0.05-7.94-0.08c-1.5-0.07-2.25-1.65-1.62-3.02
				c0.49-1.07,1.4-1.17,2.43-1.2c3.41-0.09,6.82-0.24,10.23-0.41c0.25-0.01,0.66-0.31,0.68-0.51c0.08-0.7,0.03-1.42,0.03-1.98
				c-3.89,0-7.57,0.02-11.26-0.02c-0.64-0.01-1.31-0.21-1.91-0.44c-1.15-0.45-1.72-1.62-1.47-2.8c0.26-1.22,1.18-2,2.47-1.97
				c2.09,0.06,4.17,0.28,6.26,0.23c1.89-0.05,3.76-0.37,5.6-0.56c0-1.03,0-1.82,0-2.57c-2.16,0-4.24,0.06-6.32-0.02
				c-1.94-0.07-3.89-0.2-5.82-0.45c-1.03-0.13-1.48-0.9-1.41-1.88c0.07-0.92,0.71-1.54,1.73-1.63c0.38-0.03,0.77-0.02,1.15,0.04
				c3.04,0.43,6.05,0.25,9.05-0.32c1.46-0.28,1.54-0.47,1.08-1.99c-0.89,0.15-1.77,0.36-2.67,0.45c-2.94,0.27-5.89,0.58-8.84,0.72
				c-1.48,0.07-2.65-1.04-2.91-2.36c-0.28-1.39,0.33-2.84,1.61-3.43c0.64-0.29,1.4-0.33,2.12-0.43c3.16-0.45,6.34-0.82,9.49-1.36
				c1.41-0.24,1.42-0.46,1.09-2c-0.17,0.02-0.33,0.04-0.5,0.07c-3.81,0.61-7.62,1.27-11.45,1.81c-1.68,0.23-2.78-0.69-3.01-2.21
				c-0.24-1.62,0.61-2.86,2.25-3.23c1.09-0.24,2.19-0.42,3.28-0.63c2.9-0.56,5.81-1.1,8.7-1.69c0.34-0.07,0.89-0.32,0.9-0.53
				c0.09-1.08,0.04-2.17,0.04-3.01c-4.24,0.65-8.28,1.32-12.34,1.86c-1.56,0.21-2.53-0.57-2.61-1.74c-0.08-1.18,0.8-2.04,2.27-2.24
				c1.04-0.14,2.09-0.19,3.1-0.42c2.92-0.65,5.82-1.35,8.72-2.09c0.35-0.09,0.81-0.49,0.88-0.82c0.14-0.66,0.04-1.37,0.04-2.08
				c-0.92,0.14-1.77,0.29-2.63,0.39c-3.45,0.41-6.91,0.8-10.36,1.22c-0.9,0.11-1.57-0.23-2.09-0.91c-1.09-1.43-0.46-3.26,1.41-3.73
				c1.71-0.44,3.48-0.66,5.23-0.97c2.6-0.47,5.19-0.94,7.8-1.38c0.9-0.15,1.03-0.66,0.79-1.45c-2.77,0.54-5.52,1.09-8.28,1.63
				c-1.33,0.26-2.65,0.64-3.99,0.76c-1.55,0.14-2.71-1.07-2.72-2.64c-0.02-1.58,0.9-2.48,2.92-2.98c3.88-0.96,7.76-1.94,11.63-2.95
				c0.3-0.08,0.72-0.4,0.75-0.65c0.13-0.95,0.13-1.93,0.19-2.97c-1,0.24-1.86,0.49-2.74,0.64c-3.74,0.65-7.48,1.28-11.22,1.88
				c-0.5,0.08-1.06,0.07-1.53-0.09c-0.89-0.29-1.31-1.03-1.34-1.93c-0.04-1.02,0.49-1.77,1.46-2.06c1.1-0.32,2.23-0.52,3.36-0.73
				c3.99-0.74,7.98-1.46,12.09-2.21c0-0.76,0-1.64,0-2.56c-0.3,0.02-0.55,0.02-0.78,0.05c-2.48,0.37-4.95,0.76-7.43,1.1
				c-2.14,0.3-4.28,0.62-6.43,0.77c-0.67,0.05-1.58-0.25-2.02-0.72c-0.36-0.39-0.45-1.44-0.17-1.89c0.34-0.55,1.16-0.99,1.83-1.11
				c3.15-0.57,6.32-0.99,9.48-1.52c1.87-0.31,3.73-0.73,5.61-1.1c0-1.73,0-3.32,0-4.87c-2.87,0.28-5.7,0.59-8.53,0.82
				c-2.32,0.19-4.65,0.34-6.98,0.38c-1.19,0.02-1.67-0.56-1.66-1.55c0.01-1,0.63-1.54,1.78-1.63c1.59-0.13,3.2-0.18,4.78-0.44
				c3.32-0.55,6.63-1.22,9.94-1.85c0.75-0.14,0.96-0.56,0.6-1.32c-1.52,0.26-3.02,0.55-4.53,0.76c-3.21,0.44-6.43,0.83-9.68,0.36
				c-1.43-0.21-2.14-0.96-2.03-2.04c0.12-1.14,0.96-1.57,2.49-1.55c1.83,0.02,3.7,0.07,5.5-0.22c2.8-0.46,5.55-1.2,8.27-1.8
				c0-1.31,0-2.44,0-3.63c-2.38,0.19-4.66,0.37-6.95,0.56c-2.99,0.25-5.97,0.54-8.96,0.73c-1.18,0.08-1.9-0.67-1.95-1.73
				c-0.05-1,0.68-1.8,1.78-1.95c4.72-0.65,9.45-1.29,14.17-1.94c2.09-0.29,2.09-0.3,1.95-2.42c0-0.06-0.07-0.11-0.16-0.23
				c-0.4,0.09-0.83,0.25-1.27,0.29c-5.06,0.45-10.11,0.9-15.18,1.29c-1.08,0.08-1.77-0.67-1.85-1.72c-0.08-1.01,0.61-1.9,1.69-2.04
				c1.38-0.18,2.77-0.32,4.16-0.42c4.28-0.29,8.5-0.86,12.51-2.48c0-0.41,0-0.85,0-1.53c-4.68,0-9.28-0.01-13.87,0.01
				c-0.73,0-1.46,0.17-2.19,0.13c-0.27-0.02-0.51-0.42-0.77-0.65c0.23-0.24,0.45-0.66,0.71-0.7c2.86-0.39,5.74-0.7,8.6-1.08
				c2.31-0.31,4.61-0.68,6.91-1.06c0.23-0.04,0.4-0.36,0.6-0.55c-0.23-0.09-0.46-0.26-0.69-0.25c-4.18,0.08-8.36,0.19-12.53,0.28
				c-0.99,0.02-1.98-0.07-2.64-0.96c-1.24-1.66-0.31-3.94,1.8-4.14c3.12-0.3,6.26-0.4,9.38-0.63c1.54-0.12,3.07-0.36,4.51-0.53
				c0.36-1.27-0.09-1.6-1.13-1.65c-3.9-0.21-7.78-0.61-11.68-0.71c-2.67-0.07-5.35,0.26-8.03,0.36c-0.33,0.01-0.67-0.27-1.01-0.41
				c0.31-0.21,0.61-0.56,0.94-0.61c5.65-0.7,11.31-0.92,17-0.77c1.27,0.03,2.54,0,3.99,0c-0.35-1.64-0.66-3.08-0.97-4.51
				c-0.65,0.15-1.11,0.32-1.59,0.35c-3.58,0.18-7.16,0.41-10.75,0.45c-1.73,0.02-3.47-0.28-5.19-0.56c-1.05-0.17-1.5-1.4-0.78-2.05
				c0.37-0.33,1.06-0.45,1.61-0.44c1.74,0.03,3.49,0.34,5.21,0.22c3.42-0.24,6.83-0.7,10.41-1.09c-0.41-1.16-0.69-2.05-1.06-2.9
				c-0.08-0.19-0.48-0.36-0.73-0.34c-1.98,0.1-3.96,0.29-5.95,0.37c-10.65,0.46-21.3,0.93-31.95,1.32
				c-4.28,0.16-8.57,0.12-12.86,0.13c-0.85,0-1.2,0.22-1.28,1.16c-0.23,2.57-0.61,5.12-0.94,7.67c-0.17,1.33-0.34,2.66-0.54,4.23
				c9.83-0.79,19.53-0.84,29.14-2.46c-0.9,0.5-1.83,0.93-2.81,1.07c-4.76,0.67-9.53,1.24-14.29,1.89
				C309.83,57.34,305.94,57.92,301.95,58.49z M293.03,59.94c-0.31,0.03-0.58,0.06-0.85,0.09c-3.63,0.4-7.26,0.86-10.9,1.16
				c-2.12,0.18-2.2,0.06-2.11,2.2c0.22,5.64,0.52,11.27,0.75,16.9c0.17,4.14,0.28,8.28,0.45,12.42c0.45,10.38,1.47,20.71,2.69,31.02
				c1,8.54,1.89,17.09,2.74,25.64c0.5,4.98,0.92,9.98,1.23,14.98c0.51,8.29,0.46,16.59-0.32,24.86c-0.37,3.92-0.36,7.78,0.92,11.57
				c0.24,0.7,0.48,1.03,1.27,1c2.68-0.11,5.37-0.12,8.05-0.23c1.45-0.06,2.89-0.24,4.13-0.35c-0.12-3.76-0.41-7.38-0.32-10.99
				c0.21-8.56-0.48-17.06-1.24-25.57c-0.48-5.44-1.17-10.86-1.74-16.3c-0.61-5.79-1.27-11.57-1.75-17.36
				c-0.56-6.8-1.07-13.62-1.38-20.44c-0.33-7.38-0.41-14.77-0.58-22.16c-0.17-7.14-0.28-14.28-0.5-21.42
				C293.54,64.64,293.23,62.32,293.03,59.94z M268.9,61.37c0.12,2.42,0.33,4.61,0.3,6.8c-0.11,9.09,1,18.08,1.93,27.09
				c0.48,4.64,1.03,9.28,1.49,13.92c0.68,6.79,1.35,13.59,1.96,20.38c0.76,8.6,1.57,17.21,2.14,25.82
				c0.39,5.84,0.37,11.7,0.62,17.55c0.31,7.15,0.09,14.28-0.43,21.42c-0.16,2.25-0.24,4.51-0.37,6.87c2.58,0.17,4.98,0.32,7.41,0.48
				c-0.32-1.82-0.71-3.41-0.87-5.03c-0.17-1.66-0.22-3.34-0.14-5c0.16-3.27,0.59-6.53,0.65-9.8c0.12-6.2,0.21-12.41,0.02-18.6
				c-0.16-5.11-0.66-10.21-1.14-15.31c-0.58-6.21-1.25-12.41-1.95-18.6c-0.98-8.61-2.26-17.2-2.96-25.84
				c-0.73-8.99-0.95-18.02-1.35-27.03c-0.19-4.28-0.27-8.57-0.4-12.85c-0.02-0.78,0-1.57,0-2.28
				C273.52,61.37,271.27,61.37,268.9,61.37z M380.23,197.2c-0.08-0.88-0.06-1.59-0.21-2.26c-0.4-1.8-1.06-3.56-1.28-5.37
				c-0.56-4.74-1.1-9.49-1.33-14.25c-0.26-5.46-0.3-10.94-0.22-16.41c0.14-9.44,0.66-18.88,0.64-28.33
				c-0.02-10.87-0.72-21.75-0.62-32.62c0.12-13.65,0.2-27.33,1.46-40.95c0.03-0.31-0.3-0.92-0.48-0.92
				c-1.78-0.07-3.57-0.04-5.38-0.04c-0.04,0.58-0.08,1-0.09,1.41c-0.19,7.97-0.34,15.95-0.58,23.92c-0.2,6.69-0.59,13.37-0.73,20.06
				c-0.13,6.76,0,13.52-0.07,20.29c-0.06,5.96-0.23,11.91-0.39,17.87c-0.07,2.64-0.37,5.28-0.35,7.92
				c0.02,3.69,0.23,7.38,0.35,11.07c0.3,9.02,0.48,18.04,1.99,26.98c0.65,3.84,0.9,7.68-0.68,11.41c-0.2,0.48-0.2,1.04-0.32,1.74
				C374.81,198.21,377.47,197.71,380.23,197.2z M369.24,55.93c-0.23,0-0.75-0.16-1.08,0.03c-1,0.57-2,0.47-3.05,0.32
				c-0.74-0.11-1.49-0.18-2.13-0.25c0,8.78,0,17.48,0,26.15c1.8,0.26,2.62,0.95,2.76,2.18c0.17,1.48-0.18,1.9-2.11,2.63
				c-0.2,0.08-0.43,0.44-0.43,0.67c-0.02,3.31-0.02,6.62,0.01,9.93c0,0.35,0.18,0.72,0.36,1.03c0.55,0.92,0.63,1.81,0.05,2.75
				c-0.2,0.33-0.36,0.74-0.37,1.12c-0.09,3.48-0.17,6.97-0.2,10.45c0,0.63,0.29,1.26,0.36,1.9c0.08,0.71,0.31,1.55,0.02,2.12
				c-0.64,1.26-0.6,2.55-0.61,3.86c-0.05,4.98-0.08,9.96-0.09,14.95c0,0.3,0.21,0.76,0.46,0.88c2.12,1.07,2.56,4.25-0.02,5.51
				c-0.23,0.11-0.41,0.54-0.41,0.82c0,0.21,0.3,0.53,0.53,0.6c1.37,0.41,2.24,1.24,2.42,2.69c0.19,1.59-0.55,2.69-1.9,3.4
				c-0.64,0.34-1.23,0.6-0.98,1.52c0.18,0.66,0.02,1.53,0.39,1.99c0.97,1.16,1.01,2.18,0.17,3.39c-0.49,0.71,0.04,3.16,0.71,3.69
				c1.42,1.13,1.47,3.03,0.13,4.24c-0.24,0.21-0.53,0.52-0.55,0.8c-0.07,0.93-0.03,1.86-0.03,2.83c1.51,0.19,2.57,0.78,2.7,2.29
				c0.15,1.73-1.16,2.19-2.74,2.68c0.27,0.89,0.59,1.73,0.77,2.6c0.14,0.68,0.39,1.57,0.1,2.06c-0.76,1.25-0.54,2.33-0.07,3.55
				c0.19,0.5,0.09,1.13,0.06,1.7c-0.03,0.54-0.24,1.09-0.2,1.62c0.15,2.19,0.39,4.37,0.54,6.56c0.04,0.63,0.29,0.87,0.87,1.07
				c1.62,0.55,2.61,1.92,2.39,3.62c-0.14,1.1-0.73,2.14-1.12,3.21c0.16,0,0.53-0.03,0.89,0.01c0.85,0.08,1.21-0.27,1.36-1.15
				c0.19-1.16,0.69-2.27,0.88-3.43c0.24-1.5,0.49-3.04,0.4-4.54c-0.11-1.97-0.61-3.92-0.83-5.89c-0.63-5.71-1.33-11.41-1.76-17.14
				c-0.4-5.28-0.51-10.57-0.68-15.86c-0.09-2.78-0.25-5.58-0.02-8.34c0.59-7.06,0.63-14.13,0.52-21.2
				c-0.15-9.17-0.05-18.33,0.47-27.49c0.31-5.46,0.51-10.92,0.71-16.39c0.16-4.35,0.27-8.7,0.35-13.06
				C369.28,61.73,369.24,58.88,369.24,55.93z M298.91,59.05c-0.46,0.02-0.67,0.02-0.87,0.04c-1.66,0.13-1.65,0.13-1.53,1.76
				c0.25,3.36,0.61,6.72,0.72,10.09c0.38,11.88,0.65,23.76,0.99,35.64c0.1,3.66,0.17,7.32,0.46,10.97c0.67,8.4,1.44,16.8,2.21,25.19
				c0.62,6.73,1.38,13.44,1.96,20.18c0.48,5.58,0.94,11.18,1.15,16.77c0.19,5.05-0.01,10.11,0.06,15.16
				c0.03,2.03,0.32,4.06,0.49,6.05c1.39,0,2.56,0,3.73,0c-0.31-2.99-0.66-5.89-0.89-8.81c-0.3-3.93-0.48-7.86-0.74-11.79
				c-0.37-5.63-0.86-11.25-1.11-16.89c-0.44-9.96-0.65-19.92-1.1-29.88c-0.34-7.34-0.87-14.68-1.4-22.01
				c-0.52-7.16-1.19-14.3-1.74-21.46c-0.45-5.84-0.81-11.68-1.25-17.51C299.71,68.08,299.3,63.61,298.91,59.05z M309.18,36.32
				c0-0.07,0-0.14,0-0.21c3.45,0,6.9,0.07,10.35-0.02c5.81-0.14,11.62-0.32,17.43-0.58c4.91-0.22,9.8-0.65,14.71-0.83
				c4.84-0.18,9.68-0.14,14.53-0.25c1.32-0.03,2.65-0.16,3.94-0.41c1.52-0.29,2.33-1.42,2.22-2.94c-0.02-0.28-0.34-0.71-0.59-0.76
				c-4.76-0.99-9.55-1.4-14.43-1.07c-10.07,0.66-20.16,1.22-30.24,1.82c-5.67,0.34-11.33,0.66-17,1
				c-6.41,0.39-12.81,0.48-19.21-0.07c-2.42-0.21-4.86-0.48-7.26,0.27c-1.75,0.55-2.42,1.49-2.41,3.31c0,0.8,0.37,1.15,1.12,1.19
				c0.9,0.05,1.81,0.14,2.71,0.12C293.09,36.7,301.13,36.51,309.18,36.32z M322.58,23.58c1.66,0,3.01,0.05,4.36-0.03
				c0.5-0.03,1.07-0.25,1.47-0.57c1.76-1.4,3.6-2.66,5.86-3.06c2.4-0.43,4.73-0.06,6.24,1.95c0.75,0.99,1.38,1.42,2.54,1.39
				c1.25-0.04,2.52,0.16,3.75,0.01c1.11-0.13,2.27-0.41,3.24-0.95c2.22-1.23,4.39-2.56,6.46-4.03c2.1-1.49,3.42-3.54,3.43-6.25
				c0-0.76-0.24-1.34-0.98-1.68c-1.6-0.74-3.15-1.63-4.8-2.26c-3.34-1.26-6.61-1.43-9.7,0.89c-2.25,1.69-4.7,3.11-6.95,4.81
				c-3.91,2.96-7.8,5.94-12.18,8.21C324.44,22.47,323.62,22.98,322.58,23.58z M284.32,220.44c0.03,0.1,0.06,0.21,0.09,0.31
				c0.33,0.04,0.65,0.1,0.98,0.11c4.17,0.14,8.34,0.3,12.52,0.42c9.92,0.28,19.85,0.72,29.77,0.74c10.34,0.02,20.69-0.33,31.03-0.61
				c3.26-0.09,6.52-0.44,9.77-0.76c0.97-0.1,1.92-0.49,2.88-0.74c-0.02-0.18-0.05-0.35-0.07-0.53c-2.63-0.03-5.27-0.19-7.89-0.06
				c-2.5,0.12-4.98,0.73-7.47,0.8c-7.94,0.22-15.88,0.45-23.82,0.38c-7.28-0.06-14.55-0.6-21.83-0.72
				c-7.38-0.12-14.75,0.03-22.13,0.07c-0.87,0-1.75,0.03-2.61,0.13C285.11,220.03,284.72,220.28,284.32,220.44z M297.37,43.61
				c-2.57,0-4.97-0.02-7.36,0.03c-0.24,0-0.54,0.36-0.7,0.62c-1.72,2.73-3.39,5.5-5.14,8.22c-0.89,1.38-1.92,2.67-3.1,4.31
				c4.13-0.12,7.94-0.22,11.76-0.36c0.19-0.01,0.47-0.34,0.54-0.58c0.72-2.21,1.37-4.44,2.09-6.64
				C296.06,47.33,296.73,45.48,297.37,43.61z M301.81,203.72c-4.25,0.53-8.34,1.04-12.49,1.56c0.02,0.15-0.01,0.34,0.05,0.48
				c1,2.34,1.98,4.68,3.04,6.98c0.13,0.29,0.71,0.5,1.09,0.51c2.23,0.11,4.46,0.13,6.68,0.22c1.27,0.05,2.53,0.17,3.95,0.27
				C303.34,210.3,302.58,207.02,301.81,203.72z M286.72,43.99c-2.64-0.15-5.17-0.29-7.74-0.44c-1.15,4.93-4.38,8.71-7.67,12.58
				c2.03,0.1,3.8,0.21,5.57,0.26c0.29,0.01,0.68-0.17,0.85-0.4c1.92-2.51,3.81-5.04,5.71-7.58
				C284.53,46.95,285.61,45.48,286.72,43.99z M378.94,200.64c-2.69,0.16-5.06,0.31-7.36,0.45c-0.94,4.29-1.88,8.55-2.82,12.85
				c0.69,0.09,1.57,0.21,2.59,0.35C372.93,209.32,375.26,204.78,378.94,200.64z M358.77,41.02c1.26,3.18,2.43,6.14,3.57,9.04
				c1.12,0.15,2.25,0.25,3.37,0.47c1.08,0.21,2.13,0.55,3.12,0.81c-0.6-2.03-4.27-8.62-5.77-10.25c-0.17-0.18-0.45-0.39-0.67-0.38
				C361.21,40.78,360.05,40.91,358.77,41.02z M377.65,51.22c-0.3-0.52-0.49-0.93-0.75-1.29c-1.87-2.64-3.77-5.25-5.63-7.9
				c-1.49-2.13-2.37-2.07-5.03-1.45c2.52,3.54,4.76,7.2,6.19,11.33C374.16,51.69,375.84,51.46,377.65,51.22z M312.53,214.26
				c-1.21-3.7-2.38-7.32-3.57-10.92c-0.06-0.18-0.33-0.43-0.49-0.42c-1.09,0.05-2.17,0.16-3.45,0.27c1.17,3.79,2.28,7.38,3.41,11.07
				C309.67,214.26,310.95,214.26,312.53,214.26z M284.15,213.83c1.57-0.19,3.14-0.38,4.74-0.57c-1.12-2.48-2.19-4.85-3.28-7.22
				c-0.1-0.21-0.38-0.48-0.57-0.47c-1.99,0.05-3.98,0.16-5.98,0.25C280.79,208.55,282.47,211.18,284.15,213.83z M368.58,200.99
				c-1.36,0-2.48,0-3.56,0c-0.34,3.2-0.66,6.29-0.99,9.46c0.72-0.04,1.29,0,1.82-0.11c0.27-0.06,0.63-0.33,0.69-0.58
				C367.24,206.89,367.89,204.02,368.58,200.99z M299.29,43.46c-0.97,4.3-1.92,8.54-2.9,12.88c0.85,0,1.5,0,2.13,0
				c0.77-4.31,1.53-8.56,2.3-12.88C300.17,43.46,299.73,43.46,299.29,43.46z M353.88,23.3c0.97,0.08,1.94,0.18,2.91,0.22
				c0.29,0.01,0.64-0.06,0.87-0.23c2.03-1.51,3.75-3.28,4.83-5.64c0.63-1.38,0.26-2.51-0.52-3.75
				C361.16,18.71,357.32,20.79,353.88,23.3z M337.57,23.25c-1.7-1.34-4.06-1.21-5.6,0C333.79,23.25,335.68,23.25,337.57,23.25z"/>
			<path d="M346.58,21.31c-2.81-0.18-4.96-1.51-6.69-3.52c-0.87-1-0.78-2.43,0.25-3.3c2.06-1.74,4.12-3.54,6.42-4.95
				c2.11-1.29,7.55-1.12,9.41,1.82c0.94,1.48,1.18,2.98,0.07,4.33c-2.13,2.62-4.75,4.57-8.08,5.42
				C347.49,21.23,347,21.25,346.58,21.31z M341.97,16.35c0.78,0.58,1.29,0.98,1.82,1.35c2.03,1.4,3.92,1.44,5.86-0.07
				c1.25-0.98,2.35-2.15,3.5-3.25c0.56-0.54,0.48-1.06-0.03-1.62c-1.04-1.15-3.8-1.68-5.24-0.74
				C345.91,13.29,344.08,14.78,341.97,16.35z"/>
		</g>
		<path class="st4" d="M272.62,134.77c3.31,3.79,7.79,4.22,20,5.44c17.97,1.81,23.8,2.44,23.93,3.79c0.2,2.03-12.67,3.78-12.6,6.43
			c0.07,2.41,8.91,4.78,17,4.78c10.33,0,20.34-3.87,20.11-6.11c-0.23-2.22-10.37-2.03-10.44-3.78c-0.04-1.01,3.29-2.02,24.22-6.33
			c7.96-1.64,15.88-3.23,26.11-7.11c0.26-0.1,1.31-0.06,2-0.78c1.48-1.54,0.72-5.42-1.44-7.56c0,0-1.1-1.08-2.56-1.56
			c-10.26-3.34-99.63,4.24-107.67,2c-0.28-0.08-1.37-0.42-2,0.11C267.74,125.41,269.64,131.37,272.62,134.77z"/>
	</g>
	<g>
		<polygon class="st0" points="240.71,38.21 255.44,59.05 255.44,97.55 250.82,134.55 137.77,131.54 139.49,75.21 136.44,51.92 
			147.37,36.51 198.77,39.21 		"/>
		<polygon class="st1" points="250.82,134.55 248.42,155.21 246.77,182.88 246.77,202.92 239.27,216.42 214.71,216.42 
			173.77,217.55 144.3,216.42 140.79,207.47 133.77,198.74 136.44,183.88 137.77,131.54 		"/>
		<path class="st2" d="M250.82,134.55l-48.72,9.67l12.6,6.67l-15.93,3.67l-18.58-3.71c-1.72-0.34-1.86-2.76-0.18-3.29l9.43-3
			l-51.67-13.01v-9.66l114.43,1.64L250.82,134.55z"/>
		<path class="st3" d="M142.09,30.69c0.13-2.79,1.34-4.45,4.07-5.03c2.77-0.59,5.57-1.09,8.42-1.64c-0.49-0.44-0.99-0.85-1.44-1.3
			c-1.64-1.66-2.86-3.54-2.73-5.99c0.22-4.12,1.94-7.6,4.85-10.45c2.14-2.1,4.79-3.41,7.54-4.57c5.02-2.13,9.92-2.57,14.78,0.48
			c8.67,5.45,17.32,10.91,25.48,17.11c2.1,1.6,4.12,3.31,6.18,4.96c0.14,0.11,0.37,0.15,0.56,0.16c6.33,0.24,12.67,0.46,19,0.73
			c2.53,0.11,5.11,0.12,7.58,0.59c6.64,1.26,9.25,6.56,8.63,11.93c-0.11,0.92-0.04,1.73,0.22,2.53h-44.86l-37.38-1.45l-19.84-2.85
			C142.24,34.35,142,32.59,142.09,30.69z"/>
		<polygon class="st3" points="237.27,223.25 189.27,225.08 152.1,224.17 143.6,219.27 149.94,216.42 207.19,216.42 237.27,216.42 
			239.27,219.27 		"/>
		<g>
			<path d="M153.09,22.71c-1.64-1.66-2.86-3.54-2.73-5.99c0.22-4.12,1.94-7.6,4.85-10.45c2.14-2.1,4.79-3.41,7.54-4.57
				c5.02-2.13,9.92-2.57,14.78,0.48c8.67,5.45,17.32,10.91,25.48,17.11c2.1,1.6,4.12,3.31,6.18,4.96c0.14,0.11,0.37,0.15,0.56,0.16
				c6.33,0.24,12.67,0.45,19,0.73c2.53,0.11,5.11,0.12,7.58,0.59c6.64,1.26,9.25,6.56,8.63,11.93c-0.13,1.14-0.02,2.12,0.43,3.1
				c0.27,0.6,0.52,1.24,0.94,1.74c1.44,1.73,2.9,3.46,4.45,5.1c1.86,1.97,3.76,3.92,5.78,5.72c1.35,1.21,2.32,2.56,2.41,4.34
				c0.16,3.09,0.12,6.2,0.24,9.29c0.39,9.82-0.67,19.55-1.65,29.3c-0.64,6.38-1.29,12.75-1.94,19.13
				c-0.66,6.44-1.36,12.88-1.99,19.32c-0.5,5.2-1.03,10.4-1.33,15.62c-0.42,7.51-0.76,15.03-0.9,22.56
				c-0.11,6.02,0.07,12.05,0.21,18.07c0.07,3.06,0.4,6.12,0.5,9.18c0.1,3.01-0.45,5.93-2.19,8.46c-2.64,3.84-5.36,7.61-8.04,11.43
				c-0.15,0.21-0.17,0.52-0.27,0.77c-0.84,2.22-1.86,4.32-4.33,5.12c-1.01,0.33-2.1,0.51-3.17,0.58c-2.63,0.18-5.27,0.22-7.91,0.38
				c-4.1,0.25-8.2,0.72-12.31,0.79c-12.54,0.21-25.09,0.28-37.64,0.37c-1.53,0.01-3.07-0.09-4.59-0.26
				c-3.95-0.44-7.88-0.84-11.87-0.82c-3.22,0.02-6.47-0.27-9.66-0.77c-2.88-0.45-5.73-1.28-7.86-3.53
				c-0.88-0.93-1.66-1.98-1.53-3.31c0.1-1.06-0.21-1.93-0.55-2.88c-1.25-3.5-3.13-6.62-5.7-9.27c-3.61-3.72-4.69-8.11-3.78-13.08
				c0.4-2.18,1.11-4.32,1.46-6.51c0.41-2.58,0.62-5.19,0.83-7.79c0.78-9.57,0.74-19.15,0.19-28.73c-0.54-9.26-0.56-18.52-0.27-27.79
				c0.27-8.81,0.62-17.62,0.69-26.44c0.05-7.35-0.21-14.7-0.43-22.05c-0.19-6.54,0.19-13.11-0.66-19.63
				c-0.1-0.79,0.1-1.69,0.39-2.45c1.42-3.71,3.47-7.05,6.17-9.97c1.67-1.81,3.37-3.59,5.12-5.44c-1.85-1.86-2.3-4.13-2.18-6.64
				c0.13-2.79,1.34-4.45,4.07-5.03c2.77-0.59,5.57-1.09,8.42-1.64C154.05,23.58,153.54,23.17,153.09,22.71z M206,56.81
				c-4.76-0.65-9.53-1.22-14.29-1.89c-0.97-0.14-1.91-0.56-2.81-1.07c9.61,1.61,19.3,1.67,29.14,2.46c-0.2-1.57-0.37-2.9-0.54-4.23
				c-0.32-2.56-0.7-5.11-0.94-7.67c-0.09-0.93-0.43-1.16-1.28-1.16c-4.29-0.01-8.58,0.03-12.86-0.13
				c-10.65-0.39-21.3-0.86-31.95-1.32c-1.98-0.09-3.96-0.27-5.95-0.37c-0.24-0.01-0.65,0.15-0.73,0.34
				c-0.37,0.85-0.65,1.74-1.06,2.9c3.58,0.39,6.99,0.85,10.41,1.09c1.72,0.12,3.47-0.19,5.21-0.22c0.54-0.01,1.23,0.1,1.61,0.44
				c0.73,0.65,0.27,1.88-0.78,2.05c-1.72,0.28-3.46,0.58-5.19,0.56c-3.58-0.04-7.16-0.27-10.75-0.45c-0.48-0.02-0.94-0.2-1.59-0.35
				c-0.31,1.43-0.62,2.88-0.97,4.51c1.45,0,2.72,0.03,3.99,0c5.69-0.15,11.35,0.07,17,0.77c0.33,0.04,0.63,0.4,0.94,0.61
				c-0.34,0.14-0.68,0.42-1.01,0.41c-2.68-0.1-5.36-0.43-8.03-0.36c-3.9,0.1-7.79,0.51-11.68,0.71c-1.04,0.06-1.49,0.38-1.13,1.65
				c1.44,0.17,2.97,0.41,4.51,0.53c3.13,0.24,6.26,0.33,9.38,0.63c2.11,0.21,3.04,2.49,1.8,4.14c-0.66,0.89-1.64,0.98-2.64,0.96
				c-4.18-0.09-8.36-0.2-12.53-0.28c-0.23,0-0.46,0.16-0.69,0.25c0.2,0.19,0.38,0.52,0.6,0.55c2.3,0.38,4.6,0.75,6.91,1.06
				c2.86,0.38,5.74,0.69,8.6,1.08c0.26,0.04,0.47,0.46,0.71,0.7c-0.26,0.23-0.5,0.63-0.77,0.65c-0.72,0.04-1.46-0.13-2.19-0.13
				c-4.59-0.02-9.19-0.01-13.87-0.01c0,0.68,0,1.11,0,1.53c4.01,1.61,8.23,2.18,12.51,2.48c1.39,0.1,2.78,0.24,4.16,0.42
				c1.07,0.14,1.76,1.03,1.69,2.04c-0.08,1.05-0.77,1.8-1.85,1.72c-5.06-0.39-10.12-0.84-15.18-1.29c-0.44-0.04-0.87-0.19-1.27-0.29
				c-0.09,0.12-0.16,0.17-0.16,0.23c-0.14,2.12-0.14,2.13,1.95,2.42c4.72,0.65,9.45,1.3,14.17,1.94c1.1,0.15,1.82,0.96,1.78,1.95
				c-0.05,1.06-0.77,1.8-1.95,1.73c-2.99-0.19-5.97-0.49-8.96-0.73c-2.29-0.19-4.57-0.37-6.95-0.56c0,1.19,0,2.33,0,3.63
				c2.71,0.61,5.47,1.34,8.27,1.8c1.8,0.29,3.66,0.25,5.5,0.22c1.53-0.02,2.38,0.41,2.49,1.55c0.11,1.09-0.6,1.84-2.03,2.04
				c-3.25,0.47-6.47,0.08-9.68-0.36c-1.51-0.21-3.01-0.5-4.53-0.76c-0.36,0.76-0.15,1.18,0.6,1.32c3.31,0.63,6.62,1.29,9.94,1.85
				c1.57,0.26,3.18,0.32,4.78,0.44c1.16,0.09,1.77,0.64,1.78,1.63c0.01,0.99-0.47,1.57-1.66,1.55c-2.33-0.04-4.66-0.19-6.98-0.38
				c-2.83-0.23-5.66-0.54-8.53-0.82c0,1.55,0,3.15,0,4.87c1.88,0.37,3.73,0.79,5.61,1.1c3.16,0.53,6.33,0.95,9.48,1.52
				c0.68,0.12,1.49,0.56,1.83,1.11c0.28,0.46,0.19,1.51-0.17,1.89c-0.44,0.47-1.34,0.77-2.02,0.72c-2.15-0.15-4.29-0.47-6.43-0.77
				c-2.48-0.35-4.95-0.74-7.43-1.1c-0.24-0.04-0.48-0.03-0.78-0.05c0,0.92,0,1.8,0,2.56c4.11,0.75,8.1,1.47,12.09,2.21
				c1.13,0.21,2.26,0.41,3.36,0.73c0.97,0.28,1.49,1.04,1.46,2.06c-0.03,0.9-0.46,1.64-1.34,1.93c-0.47,0.15-1.03,0.17-1.53,0.09
				c-3.74-0.6-7.49-1.23-11.22-1.88c-0.88-0.15-1.75-0.41-2.74-0.64c0.05,1.05,0.05,2.02,0.19,2.97c0.04,0.25,0.45,0.57,0.75,0.65
				c3.87,1.01,7.75,1.99,11.63,2.95c2.03,0.5,2.94,1.4,2.92,2.98c-0.02,1.57-1.17,2.78-2.72,2.64c-1.34-0.12-2.66-0.5-3.99-0.76
				c-2.75-0.54-5.51-1.08-8.28-1.63c-0.24,0.79-0.11,1.3,0.79,1.45c2.6,0.44,5.2,0.92,7.8,1.38c1.75,0.31,3.51,0.54,5.23,0.97
				c1.86,0.47,2.5,2.3,1.41,3.73c-0.52,0.68-1.2,1.02-2.09,0.91c-3.45-0.42-6.91-0.81-10.36-1.22c-0.86-0.1-1.71-0.25-2.63-0.39
				c0,0.7-0.1,1.41,0.04,2.08c0.07,0.33,0.53,0.73,0.88,0.82c2.9,0.74,5.8,1.44,8.72,2.09c1.02,0.23,2.07,0.28,3.1,0.42
				c1.47,0.19,2.35,1.06,2.27,2.24c-0.08,1.18-1.05,1.95-2.61,1.74c-4.06-0.55-8.1-1.22-12.34-1.86c0,0.84-0.05,1.93,0.04,3.01
				c0.02,0.21,0.57,0.46,0.9,0.53c2.9,0.58,5.8,1.13,8.7,1.69c1.09,0.21,2.19,0.39,3.28,0.63c1.64,0.36,2.49,1.6,2.25,3.23
				c-0.22,1.51-1.33,2.44-3.01,2.21c-3.83-0.53-7.63-1.2-11.45-1.81c-0.17-0.03-0.34-0.05-0.5-0.07c-0.33,1.54-0.33,1.75,1.09,2
				c3.15,0.54,6.32,0.91,9.49,1.36c0.72,0.1,1.48,0.14,2.12,0.43c1.28,0.59,1.89,2.04,1.61,3.43c-0.26,1.32-1.43,2.43-2.91,2.36
				c-2.95-0.14-5.89-0.44-8.84-0.72c-0.9-0.08-1.78-0.29-2.67-0.45c-0.45,1.52-0.38,1.71,1.08,1.99c3,0.57,6.01,0.75,9.05,0.32
				c0.38-0.05,0.77-0.07,1.15-0.04c1.02,0.09,1.66,0.7,1.73,1.63c0.07,0.98-0.38,1.75-1.41,1.88c-1.93,0.25-3.88,0.38-5.82,0.45
				c-2.08,0.07-4.16,0.02-6.32,0.02c0,0.75,0,1.53,0,2.57c1.83,0.2,3.71,0.52,5.6,0.56c2.08,0.05,4.17-0.18,6.26-0.23
				c1.29-0.03,2.21,0.74,2.47,1.97c0.25,1.18-0.32,2.35-1.47,2.8c-0.6,0.24-1.27,0.44-1.91,0.44c-3.68,0.04-7.36,0.02-11.26,0.02
				c0,0.55-0.05,1.27,0.03,1.98c0.02,0.2,0.44,0.5,0.68,0.51c3.41,0.17,6.82,0.31,10.23,0.41c1.04,0.03,1.95,0.12,2.43,1.2
				c0.63,1.38-0.12,2.95-1.62,3.02c-2.64,0.13-5.29,0.06-7.94,0.08c-1.28,0.01-2.57,0-3.97,0c-0.03,0.54-0.06,1.11-0.1,1.85
				c1.51,0.2,2.94,0.48,4.38,0.55c1.95,0.1,3.9,0.03,5.85,0.03c1.48,0,2.36,0.69,2.4,1.88c0.03,1.22-0.89,2.05-2.38,2.06
				c-3.27,0.02-6.55,0.01-9.83,0.16c1.2,0.07,2.4,0.15,3.61,0.22c2.23,0.12,4.45,0.26,6.68,0.36c1.38,0.06,2.3,0.79,2.3,1.91
				c0,1.25-0.83,1.95-2.31,1.97c-3.52,0.04-7.03,0.09-10.55,0.14c-0.2,0-0.41,0.05-0.58,0.07c-0.06,0.11-0.11,0.16-0.12,0.22
				c-0.37,2.11-0.38,2.17,1.67,2.4c2.77,0.31,5.55,0.53,8.32,0.78c0.28,0.03,0.56,0.02,0.83,0.05c1.08,0.13,1.56,0.6,1.52,1.48
				c-0.04,0.87-0.59,1.36-1.65,1.33c-1.29-0.04-2.57-0.19-3.86-0.2c-2.5-0.03-5.01-0.01-7.72-0.01c-0.04,0.29-0.13,0.88-0.25,1.64
				c2.47,0.31,4.83,0.66,7.21,0.88c1.41,0.13,2.85,0.06,4.27,0.03c1.67-0.04,2.89,0.85,3.08,2.32c0.21,1.61-0.64,2.88-2.39,3.07
				c-2.31,0.26-4.66,0.25-6.99,0.37c-1.42,0.07-2.84,0.16-4.26,0.46c6.74,0.26,13.47,0.52,20.21,0.78c0,0.1,0,0.19,0,0.29
				c-3.57,0-7.13-0.05-10.7,0.01c-3.58,0.06-7.16,0.22-10.77,0.34c0,0.93,0,1.78,0,2.56c2.5,0.14,4.91,0.37,7.33,0.41
				c4.98,0.07,9.97,0.03,14.95,0.04c0.21,0,0.48-0.07,0.61,0.03c0.31,0.24,0.56,0.56,0.84,0.85c-0.28,0.26-0.52,0.67-0.84,0.73
				c-0.57,0.12-1.18-0.01-1.77,0.02c-4.94,0.24-9.88,0.52-14.82,0.73c-2,0.08-4.01,0.01-6.04,0.18c0.83,0.12,1.66,0.31,2.49,0.36
				c3.58,0.19,7.17,0.36,10.75,0.47c2.15,0.06,4.31-0.03,6.47,0c0.68,0.01,1.57-0.2,1.78,0.82c0.17,0.83-0.2,1.39-1.07,1.45
				c-2.08,0.15-4.16,0.28-6.24,0.36c-4.46,0.17-8.92,0.31-13.37,0.46c-0.18,0.01-0.37,0.07-0.58,0.35c0.48,0.09,0.95,0.23,1.43,0.26
				c3.76,0.23,7.51,0.48,11.27,0.65c1.98,0.09,2.63,0.76,2.36,2.81c0.97,0,1.93,0,2.89,0c6.52,0.02,13.03,0.06,19.55,0.07
				c2.23,0,4.46-0.04,6.69-0.12c0.32-0.01,0.82-0.26,0.92-0.51c1.27-3.5,2.49-7.01,3.71-10.52c0.05-0.16,0.06-0.33,0.11-0.64
				c-1.79-0.09-3.51-0.17-5.24-0.26c-3.62-0.18-7.24-0.36-10.86-0.57c-0.32-0.02-0.62-0.27-0.93-0.41c0.32-0.16,0.65-0.46,0.97-0.46
				c4.11,0.04,8.22,0.13,12.34,0.2c1.39,0.02,2.77,0,4.29,0c0.16-1.18,0.36-2.16,0.41-3.15c0.24-4.49,0.39-8.98,0.66-13.47
				c0.42-7.09,1-14.18,1.36-21.27c0.31-5.99,0.31-11.99,0.62-17.97c0.54-10.75,1.15-21.5,1.85-32.25
				c0.42-6.43,1.11-12.84,1.59-19.27c0.61-8.13,1.09-16.27,1.72-24.39c0.27-3.43,0.79-6.85,1.19-10.27
				c0.02-0.17,0.02-0.34,0.04-0.63C213.78,57.92,209.89,57.34,206,56.81z M226.12,66.96c-0.21,7.14-0.33,14.28-0.5,21.42
				c-0.17,7.39-0.25,14.78-0.58,22.16c-0.31,6.82-0.82,13.63-1.38,20.44c-0.48,5.8-1.14,11.58-1.75,17.36
				c-0.57,5.43-1.26,10.86-1.74,16.3c-0.75,8.5-1.44,17.01-1.24,25.57c0.09,3.61-0.2,7.23-0.32,10.99c1.25,0.11,2.69,0.29,4.13,0.35
				c2.68,0.11,5.37,0.12,8.05,0.23c0.79,0.03,1.04-0.29,1.27-1c1.29-3.79,1.29-7.65,0.92-11.57c-0.78-8.28-0.83-16.57-0.32-24.86
				c0.31-5,0.73-9.99,1.23-14.98c0.86-8.55,1.74-17.1,2.74-25.64c1.21-10.32,2.24-20.64,2.69-31.02c0.18-4.14,0.28-8.28,0.45-12.42
				c0.24-5.63,0.53-11.27,0.75-16.9c0.08-2.13,0.01-2.02-2.11-2.2c-3.64-0.3-7.27-0.77-10.9-1.16c-0.27-0.03-0.54-0.06-0.85-0.09
				C226.49,62.32,226.19,64.64,226.12,66.96z M243.9,61.37c0,0.71,0.02,1.49,0,2.28c-0.12,4.28-0.21,8.57-0.4,12.85
				c-0.4,9.01-0.62,18.04-1.35,27.03c-0.7,8.64-1.98,17.22-2.96,25.84c-0.7,6.19-1.37,12.39-1.95,18.6
				c-0.48,5.09-0.98,10.2-1.14,15.31c-0.19,6.2-0.1,12.4,0.02,18.6c0.06,3.27,0.49,6.53,0.65,9.8c0.08,1.66,0.03,3.35-0.14,5
				c-0.16,1.62-0.55,3.21-0.87,5.03c2.44-0.16,4.84-0.31,7.41-0.48c-0.12-2.36-0.2-4.62-0.37-6.87c-0.52-7.13-0.74-14.27-0.43-21.42
				c0.25-5.85,0.23-11.72,0.62-17.55c0.58-8.62,1.38-17.22,2.14-25.82c0.6-6.8,1.28-13.59,1.96-20.38
				c0.47-4.64,1.01-9.28,1.49-13.92c0.93-9.01,2.04-18,1.93-27.09c-0.03-2.19,0.19-4.38,0.3-6.8
				C248.45,61.37,246.2,61.37,243.9,61.37z M147.77,198.74c-0.12-0.7-0.12-1.27-0.32-1.74c-1.58-3.73-1.33-7.57-0.68-11.41
				c1.52-8.93,1.69-17.96,1.99-26.98c0.12-3.69,0.34-7.38,0.35-11.07c0.01-2.64-0.28-5.28-0.35-7.92
				c-0.16-5.95-0.32-11.91-0.39-17.87c-0.07-6.76,0.06-13.53-0.07-20.29c-0.13-6.69-0.53-13.37-0.73-20.06
				c-0.24-7.97-0.39-15.95-0.58-23.92c-0.01-0.42-0.05-0.83-0.09-1.41c-1.81,0-3.6-0.03-5.38,0.04c-0.18,0.01-0.51,0.62-0.48,0.92
				c1.26,13.62,1.35,27.29,1.46,40.95c0.09,10.87-0.61,21.74-0.62,32.62c-0.02,9.44,0.5,18.88,0.64,28.33
				c0.08,5.47,0.04,10.95-0.22,16.41c-0.23,4.76-0.77,9.51-1.33,14.25c-0.21,1.82-0.88,3.57-1.28,5.37
				c-0.15,0.67-0.13,1.38-0.21,2.26C142.26,197.71,144.91,198.21,147.77,198.74z M150.49,64.58c0.08,4.35,0.19,8.71,0.35,13.06
				c0.2,5.46,0.4,10.93,0.71,16.39c0.52,9.16,0.62,18.32,0.47,27.49c-0.11,7.08-0.07,14.14,0.52,21.2c0.23,2.76,0.07,5.56-0.02,8.34
				c-0.17,5.29-0.29,10.59-0.68,15.86c-0.43,5.73-1.13,11.43-1.76,17.14c-0.22,1.97-0.72,3.92-0.83,5.89
				c-0.09,1.5,0.16,3.04,0.4,4.54c0.19,1.16,0.69,2.27,0.88,3.43c0.15,0.87,0.5,1.22,1.36,1.15c0.37-0.03,0.74-0.01,0.89-0.01
				c-0.39-1.07-0.98-2.11-1.12-3.21c-0.22-1.69,0.77-3.06,2.39-3.62c0.58-0.2,0.83-0.44,0.87-1.07c0.15-2.19,0.39-4.37,0.54-6.56
				c0.04-0.53-0.17-1.08-0.2-1.62c-0.03-0.57-0.13-1.2,0.06-1.7c0.47-1.22,0.69-2.3-0.07-3.55c-0.3-0.49-0.04-1.38,0.1-2.06
				c0.18-0.87,0.5-1.71,0.77-2.6c-1.58-0.49-2.89-0.95-2.74-2.68c0.13-1.51,1.18-2.1,2.7-2.29c0-0.96,0.04-1.9-0.03-2.83
				c-0.02-0.28-0.31-0.59-0.55-0.8c-1.34-1.21-1.29-3.11,0.13-4.24c0.67-0.53,1.2-2.97,0.71-3.69c-0.84-1.21-0.8-2.23,0.17-3.39
				c0.38-0.45,0.21-1.33,0.39-1.99c0.25-0.92-0.34-1.18-0.98-1.52c-1.35-0.71-2.1-1.82-1.9-3.4c0.18-1.45,1.05-2.28,2.42-2.69
				c0.23-0.07,0.53-0.39,0.53-0.6c0-0.28-0.18-0.71-0.41-0.82c-2.58-1.26-2.14-4.44-0.02-5.51c0.24-0.12,0.46-0.58,0.46-0.88
				c-0.01-4.98-0.04-9.96-0.09-14.95c-0.01-1.31,0.02-2.6-0.61-3.86c-0.28-0.56-0.05-1.41,0.02-2.12c0.07-0.64,0.36-1.27,0.36-1.9
				c-0.03-3.48-0.1-6.97-0.2-10.45c-0.01-0.38-0.17-0.79-0.37-1.12c-0.58-0.94-0.5-1.83,0.05-2.75c0.18-0.31,0.36-0.68,0.36-1.03
				c0.03-3.31,0.03-6.62,0.01-9.93c0-0.23-0.22-0.59-0.43-0.67c-1.92-0.73-2.28-1.15-2.11-2.63c0.14-1.23,0.96-1.92,2.76-2.18
				c0-8.67,0-17.37,0-26.15c-0.64,0.07-1.39,0.14-2.13,0.25c-1.04,0.15-2.05,0.25-3.05-0.32c-0.33-0.19-0.85-0.03-1.08-0.03
				C150.48,58.88,150.44,61.73,150.49,64.58z M219.67,72.56c-0.44,5.84-0.8,11.68-1.25,17.51c-0.55,7.15-1.22,14.3-1.74,21.46
				c-0.54,7.33-1.07,14.67-1.4,22.01c-0.46,9.95-0.67,19.92-1.1,29.88c-0.25,5.63-0.74,11.26-1.11,16.89
				c-0.26,3.93-0.44,7.86-0.74,11.79c-0.22,2.91-0.58,5.82-0.89,8.81c1.18,0,2.34,0,3.73,0c0.17-1.99,0.47-4.02,0.49-6.05
				c0.07-5.05-0.14-10.11,0.06-15.16c0.21-5.6,0.67-11.19,1.15-16.77c0.58-6.73,1.34-13.45,1.96-20.18
				c0.78-8.39,1.55-16.79,2.21-25.19c0.29-3.65,0.35-7.31,0.46-10.97c0.34-11.88,0.62-23.76,0.99-35.64
				c0.11-3.37,0.47-6.72,0.72-10.09c0.12-1.63,0.13-1.63-1.53-1.76c-0.21-0.02-0.41-0.02-0.87-0.04
				C220.42,63.61,220.01,68.08,219.67,72.56z M234.68,36.87c0.9,0.02,1.81-0.07,2.71-0.12c0.75-0.04,1.11-0.39,1.12-1.19
				c0.01-1.82-0.65-2.76-2.41-3.31c-2.4-0.75-4.84-0.48-7.26-0.27c-6.4,0.55-12.8,0.46-19.21,0.07c-5.67-0.35-11.33-0.67-17-1
				c-10.08-0.6-20.16-1.15-30.24-1.82c-4.87-0.32-9.67,0.09-14.43,1.07c-0.25,0.05-0.57,0.49-0.59,0.76
				c-0.1,1.52,0.7,2.65,2.22,2.94c1.29,0.25,2.62,0.38,3.94,0.41c4.84,0.11,9.69,0.07,14.53,0.25c4.91,0.18,9.8,0.61,14.71,0.83
				c5.81,0.26,11.62,0.44,17.43,0.58c3.45,0.08,6.9,0.02,10.35,0.02c0,0.07,0,0.14,0,0.21C218.59,36.51,226.63,36.7,234.68,36.87z
				 M194.43,22.03c-4.38-2.27-8.27-5.25-12.18-8.21c-2.24-1.7-4.69-3.12-6.95-4.81c-3.09-2.31-6.36-2.15-9.7-0.89
				c-1.65,0.62-3.19,1.52-4.8,2.26c-0.74,0.34-0.98,0.92-0.98,1.68c0,2.71,1.32,4.75,3.43,6.25c2.07,1.47,4.24,2.8,6.46,4.03
				c0.96,0.53,2.13,0.82,3.24,0.95c1.23,0.15,2.5-0.05,3.75-0.01c1.16,0.04,1.79-0.39,2.54-1.39c1.51-2.01,3.84-2.38,6.24-1.95
				c2.26,0.4,4.1,1.66,5.86,3.06c0.4,0.31,0.97,0.54,1.47,0.57c1.35,0.08,2.7,0.03,4.36,0.03C196.1,22.98,195.28,22.47,194.43,22.03
				z M234.19,219.98c-0.86-0.1-1.74-0.12-2.61-0.13c-7.38-0.04-14.76-0.18-22.13-0.07c-7.28,0.12-14.55,0.66-21.83,0.72
				c-7.94,0.06-15.88-0.16-23.82-0.38c-2.5-0.07-4.97-0.68-7.47-0.8c-2.62-0.13-5.26,0.02-7.89,0.06c-0.02,0.18-0.05,0.35-0.07,0.53
				c0.96,0.26,1.9,0.65,2.88,0.74c3.25,0.32,6.51,0.67,9.77,0.76c10.34,0.28,20.69,0.63,31.03,0.61c9.92-0.02,19.85-0.47,29.77-0.74
				c4.17-0.12,8.35-0.27,12.52-0.42c0.33-0.01,0.65-0.07,0.98-0.11c0.03-0.1,0.06-0.21,0.09-0.31
				C235,220.28,234.61,220.03,234.19,219.98z M224.27,49.2c0.72,2.21,1.38,4.44,2.09,6.64c0.08,0.23,0.35,0.57,0.54,0.58
				c3.81,0.14,7.63,0.24,11.76,0.36c-1.19-1.63-2.21-2.93-3.1-4.31c-1.75-2.71-3.42-5.48-5.14-8.22c-0.16-0.26-0.46-0.62-0.7-0.62
				c-2.39-0.05-4.78-0.03-7.36-0.03C222.99,45.48,223.66,47.33,224.27,49.2z M215.57,213.75c1.42-0.1,2.69-0.22,3.95-0.27
				c2.23-0.09,4.46-0.11,6.68-0.22c0.38-0.02,0.96-0.23,1.09-0.51c1.06-2.31,2.05-4.65,3.04-6.98c0.06-0.15,0.04-0.33,0.05-0.48
				c-4.15-0.52-8.24-1.03-12.49-1.56C217.14,207.02,216.38,210.3,215.57,213.75z M236.29,48.41c1.89,2.53,3.78,5.07,5.71,7.58
				c0.17,0.23,0.57,0.41,0.85,0.4c1.77-0.05,3.54-0.16,5.57-0.26c-3.29-3.88-6.52-7.65-7.67-12.58c-2.57,0.15-5.1,0.29-7.74,0.44
				C234.11,45.48,235.19,46.95,236.29,48.41z M148.38,214.3c1.02-0.14,1.9-0.26,2.59-0.35c-0.95-4.31-1.88-8.56-2.82-12.85
				c-2.3-0.14-4.68-0.29-7.36-0.45C144.46,204.78,146.79,209.32,148.38,214.3z M157.34,40.72c-0.22-0.01-0.5,0.2-0.67,0.38
				c-1.51,1.64-5.17,8.22-5.77,10.25c0.99-0.26,2.04-0.6,3.12-0.81c1.11-0.22,2.25-0.32,3.37-0.47c1.14-2.9,2.31-5.86,3.57-9.04
				C159.67,40.91,158.51,40.78,157.34,40.72z M147.28,51.92c1.43-4.14,3.68-7.8,6.19-11.33c-2.66-0.63-3.54-0.69-5.03,1.45
				c-1.85,2.65-3.76,5.26-5.63,7.9c-0.25,0.36-0.45,0.76-0.75,1.29C143.89,51.46,145.56,51.69,147.28,51.92z M211.29,214.26
				c1.14-3.69,2.24-7.28,3.41-11.07c-1.28-0.11-2.37-0.22-3.45-0.27c-0.16-0.01-0.43,0.24-0.49,0.42
				c-1.19,3.61-2.37,7.22-3.57,10.92C208.77,214.26,210.05,214.26,211.29,214.26z M240.66,205.82c-2-0.09-3.99-0.19-5.98-0.25
				c-0.19-0.01-0.47,0.26-0.57,0.47c-1.09,2.36-2.16,4.74-3.28,7.22c1.61,0.19,3.17,0.38,4.74,0.57
				C237.26,211.18,238.93,208.55,240.66,205.82z M153.18,209.76c0.06,0.24,0.43,0.52,0.69,0.58c0.53,0.11,1.1,0.08,1.82,0.11
				c-0.33-3.17-0.66-6.26-0.99-9.46c-1.08,0-2.2,0-3.56,0C151.83,204.02,152.48,206.89,153.18,209.76z M218.89,43.46
				c0.77,4.32,1.53,8.57,2.3,12.88c0.64,0,1.28,0,2.13,0c-0.98-4.33-1.93-8.58-2.9-12.88C219.99,43.46,219.55,43.46,218.89,43.46z
				 M157.75,13.91c-0.78,1.24-1.15,2.37-0.52,3.75c1.08,2.36,2.8,4.13,4.83,5.64c0.23,0.17,0.58,0.24,0.87,0.23
				c0.97-0.04,1.94-0.14,2.91-0.22C162.4,20.79,158.56,18.71,157.75,13.91z M187.75,23.25c-1.54-1.21-3.9-1.34-5.6,0
				C184.04,23.25,185.93,23.25,187.75,23.25z"/>
			<path d="M171.76,21.11c-3.33-0.85-5.95-2.81-8.08-5.42c-1.1-1.35-0.86-2.85,0.07-4.33c1.86-2.94,7.3-3.11,9.41-1.82
				c2.29,1.4,4.35,3.2,6.42,4.95c1.03,0.87,1.12,2.3,0.25,3.3c-1.73,2.01-3.88,3.34-6.69,3.52
				C172.72,21.25,172.23,21.23,171.76,21.11z M171.84,12.01c-1.43-0.94-4.19-0.4-5.24,0.74c-0.51,0.56-0.59,1.09-0.03,1.62
				c1.15,1.1,2.25,2.28,3.5,3.25c1.93,1.51,3.82,1.47,5.86,0.07c0.53-0.37,1.04-0.77,1.82-1.35
				C175.64,14.78,173.81,13.29,171.84,12.01z"/>
		</g>
		<path class="st4" d="M247.1,134.77c-3.31,3.79-7.79,4.22-20,5.44c-17.97,1.81-23.8,2.44-23.93,3.79
			c-0.2,2.03,12.67,3.78,12.6,6.43c-0.07,2.41-8.91,4.78-17,4.78c-10.33,0-20.34-3.87-20.11-6.11c0.23-2.22,10.37-2.03,10.44-3.78
			c0.04-1.01-3.29-2.02-24.22-6.33c-7.96-1.64-15.88-3.23-26.11-7.11c-0.26-0.1-1.31-0.06-2-0.78c-1.48-1.54-0.72-5.42,1.44-7.56
			c0,0,1.1-1.08,2.56-1.56c10.26-3.34,99.63,4.24,107.67,2c0.28-0.08,1.37-0.42,2,0.11C251.99,125.41,250.08,131.37,247.1,134.77z"
			/>
	</g>
</g>
</svg>
