<svg xmlns="http://www.w3.org/2000/svg" viewBox="0 0 781.05 524.7"><defs><style>.a{fill:#be162f;}.b{fill:#0371b8;}.c{fill:#172938;}.d{fill:none;stroke:#172938;stroke-miterlimit:10;stroke-width:3.14px;}.e{fill:#bc1c31;}.f{fill:#a6c7e7;}.g{fill:#f9f2ea;}</style></defs><title>logo</title><path class="a" d="M172,637.33h31.57a19.4,19.4,0,0,1-6.94-14.87V559.14L236,627.08a20.58,20.58,0,0,0,17.79,10.25h11.14V529.81a18.78,18.78,0,0,1,7.11-14.71l.22-.17H240.94l.13.1a19.91,19.91,0,0,1,7.07,15.21V595l-46.42-80.08H172l.9.69a17,17,0,0,1,6.74,13.58V623a17.06,17.06,0,0,1-6.6,13.47Z" transform="translate(-171.98 -216.53)"/><path class="a" d="M322.16,512.4c-26.26,0-47.55,22.23-47.55,49.64s21.29,49.64,47.55,49.64,47.56-22.22,47.56-49.64S348.43,512.4,322.16,512.4Zm0,85.26c-12.87,0-23.3-15.94-23.3-35.62s10.43-35.62,23.3-35.62,23.31,16,23.31,35.62S335,597.66,322.16,597.66Z" transform="translate(-171.98 -216.53)"/><path class="a" d="M434.78,608.59h17.27l-27.79-40.48s20-4.3,20-25.9-15.67-27.28-25.77-27.28H374.74l.77.66a13,13,0,0,1,4.54,9.86v72.29a13.7,13.7,0,0,1-4.71,10.33l-.6.52h32.59l-.23-.16a14,14,0,0,1-5.83-11.38v-27.3l20.94,32A15,15,0,0,0,434.78,608.59ZM401.4,544.93V527.59s20.36-3.13,20.36,17.34-20.36,17.33-20.36,17.33Z" transform="translate(-171.98 -216.53)"/><path class="a" d="M517,608.59h17.26l-27.79-40.48s20-4.3,20-25.9-15.66-27.28-25.77-27.28H457l.78.66a13,13,0,0,1,4.53,9.86v72.29a13.7,13.7,0,0,1-4.71,10.33l-.6.52h32.59l-.22-.16a14,14,0,0,1-5.84-11.38v-27.3l20.94,32A15,15,0,0,0,517,608.59Zm-33.39-63.66V527.59S504,524.46,504,544.93s-20.37,17.33-20.37,17.33Z" transform="translate(-171.98 -216.53)"/><path class="a" d="M538.8,514.93h32.58l-.28.21a11.93,11.93,0,0,0-4.77,9.54V595h17.75a16,16,0,0,0,12.33-5.77l.24-.29-5.81,19.64h-52l1.22-1a11.37,11.37,0,0,0,4.33-8.94V524.83A11.37,11.37,0,0,0,540,515.9Z" transform="translate(-171.98 -216.53)"/><path class="a" d="M691.44,608.59h26c-3.62-2.82-4.82-4.56-4.82-9V551.18l31.54,49.57a17.22,17.22,0,0,0,14.64,7.84h10.28V526.32c0-4.39,1-8.54,4.75-11.26l.18-.13H748.21l.1.08c3.69,2.89,4.84,6.67,4.84,11.16v46.72l-37.23-58H691.44l.74.53c3.5,2.46,4.13,6.31,4.13,10.39v71.81c0,4-.59,7.83-4,10.31Z" transform="translate(-171.98 -216.53)"/><path class="a" d="M764.62,737.33h31.23c-4.35-3.39-5.8-5.49-5.8-10.76V668.35L828,727.91a20.67,20.67,0,0,0,17.59,9.42h12.35V638.48c0-5.27,1.26-10.25,5.7-13.52l.22-.16h-31l.12.09c4.43,3.48,5.82,8,5.82,13.42v56.13L794,624.8H764.62l.9.63c4.19,3,5,7.6,5,12.49V724.2c0,4.84-.71,9.41-4.82,12.38Z" transform="translate(-171.98 -216.53)"/><path class="a" d="M687.78,608.59h0a15.74,15.74,0,0,1-6.45-8.24l-28.79-85.42h-29a8.82,8.82,0,0,1,2.4,9.24l-27.79,84.42h22a9,9,0,0,1-2.36-9.41L622,586.42h31.83l3.71,11.12A10.87,10.87,0,0,1,655,608.59h32.77Zm-61.57-34.67L638,540l11.18,33.92Z" transform="translate(-171.98 -216.53)"/><path class="a" d="M783.34,514.93h0a16.58,16.58,0,0,1,4.55,11.41v71.58c0,4.6-1.61,7.12-4.55,10.67H820.1a43.71,43.71,0,0,0,43.71-43.71v-6.25a43.7,43.7,0,0,0-43.71-43.7Zm56.59,52.64c0,14.81-10.49,26.81-25.29,26.81h-4.46V528.82h4.46c14.8,0,25.29,12,25.29,26.81Z" transform="translate(-171.98 -216.53)"/><path class="a" d="M944.52,518V541.2s-12.38-14.15-30.31-14.15-35.12,22.74,5.3,38.15,43.2,51,14.15,68.21-63.41-1.77-63.41-1.77V601.33s12.38,23.24,35.87,23.24c23,0,34.4-26.28-.72-39.3-30.61-11.35-48.29-41.8-24.19-62.21S944.52,518,944.52,518Z" transform="translate(-171.98 -216.53)"/><path class="a" d="M326.12,622C294.56,622,269,648.66,269,681.59s25.58,59.64,57.14,59.64,57.13-26.7,57.13-59.64S357.67,622,326.12,622Zm0,102.44c-15.47,0-28-19.16-28-42.8s12.53-42.79,28-42.79,28,19.16,28,42.79S341.58,724.39,326.12,724.39Z" transform="translate(-171.98 -216.53)"/><path class="a" d="M461.42,737.52h20.74l-33.39-48.64s24-5.16,24-31.11S453.93,625,441.79,625H389.28l.93.79a15.61,15.61,0,0,1,5.45,11.85v86.85A16.45,16.45,0,0,1,390,736.89l-.72.63h39.16l-.28-.2a16.83,16.83,0,0,1-7-13.67v-32.8l25.17,38.49A18,18,0,0,0,461.42,737.52ZM421.31,661V640.2s24.47-3.75,24.47,20.83-24.47,20.83-24.47,20.83Z" transform="translate(-171.98 -216.53)"/><path class="a" d="M740.9,737.52h20.74l-33.38-48.64s24-5.16,24-31.11S733.42,625,721.27,625h-52.5l.92.79a15.61,15.61,0,0,1,5.45,11.85v86.85a16.42,16.42,0,0,1-5.66,12.41l-.71.63h39.15l-.27-.2a16.83,16.83,0,0,1-7-13.67v-32.8l25.16,38.49A18,18,0,0,0,740.9,737.52ZM700.79,661V640.2s24.47-3.75,24.47,20.83-24.47,20.83-24.47,20.83Z" transform="translate(-171.98 -216.53)"/><path class="a" d="M488.19,625h0a19.93,19.93,0,0,1,5.47,13.71v86c0,5.54-1.94,8.56-5.47,12.83h44.16A52.51,52.51,0,0,0,584.86,685V677.5A52.51,52.51,0,0,0,532.35,625Zm68,63.24c0,17.79-12.6,32.21-30.39,32.21h-5.35V641.68h5.35c17.79,0,30.39,14.42,30.39,32.21Z" transform="translate(-171.98 -216.53)"/><path class="a" d="M648.32,690H619.57v29.38h30.15c5.29,0,10.42-.19,14.56-3.48l1.51-1.19-6,22.85H587.84A13.26,13.26,0,0,0,594,726.3V629.36l0-4.37,65.78,0v16.64H619.57V673.3h28.75Z" transform="translate(-171.98 -216.53)"/><path class="b" d="M499.83,278.15V362.3c0,7.61,5.47,30.84,31.43,36.9S562.5,416,562.5,416s5.27-10.74,31.24-16.79,31.43-29.29,31.43-36.9V278.15s-18.55-8.59-62.67-8.59S499.83,278.15,499.83,278.15Z" transform="translate(-171.98 -216.53)"/><path class="c" d="M450.51,243c.63.15,1,1.59,1.11,1.92.52,1.49,0,3.15.34,4.7.56.07,1.91.06,2.47.14,3.46-2.49,2.63-7.73,3.81-11.17,1.78,2.48,2.46,9.07,1.36,11.32-1.49,3-4.15,3.95-7.33,3.82-2.25-.09-4.5-.12-6.74-.18,0-.3,0-.59,0-.89,2.21-2.08,4-4.35,4-7.46A9.59,9.59,0,0,0,450.51,243Z" transform="translate(-171.98 -216.53)"/><path class="c" d="M487.5,282.89c-2,1.7-5.22,2.46-4.89,6.1a1.47,1.47,0,0,1-.8,1.17c-5,1.25-3.52,4.86-3.36,8.33.33,7.22.2,14.46.25,21.68l-1.92,1.31-.48,0h-.47c0-4.74.33-9.51-.07-14.21-.2-2.27-1.5-4.57-2.72-6.59-2.58-4.28-.58-12,3.46-14.78,2.11-1.48,3.62-4,4.93-6.35,1.59-2.83,2.69-5.94,4-8.93.62.52,1.74,1,1.78,1.57C487.44,275.74,487.43,279.32,487.5,282.89Z" transform="translate(-171.98 -216.53)"/><path class="c" d="M452.3,372.66l-1,2-1.11,2.17-.71,1.67c-1.3,1.26-2.1,2.53-.12,3.88l-.12.15,3.35,6.1-.1.11c2,3,3.51,6.48,6,9s5.88,3.92,8.88,5.82l-.24,1.15c-2.38.49-4.81,1.55-7.11,1.32-2.66-.26-5.42-1.21-5.41-5.09,0-3.09-2.24-3.38-5.16-2.34.77-3.88-1.14-5.87-4-7.32-.92-.48-1.67-1.27-2.59-1.76-5.3-2.84-7.32-5.09-5-11.15.78-2,1-9.15-2-9.3,1.86-6.69,1-10.37,1-13.58,2.27-1.63,6.69-3.24,9-4.49,3.31,2.14,6.08,3.62,7.61,7C455.76,363.09,453.69,368.08,452.3,372.66Z" transform="translate(-171.98 -216.53)"/><path class="c" d="M485.09,361.21h0v0Z" transform="translate(-171.98 -216.53)"/><path class="c" d="M404.83,237v0Z" transform="translate(-171.98 -216.53)"/><path class="c" d="M485.88,329l-.9-.86-.87-.59-2.18-.23-4.55-.33-2.71-.64-1.87-.72-1.34-.78c-.3-.38-.94-1-.86-1.11,3.21-4.76.34-9.66.56-14.43.29-6.4-3.45-9.88-6.94-14-1.05-1.23-.59-3.63-1.25-5.32s-2.41-3.36-2.77-5.2c-.21-1.1.67-3.81,1.77-4.56.63-.42,2.67-.42,3.31.42,1.69,2.2,3.78,2.83,5.85,1.86,1.67-.8,3.91-1.07,5.63-1.76.78-5.79.4-7.93-6.15-10.72a20.76,20.76,0,0,1-2.61-1.6.56.56,0,0,1-.64-.08L451,263.06c.06-.47.13-.94.19-1.4l16.21-2.91.28-.16.31,0,1.4-1.07,1.07-.85c.48-1.27,1-2.55,1.43-3.82-.16-.18-.33-.35-.49-.51l-4.11,1.83v-9.9l-2.13,3a9,9,0,0,1-7.49,8.85,46.76,46.76,0,0,1-14.88.6c-6.32-.8-8.72-4-8.83-10.3a50,50,0,0,1,.95-7.54l0-3.09-2,1L432,238c-1,2.31-2,4.63-3.53,8.13-2.06-4.73-3.7-8.25-1.84-12.41l.32-3.1c-.1-.69-.21-1.38-.31-2.07l-.05,0-2,1.08-.8,1.18-4,12.93-.92.35c-.78-2.06-1.8-3.36-2.58-5.42-.09-1,.06-2.82,0-3.84-.18-4.61-.08-5.34-1.42-5.69a5.72,5.72,0,0,1-.85,1.52c-.65,4.86-1.29,9.71-2,15-3.17-1.71-4.2-3.28-4.92-7l-.82-2.76a1.71,1.71,0,0,0-1.35,1.17c.87,5,1.73,10,2.68,15.43-2.23-1.14-4.46-3-6.36-4-.65,3.12,1.92,5.61,3.86,7.24,1.69,1.41,3.59,2.58,5.4,3.85l1.53.37,7.32,2.08,2.05.29,6.31.77,5.18.41,5.15,2.13-8.21,7.83.08,2.06-1.05,2.33c-.55.7-1.11,1.4-1.66,2.11-.73,3.28-1.57,6.55-2.11,9.86a5.25,5.25,0,0,0,.78,3.24c2,3.37,2.48,6.8.54,10.27-1.67,3-2,5.67.25,8.64a18.38,18.38,0,0,1,2.48,5.7c1.95,6.1.77,8.69-4.7,12.07s-11,7.16-16.52,10.76a19,19,0,0,0-1.7,12.15c.9,4.76,2.23,9.44,3,14.22.26,1.62,0,3.92-1,5-3,3.31-6.46,6.18-9.74,9.23.11,1.59-.4,3.71.43,4.69,3.44,4,4.3,6.54,4.39,11.16,0,1.9-2,5.33-2,7.23,5.11-1,3.27,3.3,3.33,5.38.08,3.11,1,6.31,3.83,7.66,3.18,1.51,4.86-1.08,6.91-2.63A46.94,46.94,0,0,1,407.7,387c.4-3.88,1.26-4.13,5.67-5.5a72.06,72.06,0,0,0,11.4-5c5.31-2.72,8.57-6.84,8.38-13.22-.07-2.57-.48-6.56.06-9.07.3-1.37,1.9-1.81,3-2.32,3.66-1.65,7.55-2.8,11.34-4.14l9-5.38,1.34-1,1.68-1.13,1.31-1v0L462,338l2-1.92c1.91-2.37,4.15-3.21,6.55-2,.67.1,2.29.44,3,.55,1.79.57,3.95.49,5.31,1.79.93.89,1.21,2.86,1.65,4.07a20.54,20.54,0,0,1,.64,2.71c.05.31-3.27,2.78-3.24,3.09s4-.67,4.05-.32a11.37,11.37,0,0,1-.31,3.82c-.72,1.92-.63,4.5-.72,6.62a24.2,24.2,0,0,0,2,3.16,11,11,0,0,0,2.27,1.63c0-.39-.1-1.87-.05-2.2.29-2.08.55-2.84.83-4.92-.93-2.06-1.08-4.2.88-5.73.06-5.86.46-11.59.52-17.45Zm-16.56-53.33c.47-.59,2.71.56,3.05.73.87.44,1.68.85,1.7,1.5s-.94,1.5-1.81,1.55C470.41,279.59,468.77,276.39,469.32,275.71Zm-18.1-5.63c-1.71.94-4.4-.59-4.39-1.66,0-.83,1.65-1.55,2.84-1.7.34-.05,2.28-.3,2.79.72C452.88,268.28,452.14,269.57,451.22,270.08Z" transform="translate(-171.98 -216.53)"/><path class="c" d="M674.49,243c-.63.15-1,1.59-1.11,1.92-.52,1.49,0,3.15-.34,4.7-.56.07-1.91.06-2.47.14-3.46-2.49-2.63-7.73-3.81-11.17-1.78,2.48-2.46,9.07-1.36,11.32,1.49,3,4.15,3.95,7.33,3.82,2.25-.09,4.5-.12,6.74-.18,0-.3,0-.59,0-.89-2.21-2.08-4-4.35-4-7.46A9.59,9.59,0,0,1,674.49,243Z" transform="translate(-171.98 -216.53)"/><path class="c" d="M637.5,282.89c2,1.7,5.22,2.46,4.89,6.1a1.47,1.47,0,0,0,.8,1.17c5,1.25,3.52,4.86,3.36,8.33-.33,7.22-.2,14.46-.25,21.68l1.92,1.31.48,0h.47c0-4.74-.33-9.51.07-14.21.2-2.27,1.5-4.57,2.72-6.59,2.58-4.28.58-12-3.46-14.78-2.11-1.48-3.62-4-4.93-6.35-1.59-2.83-2.69-5.94-4-8.93-.62.52-1.74,1-1.78,1.57C637.56,275.74,637.57,279.32,637.5,282.89Z" transform="translate(-171.98 -216.53)"/><path class="c" d="M672.7,372.66c.33.67.66,1.33,1,2l1.11,2.17.71,1.67c1.3,1.26,2.1,2.53.12,3.88l.12.15-3.35,6.1.1.11c-2,3-3.51,6.48-6,9s-5.88,3.92-8.88,5.82l.24,1.15c2.38.49,4.81,1.55,7.11,1.32,2.66-.26,5.42-1.21,5.41-5.09,0-3.09,2.24-3.38,5.16-2.34-.77-3.88,1.14-5.87,4-7.32.92-.48,1.67-1.27,2.59-1.76,5.3-2.84,7.32-5.09,5-11.15-.78-2-1-9.15,2-9.3-1.86-6.69-1-10.37-1-13.58-2.27-1.63-6.69-3.24-9-4.49-3.31,2.14-6.08,3.62-7.61,7C669.24,363.09,671.31,368.08,672.7,372.66Z" transform="translate(-171.98 -216.53)"/><path class="c" d="M639.91,361.21h0v0Z" transform="translate(-171.98 -216.53)"/><path class="c" d="M720.17,237v0Z" transform="translate(-171.98 -216.53)"/><path class="c" d="M637.74,330.91c.06,5.86.46,11.59.52,17.45,2,1.53,1.81,3.67.88,5.73.28,2.08.54,2.84.83,4.92,0,.33-.09,1.81-.05,2.2a11,11,0,0,0,2.27-1.63,24.2,24.2,0,0,0,2-3.16c-.09-2.12,0-4.7-.72-6.62a11.37,11.37,0,0,1-.31-3.82c0-.35,4,.66,4,.32s-3.29-2.78-3.24-3.09a20.54,20.54,0,0,1,.64-2.71c.44-1.21.72-3.18,1.65-4.07,1.36-1.3,3.52-1.22,5.31-1.79.67-.11,2.29-.45,3-.55,2.4-1.26,4.64-.42,6.55,2l2,1.92,1.1,1.17v0l1.31,1,1.68,1.13,1.34,1,9,5.38c3.79,1.34,7.68,2.49,11.34,4.14,1.12.51,2.72.95,3,2.32.54,2.51.13,6.5.06,9.07-.19,6.38,3.07,10.5,8.38,13.22a72.06,72.06,0,0,0,11.4,5c4.41,1.37,5.27,1.62,5.67,5.5a46.94,46.94,0,0,1-7.59,27.64c2,1.55,3.73,4.14,6.91,2.63,2.81-1.35,3.75-4.55,3.83-7.66.06-2.08-1.78-6.34,3.33-5.38,0-1.9-2-5.33-2-7.23.09-4.62,1-7.14,4.39-11.16.83-1,.32-3.1.43-4.69-3.28-3.05-6.75-5.92-9.74-9.23-1-1.11-1.29-3.41-1-5,.77-4.78,2.1-9.46,3-14.22a19,19,0,0,0-1.7-12.15c-5.5-3.6-10.93-7.31-16.52-10.76s-6.65-6-4.7-12.07a18.38,18.38,0,0,1,2.48-5.7c2.28-3,1.92-5.65.25-8.64-1.94-3.47-1.48-6.9.54-10.27a5.25,5.25,0,0,0,.78-3.24c-.54-3.31-1.38-6.58-2.11-9.86-.55-.71-1.11-1.41-1.66-2.11l-1.05-2.33.08-2.06L687,265.61l5.15-2.13,5.18-.41,6.31-.77,2.05-.29,7.32-2.08,1.53-.37c1.81-1.27,3.71-2.44,5.4-3.85,1.94-1.63,4.51-4.12,3.86-7.24-1.9,1-4.13,2.84-6.36,4,.95-5.46,1.81-10.44,2.68-15.43a1.71,1.71,0,0,0-1.35-1.17l-.82,2.76c-.72,3.68-1.75,5.25-4.92,7-.7-5.26-1.34-10.11-2-15a5.72,5.72,0,0,1-.85-1.52c-1.34.35-1.24,1.08-1.42,5.69-.09,1,.06,2.81,0,3.84C708,240.67,707,242,706.2,244l-.92-.35-4-12.93-.8-1.18-2-1.08-.05,0c-.1.69-.21,1.38-.31,2.07l.32,3.1c1.86,4.16.22,7.68-1.84,12.41C695,242.62,694,240.3,693,238l-.9-1.18-2-1,0,3.09a50,50,0,0,1,.95,7.54c-.11,6.26-2.51,9.5-8.83,10.3a46.76,46.76,0,0,1-14.88-.6,9,9,0,0,1-7.49-8.85l-2.13-3v9.9l-4.11-1.83c-.16.16-.33.33-.49.51.47,1.27,1,2.55,1.43,3.82l1.07.85,1.4,1.07.31,0,.28.16,16.21,2.91c.06.46.13.93.19,1.4l-16.38,5.32a.56.56,0,0,1-.64.08,20.76,20.76,0,0,1-2.61,1.6c-6.55,2.79-6.93,4.93-6.15,10.72,1.72.69,4,1,5.63,1.76,2.07,1,4.16.34,5.85-1.86.64-.84,2.68-.84,3.31-.42,1.1.75,2,3.46,1.77,4.56-.36,1.84-2,3.37-2.77,5.2s-.2,4.09-1.25,5.32c-3.49,4.13-7.23,7.61-6.94,14,.22,4.77-2.65,9.67.56,14.43.08.12-.56.73-.86,1.11l-1.34.78-1.87.72-2.71.64-4.55.33-2.18.23-.87.59-.9.86Zm15-51.42c-.87-.05-1.84-.83-1.81-1.55s.83-1.06,1.7-1.5c.34-.17,2.58-1.32,3-.73S654.59,279.59,652.74,279.49Zm19.8-12.05c.51-1,2.45-.77,2.79-.72,1.19.15,2.84.87,2.84,1.7,0,1.07-2.68,2.6-4.39,1.66C672.86,269.57,672.12,268.28,672.54,267.44Z" transform="translate(-171.98 -216.53)"/><path class="c" d="M633.64,359.1V270.79c-22.75-9.93-71.14-10.45-71.14-10.45s-48.39.52-71.14,10.45V359.1c0,8.82-.55,35.43,31.71,45.91s36.53,19.3,39.43,27.71c2.9-8.41,7.17-17.23,39.43-27.71S633.64,367.92,633.64,359.1Zm-4.75,4.13c0,8.07-5.79,32.68-33.3,39.09S562.5,420.1,562.5,420.1s-5.58-11.37-33.09-17.78-33.3-31-33.3-39.09V274.1s19.65-9.1,66.39-9.1,66.39,9.1,66.39,9.1Z" transform="translate(-171.98 -216.53)"/><path class="c" d="M622.48,237.63s-14.62,17.09-34.75,9.1-20.6-30.2-20.6-30.2h-9.26s-.47,22.2-20.6,30.2-34.75-9.1-34.75-9.1H484.88L486,238a8.18,8.18,0,0,1,5.4,7.69v20.18s11.49-4.1,33.69-7.41,37.45-2.93,37.45-2.93,15.26-.38,37.45,2.93,33.69,7.41,33.69,7.41V245.71A8.18,8.18,0,0,1,639,238l1.08-.39Z" transform="translate(-171.98 -216.53)"/><path class="d" d="M563.74,315.25c3.51-.2,9.72,5.79,9.72,5.79s13.24.62,22.54,3.1,14.89,5.17,13.86,7.66-8.69,2.89-8.69,3.72,6.41-1,7,0,0,3.51-7.45,5.58-11-.2-11.79-1.45-1.12-3.72-2.11-3.51-.09,3.79.66,4.89,1.59.76,1,1.52-13.24.83-19.79.62a118.51,118.51,0,0,1-12.41-1.1s-2.82,2.89-8.47,2.62-5.45-1.24-5.52-2.48a4.55,4.55,0,0,1,1-2.56l-3.31-.41s-2.69,2.76-5.1,2.83-5.38-3-5.24-3.93a5.7,5.7,0,0,0,0-1.66l-2.06-1.1s-3.59,3.59-5.24,5.31-3.1,3.93-4.83,2.27-.82-4.68,0-7.23,1.66-3.73,1.66-4.69a12.5,12.5,0,0,0-1.31-5c-1-2.2-1.83-5.72-1.33-7.3s3.53-1.73,5.33.55,7,8.62,7,8.62l2.83-.14a3.42,3.42,0,0,1,.18-2.72c.75-1,3.47-.87,5.54-.11s2.24,1.87,2.24,1.87l13.64-2.57a4.41,4.41,0,0,1,0-3.23C554.09,319.73,560.16,315.46,563.74,315.25Z" transform="translate(-171.98 -216.53)"/><path class="e" d="M563.74,315.25c3.51-.2,9.72,5.79,9.72,5.79s13.24.62,22.54,3.1,14.89,5.17,13.86,7.66-8.69,2.89-8.69,3.72,6.41-1,7,0,0,3.51-7.45,5.58-11-.2-11.79-1.45-1.12-3.72-2.11-3.51-.09,3.79.66,4.89,1.59.76,1,1.52-13.24.83-19.79.62a118.51,118.51,0,0,1-12.41-1.1s-2.82,2.89-8.47,2.62-5.45-1.24-5.52-2.48a4.55,4.55,0,0,1,1-2.56l-3.31-.41s-2.69,2.76-5.1,2.83-5.38-3-5.24-3.93a5.7,5.7,0,0,0,0-1.66l-2.06-1.1s-3.59,3.59-5.24,5.31-3.1,3.93-4.83,2.27-.82-4.68,0-7.23,1.66-3.73,1.66-4.69a12.5,12.5,0,0,0-1.31-5c-1-2.2-1.83-5.72-1.33-7.3s3.53-1.73,5.33.55,7,8.62,7,8.62l2.83-.14a3.42,3.42,0,0,1,.18-2.72c.75-1,3.47-.87,5.54-.11s2.24,1.87,2.24,1.87l13.64-2.57a4.41,4.41,0,0,1,0-3.23C554.09,319.73,560.16,315.46,563.74,315.25Z" transform="translate(-171.98 -216.53)"/><path class="f" d="M573.45,321.05c5.68-.31,13.24.62,22.54,3.11s14.89,5.17,13.86,7.65-8.69,2.89-8.69,3.72,6.42-1,7,0,0,3.52-7.45,5.58-11-.2-11.79-1.44-1.12-3.73-2.11-3.52-.09,3.79.66,4.9,1.59.75,1,1.51-13.24.83-19.79.62a79.37,79.37,0,0,1-12.41-1.1c-3.26-.55-6.67-.82-16.33-2.83a83.44,83.44,0,0,1-10.35-2.75c-.54-.22-2.06-1.11-2.06-1.11a6.77,6.77,0,0,1-1.21-3.67,4.22,4.22,0,0,1,2.45-3.77s2.12-.08,2.83-.14c2-.17,6-.65,8-1,3.43-.54,10.22-2,13.64-2.57C558.31,323.41,568.35,321.34,573.45,321.05Z" transform="translate(-171.98 -216.53)"/><path class="g" d="M602.41,326.83a1.24,1.24,0,0,0-.21-.79c-1.81-.64-3.89-1.27-6.21-1.88-9.3-2.49-16.86-3.42-22.54-3.11-5.1.29-15.14,2.36-20.17,3.23-3.42.6-10.21,2-13.64,2.57-1,.15-2.44.35-3.91.52h0c-1.74,1-.63,1.63,2.88,1.94s27.82-3.72,39.81-3.72S602.12,328.67,602.41,326.83Z" transform="translate(-171.98 -216.53)"/><circle class="c" cx="426.82" cy="113.94" r="1.14"/><path class="e" d="M584.63,339.55c.07-.78-1.49-1.5-3.62-2.48s-4.46-2.06-5.27-1.24-.49,4.58,1.65,4.86C580.6,341.1,584.52,340.83,584.63,339.55Z" transform="translate(-171.98 -216.53)"/><path class="d" d="M562.66,352.68c-3.51-.2-9.72,5.79-9.72,5.79s-13.24.63-22.55,3.11-14.89,5.17-13.85,7.65,8.68,2.89,8.68,3.72-6.41-1-7,0,0,3.52,7.45,5.59,11-.21,11.78-1.45,1.12-3.72,2.12-3.52.09,3.79-.67,4.9-1.58.75-1,1.51,13.23.83,19.78.62A115.41,115.41,0,0,0,570,379.5s2.83,2.9,8.48,2.62,5.45-1.24,5.52-2.48a4.54,4.54,0,0,0-1-2.55l3.31-.42s2.69,2.76,5.1,2.83,5.38-3,5.24-3.93a5.24,5.24,0,0,1,0-1.65l2.06-1.11s3.58,3.59,5.24,5.31,3.1,3.93,4.82,2.28.83-4.69,0-7.24-1.65-3.72-1.65-4.69a12.47,12.47,0,0,1,1.31-5c1-2.21,1.83-5.72,1.33-7.31s-3.54-1.72-5.33.55-7,8.62-7,8.62l-2.83-.14a3.4,3.4,0,0,0-.18-2.71c-.76-1-3.47-.87-5.54-.12s-2.24,1.87-2.24,1.87l-13.64-2.56a4.49,4.49,0,0,0,0-3.24C572.31,357.16,566.24,352.89,562.66,352.68Z" transform="translate(-171.98 -216.53)"/><path class="e" d="M562.66,352.68c-3.51-.2-9.72,5.79-9.72,5.79s-13.24.63-22.55,3.11-14.89,5.17-13.85,7.65,8.68,2.89,8.68,3.72-6.41-1-7,0,0,3.52,7.45,5.59,11-.21,11.78-1.45,1.12-3.72,2.12-3.52.09,3.79-.67,4.9-1.58.75-1,1.51,13.23.83,19.78.62A115.41,115.41,0,0,0,570,379.5s2.83,2.9,8.48,2.62,5.45-1.24,5.52-2.48a4.54,4.54,0,0,0-1-2.55l3.31-.42s2.69,2.76,5.1,2.83,5.38-3,5.24-3.93a5.24,5.24,0,0,1,0-1.65l2.06-1.11s3.58,3.59,5.24,5.31,3.1,3.93,4.82,2.28.83-4.69,0-7.24-1.65-3.72-1.65-4.69a12.47,12.47,0,0,1,1.31-5c1-2.21,1.83-5.72,1.33-7.31s-3.54-1.72-5.33.55-7,8.62-7,8.62l-2.83-.14a3.4,3.4,0,0,0-.18-2.71c-.76-1-3.47-.87-5.54-.12s-2.24,1.87-2.24,1.87l-13.64-2.56a4.49,4.49,0,0,0,0-3.24C572.31,357.16,566.24,352.89,562.66,352.68Z" transform="translate(-171.98 -216.53)"/><path class="f" d="M553,358.49c-5.68-.32-13.24.62-22.55,3.1s-14.89,5.17-13.85,7.65,8.68,2.9,8.68,3.72-6.41-1-7,0,0,3.52,7.45,5.59,11-.21,11.78-1.45,1.12-3.72,2.11-3.52.1,3.79-.66,4.9-1.58.76-1,1.51,13.23.83,19.78.63A80.17,80.17,0,0,0,570,379.51c3.27-.55,6.68-.82,16.34-2.82a85.27,85.27,0,0,0,10.35-2.76c.54-.22,2.06-1.1,2.06-1.1a6.78,6.78,0,0,0,1.21-3.68,4.22,4.22,0,0,0-2.45-3.77s-2.12-.08-2.83-.14c-2-.17-6-.65-8-1-3.42-.53-10.21-2-13.63-2.56C568.09,360.84,558.05,358.77,553,358.49Z" transform="translate(-171.98 -216.53)"/><path class="g" d="M524,364.27a1.21,1.21,0,0,1,.22-.8c1.81-.64,3.89-1.26,6.2-1.88,9.31-2.48,16.87-3.42,22.55-3.1,5.1.28,15.14,2.35,20.17,3.23,3.42.59,10.21,2,13.63,2.56,1,.16,2.44.35,3.91.53h0c1.75.95.64,1.63-2.88,1.94S560,363,548,363,524.27,366.1,524,364.27Z" transform="translate(-171.98 -216.53)"/><circle class="c" cx="355.63" cy="151.37" r="1.14"/><path class="e" d="M541.76,377c-.07-.78,1.5-1.5,3.62-2.48s4.47-2.05,5.28-1.24.49,4.59-1.66,4.86C545.8,378.54,541.88,378.26,541.76,377Z" transform="translate(-171.98 -216.53)"/><path class="d" d="M562.66,280.09c-3.51-.2-9.72,5.79-9.72,5.79s-13.24.62-22.55,3.11-14.89,5.17-13.85,7.65,8.68,2.89,8.68,3.72-6.41-1-7,0,0,3.52,7.45,5.58,11-.2,11.78-1.44,1.12-3.73,2.12-3.52.09,3.79-.67,4.9-1.58.75-1,1.51,13.23.83,19.78.62a115.41,115.41,0,0,0,12.41-1.1s2.83,2.9,8.48,2.62,5.45-1.24,5.52-2.48a4.54,4.54,0,0,0-1-2.55l3.31-.42s2.69,2.76,5.1,2.83,5.38-3,5.24-3.93a5.24,5.24,0,0,1,0-1.65l2.06-1.11s3.58,3.59,5.24,5.31,3.1,3.93,4.82,2.28.83-4.69,0-7.24-1.65-3.73-1.65-4.69a12.43,12.43,0,0,1,1.31-5c1-2.21,1.83-5.73,1.33-7.31s-3.54-1.72-5.33.55-7,8.62-7,8.62l-2.83-.14a3.42,3.42,0,0,0-.18-2.72c-.76-1-3.47-.86-5.54-.11s-2.24,1.87-2.24,1.87l-13.64-2.57a4.46,4.46,0,0,0,0-3.23C572.31,284.57,566.24,280.3,562.66,280.09Z" transform="translate(-171.98 -216.53)"/><path class="e" d="M562.66,280.09c-3.51-.2-9.72,5.79-9.72,5.79s-13.24.62-22.55,3.11-14.89,5.17-13.85,7.65,8.68,2.89,8.68,3.72-6.41-1-7,0,0,3.52,7.45,5.58,11-.2,11.78-1.44,1.12-3.73,2.12-3.52.09,3.79-.67,4.9-1.58.75-1,1.51,13.23.83,19.78.62a115.41,115.41,0,0,0,12.41-1.1s2.83,2.9,8.48,2.62,5.45-1.24,5.52-2.48a4.54,4.54,0,0,0-1-2.55l3.31-.42s2.69,2.76,5.1,2.83,5.38-3,5.24-3.93a5.24,5.24,0,0,1,0-1.65l2.06-1.11s3.58,3.59,5.24,5.31,3.1,3.93,4.82,2.28.83-4.69,0-7.24-1.65-3.73-1.65-4.69a12.43,12.43,0,0,1,1.31-5c1-2.21,1.83-5.73,1.33-7.31s-3.54-1.72-5.33.55-7,8.62-7,8.62l-2.83-.14a3.42,3.42,0,0,0-.18-2.72c-.76-1-3.47-.86-5.54-.11s-2.24,1.87-2.24,1.87l-13.64-2.57a4.46,4.46,0,0,0,0-3.23C572.31,284.57,566.24,280.3,562.66,280.09Z" transform="translate(-171.98 -216.53)"/><path class="f" d="M553,285.9c-5.68-.32-13.24.62-22.55,3.1s-14.89,5.17-13.85,7.65,8.68,2.9,8.68,3.72-6.41-1-7,0,0,3.52,7.45,5.59,11-.21,11.78-1.45,1.12-3.72,2.11-3.52.1,3.79-.66,4.9-1.58.76-1,1.51,13.23.83,19.78.62a79.24,79.24,0,0,0,12.41-1.1c3.27-.55,6.68-.82,16.34-2.83a83.44,83.44,0,0,0,10.35-2.75c.54-.22,2.06-1.11,2.06-1.11a6.72,6.72,0,0,0,1.21-3.67,4.22,4.22,0,0,0-2.45-3.77s-2.12-.08-2.83-.14c-2-.17-6-.65-8-1-3.42-.53-10.21-2-13.63-2.56C568.09,288.25,558.05,286.18,553,285.9Z" transform="translate(-171.98 -216.53)"/><path class="g" d="M524,291.67a1.2,1.2,0,0,1,.22-.79c1.81-.64,3.89-1.27,6.2-1.88,9.31-2.48,16.87-3.42,22.55-3.1,5.1.28,15.14,2.35,20.17,3.23,3.42.59,10.21,2,13.63,2.56,1,.16,2.44.35,3.91.53h0c1.75.95.64,1.63-2.88,1.94S560,290.43,548,290.43,524.27,293.51,524,291.67Z" transform="translate(-171.98 -216.53)"/><circle class="c" cx="355.63" cy="78.78" r="1.14"/><path class="e" d="M541.76,304.39c-.07-.78,1.5-1.5,3.62-2.48s4.47-2.05,5.28-1.24.49,4.58-1.66,4.86C545.8,305.94,541.88,305.67,541.76,304.39Z" transform="translate(-171.98 -216.53)"/></svg>