<?xml version="1.0" encoding="UTF-8" standalone="no"?>
<svg
   viewBox="0 0 328.27201 216.19"
   version="1.1"
   id="svg104"
   sodipodi:docname="marker.svg"
   inkscape:version="1.1 (ce6663b3b7, 2021-05-25)"
   width="328.272"
   height="216.19"
   xmlns:inkscape="http://www.inkscape.org/namespaces/inkscape"
   xmlns:sodipodi="http://sodipodi.sourceforge.net/DTD/sodipodi-0.dtd"
   xmlns="http://www.w3.org/2000/svg"
   xmlns:svg="http://www.w3.org/2000/svg"
   xmlns:rdf="http://www.w3.org/1999/02/22-rdf-syntax-ns#"
   xmlns:cc="http://creativecommons.org/ns#"
   xmlns:dc="http://purl.org/dc/elements/1.1/">
  <sodipodi:namedview
     id="namedview106"
     pagecolor="#ffffff"
     bordercolor="#666666"
     borderopacity="1.0"
     inkscape:pageshadow="2"
     inkscape:pageopacity="0.0"
     inkscape:pagecheckerboard="0"
     showgrid="false"
     inkscape:zoom="1.6085382"
     inkscape:cx="142.05445"
     inkscape:cy="211.99373"
     inkscape:window-width="1920"
     inkscape:window-height="1043"
     inkscape:window-x="3840"
     inkscape:window-y="1080"
     inkscape:window-maximized="1"
     inkscape:current-layer="svg104" />
  <defs
     id="defs4">
    <style
       id="style2">.a{fill:#be162f;}.b{fill:#0371b8;}.c{fill:#172938;}.d{fill:none;stroke:#172938;stroke-miterlimit:10;stroke-width:3.14px;}.e{fill:#bc1c31;}.f{fill:#a6c7e7;}.g{fill:#f9f2ea;}</style>
  </defs>
  <title
     id="title6">logo</title>
  <g
     id="g381"
     transform="translate(-226.4542)">
    <path
       class="b"
       d="m 499.83,278.15 v 84.15 c 0,7.61 5.47,30.84 31.43,36.9 25.96,6.06 31.24,16.8 31.24,16.8 0,0 5.27,-10.74 31.24,-16.79 25.97,-6.05 31.43,-29.29 31.43,-36.9 v -84.16 c 0,0 -18.55,-8.59 -62.67,-8.59 -44.12,0 -62.67,8.59 -62.67,8.59 z"
       transform="translate(-171.98,-216.53)"
       id="path38" />
    <path
       class="c"
       d="m 450.51,243 c 0.63,0.15 1,1.59 1.11,1.92 0.52,1.49 0,3.15 0.34,4.7 0.56,0.07 1.91,0.06 2.47,0.14 3.46,-2.49 2.63,-7.73 3.81,-11.17 1.78,2.48 2.46,9.07 1.36,11.32 -1.49,3 -4.15,3.95 -7.33,3.82 -2.25,-0.09 -4.5,-0.12 -6.74,-0.18 0,-0.3 0,-0.59 0,-0.89 2.21,-2.08 4,-4.35 4,-7.46 a 9.59,9.59 0 0 0 0.98,-2.2 z"
       transform="translate(-171.98,-216.53)"
       id="path40" />
    <path
       class="c"
       d="m 487.5,282.89 c -2,1.7 -5.22,2.46 -4.89,6.1 a 1.47,1.47 0 0 1 -0.8,1.17 c -5,1.25 -3.52,4.86 -3.36,8.33 0.33,7.22 0.2,14.46 0.25,21.68 l -1.92,1.31 h -0.48 -0.47 c 0,-4.74 0.33,-9.51 -0.07,-14.21 -0.2,-2.27 -1.5,-4.57 -2.72,-6.59 -2.58,-4.28 -0.58,-12 3.46,-14.78 2.11,-1.48 3.62,-4 4.93,-6.35 1.59,-2.83 2.69,-5.94 4,-8.93 0.62,0.52 1.74,1 1.78,1.57 0.23,3.55 0.22,7.13 0.29,10.7 z"
       transform="translate(-171.98,-216.53)"
       id="path42" />
    <path
       class="c"
       d="m 452.3,372.66 -1,2 -1.11,2.17 -0.71,1.67 c -1.3,1.26 -2.1,2.53 -0.12,3.88 l -0.12,0.15 3.35,6.1 -0.1,0.11 c 2,3 3.51,6.48 6,9 2.49,2.52 5.88,3.92 8.88,5.82 l -0.24,1.15 c -2.38,0.49 -4.81,1.55 -7.11,1.32 -2.66,-0.26 -5.42,-1.21 -5.41,-5.09 0,-3.09 -2.24,-3.38 -5.16,-2.34 0.77,-3.88 -1.14,-5.87 -4,-7.32 -0.92,-0.48 -1.67,-1.27 -2.59,-1.76 -5.3,-2.84 -7.32,-5.09 -5,-11.15 0.78,-2 1,-9.15 -2,-9.3 1.86,-6.69 1,-10.37 1,-13.58 2.27,-1.63 6.69,-3.24 9,-4.49 3.31,2.14 6.08,3.62 7.61,7 2.29,5.09 0.22,10.08 -1.17,14.66 z"
       transform="translate(-171.98,-216.53)"
       id="path44" />
    <path
       class="c"
       d="M 485.09,361.21 Z"
       transform="translate(-171.98,-216.53)"
       id="path46" />
    <path
       class="c"
       d="M 404.83,237 Z"
       transform="translate(-171.98,-216.53)"
       id="path48" />
    <path
       class="c"
       d="m 485.88,329 -0.9,-0.86 -0.87,-0.59 -2.18,-0.23 -4.55,-0.33 -2.71,-0.64 -1.87,-0.72 -1.34,-0.78 c -0.3,-0.38 -0.94,-1 -0.86,-1.11 3.21,-4.76 0.34,-9.66 0.56,-14.43 0.29,-6.4 -3.45,-9.88 -6.94,-14 -1.05,-1.23 -0.59,-3.63 -1.25,-5.32 -0.66,-1.69 -2.41,-3.36 -2.77,-5.2 -0.21,-1.1 0.67,-3.81 1.77,-4.56 0.63,-0.42 2.67,-0.42 3.31,0.42 1.69,2.2 3.78,2.83 5.85,1.86 1.67,-0.8 3.91,-1.07 5.63,-1.76 0.78,-5.79 0.4,-7.93 -6.15,-10.72 a 20.76,20.76 0 0 1 -2.61,-1.6 0.56,0.56 0 0 1 -0.64,-0.08 L 451,263.06 c 0.06,-0.47 0.13,-0.94 0.19,-1.4 l 16.21,-2.91 0.28,-0.16 h 0.31 l 1.4,-1.07 1.07,-0.85 c 0.48,-1.27 1,-2.55 1.43,-3.82 -0.16,-0.18 -0.33,-0.35 -0.49,-0.51 l -4.11,1.83 v -9.9 l -2.13,3 a 9,9 0 0 1 -7.49,8.85 46.76,46.76 0 0 1 -14.88,0.6 c -6.32,-0.8 -8.72,-4 -8.83,-10.3 a 50,50 0 0 1 0.95,-7.54 v -3.09 l -2,1 L 432,238 c -1,2.31 -2,4.63 -3.53,8.13 -2.06,-4.73 -3.7,-8.25 -1.84,-12.41 l 0.32,-3.1 c -0.1,-0.69 -0.21,-1.38 -0.31,-2.07 h -0.05 l -2,1.08 -0.8,1.18 -4,12.93 -0.92,0.35 c -0.78,-2.06 -1.8,-3.36 -2.58,-5.42 -0.09,-1 0.06,-2.82 0,-3.84 -0.18,-4.61 -0.08,-5.34 -1.42,-5.69 a 5.72,5.72 0 0 1 -0.85,1.52 c -0.65,4.86 -1.29,9.71 -2,15 -3.17,-1.71 -4.2,-3.28 -4.92,-7 l -0.82,-2.76 a 1.71,1.71 0 0 0 -1.35,1.17 c 0.87,5 1.73,10 2.68,15.43 -2.23,-1.14 -4.46,-3 -6.36,-4 -0.65,3.12 1.92,5.61 3.86,7.24 1.69,1.41 3.59,2.58 5.4,3.85 l 1.53,0.37 7.32,2.08 2.05,0.29 6.31,0.77 5.18,0.41 5.15,2.13 -8.21,7.83 0.08,2.06 -1.05,2.33 c -0.55,0.7 -1.11,1.4 -1.66,2.11 -0.73,3.28 -1.57,6.55 -2.11,9.86 a 5.25,5.25 0 0 0 0.78,3.24 c 2,3.37 2.48,6.8 0.54,10.27 -1.67,3 -2,5.67 0.25,8.64 a 18.38,18.38 0 0 1 2.48,5.7 c 1.95,6.1 0.77,8.69 -4.7,12.07 -5.47,3.38 -11,7.16 -16.52,10.76 a 19,19 0 0 0 -1.7,12.15 c 0.9,4.76 2.23,9.44 3,14.22 0.26,1.62 0,3.92 -1,5 -3,3.31 -6.46,6.18 -9.74,9.23 0.11,1.59 -0.4,3.71 0.43,4.69 3.44,4 4.3,6.54 4.39,11.16 0,1.9 -2,5.33 -2,7.23 5.11,-1 3.27,3.3 3.33,5.38 0.08,3.11 1,6.31 3.83,7.66 3.18,1.51 4.86,-1.08 6.91,-2.63 A 46.94,46.94 0 0 1 407.7,387 c 0.4,-3.88 1.26,-4.13 5.67,-5.5 a 72.06,72.06 0 0 0 11.4,-5 c 5.31,-2.72 8.57,-6.84 8.38,-13.22 -0.07,-2.57 -0.48,-6.56 0.06,-9.07 0.3,-1.37 1.9,-1.81 3,-2.32 3.66,-1.65 7.55,-2.8 11.34,-4.14 l 9,-5.38 1.34,-1 1.68,-1.13 1.31,-1 v 0 L 462,338 l 2,-1.92 c 1.91,-2.37 4.15,-3.21 6.55,-2 0.67,0.1 2.29,0.44 3,0.55 1.79,0.57 3.95,0.49 5.31,1.79 0.93,0.89 1.21,2.86 1.65,4.07 a 20.54,20.54 0 0 1 0.64,2.71 c 0.05,0.31 -3.27,2.78 -3.24,3.09 0.03,0.31 4,-0.67 4.05,-0.32 a 11.37,11.37 0 0 1 -0.31,3.82 c -0.72,1.92 -0.63,4.5 -0.72,6.62 a 24.2,24.2 0 0 0 2,3.16 11,11 0 0 0 2.27,1.63 c 0,-0.39 -0.1,-1.87 -0.05,-2.2 0.29,-2.08 0.55,-2.84 0.83,-4.92 -0.93,-2.06 -1.08,-4.2 0.88,-5.73 0.06,-5.86 0.46,-11.59 0.52,-17.45 z m -16.56,-53.33 c 0.47,-0.59 2.71,0.56 3.05,0.73 0.87,0.44 1.68,0.85 1.7,1.5 0.02,0.65 -0.94,1.5 -1.81,1.55 -1.85,0.14 -3.49,-3.06 -2.94,-3.74 z m -18.1,-5.63 c -1.71,0.94 -4.4,-0.59 -4.39,-1.66 0,-0.83 1.65,-1.55 2.84,-1.7 0.34,-0.05 2.28,-0.3 2.79,0.72 0.42,0.88 -0.32,2.17 -1.24,2.68 z"
       transform="translate(-171.98,-216.53)"
       id="path50" />
    <path
       class="c"
       d="m 674.49,243 c -0.63,0.15 -1,1.59 -1.11,1.92 -0.52,1.49 0,3.15 -0.34,4.7 -0.56,0.07 -1.91,0.06 -2.47,0.14 -3.46,-2.49 -2.63,-7.73 -3.81,-11.17 -1.78,2.48 -2.46,9.07 -1.36,11.32 1.49,3 4.15,3.95 7.33,3.82 2.25,-0.09 4.5,-0.12 6.74,-0.18 0,-0.3 0,-0.59 0,-0.89 -2.21,-2.08 -4,-4.35 -4,-7.46 a 9.59,9.59 0 0 1 -0.98,-2.2 z"
       transform="translate(-171.98,-216.53)"
       id="path52" />
    <path
       class="c"
       d="m 637.5,282.89 c 2,1.7 5.22,2.46 4.89,6.1 a 1.47,1.47 0 0 0 0.8,1.17 c 5,1.25 3.52,4.86 3.36,8.33 -0.33,7.22 -0.2,14.46 -0.25,21.68 l 1.92,1.31 h 0.48 0.47 c 0,-4.74 -0.33,-9.51 0.07,-14.21 0.2,-2.27 1.5,-4.57 2.72,-6.59 2.58,-4.28 0.58,-12 -3.46,-14.78 -2.11,-1.48 -3.62,-4 -4.93,-6.35 -1.59,-2.83 -2.69,-5.94 -4,-8.93 -0.62,0.52 -1.74,1 -1.78,1.57 -0.23,3.55 -0.22,7.13 -0.29,10.7 z"
       transform="translate(-171.98,-216.53)"
       id="path54" />
    <path
       class="c"
       d="m 672.7,372.66 c 0.33,0.67 0.66,1.33 1,2 l 1.11,2.17 0.71,1.67 c 1.3,1.26 2.1,2.53 0.12,3.88 l 0.12,0.15 -3.35,6.1 0.1,0.11 c -2,3 -3.51,6.48 -6,9 -2.49,2.52 -5.88,3.92 -8.88,5.82 l 0.24,1.15 c 2.38,0.49 4.81,1.55 7.11,1.32 2.66,-0.26 5.42,-1.21 5.41,-5.09 0,-3.09 2.24,-3.38 5.16,-2.34 -0.77,-3.88 1.14,-5.87 4,-7.32 0.92,-0.48 1.67,-1.27 2.59,-1.76 5.3,-2.84 7.32,-5.09 5,-11.15 -0.78,-2 -1,-9.15 2,-9.3 -1.86,-6.69 -1,-10.37 -1,-13.58 -2.27,-1.63 -6.69,-3.24 -9,-4.49 -3.31,2.14 -6.08,3.62 -7.61,7 -2.29,5.09 -0.22,10.08 1.17,14.66 z"
       transform="translate(-171.98,-216.53)"
       id="path56" />
    <path
       class="c"
       d="M 639.91,361.21 Z"
       transform="translate(-171.98,-216.53)"
       id="path58" />
    <path
       class="c"
       d="M 720.17,237 Z"
       transform="translate(-171.98,-216.53)"
       id="path60" />
    <path
       class="c"
       d="m 637.74,330.91 c 0.06,5.86 0.46,11.59 0.52,17.45 2,1.53 1.81,3.67 0.88,5.73 0.28,2.08 0.54,2.84 0.83,4.92 0,0.33 -0.09,1.81 -0.05,2.2 a 11,11 0 0 0 2.27,-1.63 24.2,24.2 0 0 0 2,-3.16 c -0.09,-2.12 0,-4.7 -0.72,-6.62 a 11.37,11.37 0 0 1 -0.31,-3.82 c 0,-0.35 4,0.66 4,0.32 0,-0.34 -3.29,-2.78 -3.24,-3.09 a 20.54,20.54 0 0 1 0.64,-2.71 c 0.44,-1.21 0.72,-3.18 1.65,-4.07 1.36,-1.3 3.52,-1.22 5.31,-1.79 0.67,-0.11 2.29,-0.45 3,-0.55 2.4,-1.26 4.64,-0.42 6.55,2 l 2,1.92 1.1,1.17 v 0 l 1.31,1 1.68,1.13 1.34,1 9,5.38 c 3.79,1.34 7.68,2.49 11.34,4.14 1.12,0.51 2.72,0.95 3,2.32 0.54,2.51 0.13,6.5 0.06,9.07 -0.19,6.38 3.07,10.5 8.38,13.22 a 72.06,72.06 0 0 0 11.4,5 c 4.41,1.37 5.27,1.62 5.67,5.5 a 46.94,46.94 0 0 1 -7.59,27.64 c 2,1.55 3.73,4.14 6.91,2.63 2.81,-1.35 3.75,-4.55 3.83,-7.66 0.06,-2.08 -1.78,-6.34 3.33,-5.38 0,-1.9 -2,-5.33 -2,-7.23 0.09,-4.62 1,-7.14 4.39,-11.16 0.83,-1 0.32,-3.1 0.43,-4.69 -3.28,-3.05 -6.75,-5.92 -9.74,-9.23 -1,-1.11 -1.29,-3.41 -1,-5 0.77,-4.78 2.1,-9.46 3,-14.22 a 19,19 0 0 0 -1.7,-12.15 c -5.5,-3.6 -10.93,-7.31 -16.52,-10.76 -5.59,-3.45 -6.65,-6 -4.7,-12.07 a 18.38,18.38 0 0 1 2.48,-5.7 c 2.28,-3 1.92,-5.65 0.25,-8.64 -1.94,-3.47 -1.48,-6.9 0.54,-10.27 a 5.25,5.25 0 0 0 0.78,-3.24 c -0.54,-3.31 -1.38,-6.58 -2.11,-9.86 -0.55,-0.71 -1.11,-1.41 -1.66,-2.11 l -1.05,-2.33 0.08,-2.06 -8.3,-7.84 5.15,-2.13 5.18,-0.41 6.31,-0.77 2.05,-0.29 7.32,-2.08 1.53,-0.37 c 1.81,-1.27 3.71,-2.44 5.4,-3.85 1.94,-1.63 4.51,-4.12 3.86,-7.24 -1.9,1 -4.13,2.84 -6.36,4 0.95,-5.46 1.81,-10.44 2.68,-15.43 a 1.71,1.71 0 0 0 -1.35,-1.17 l -0.82,2.76 c -0.72,3.68 -1.75,5.25 -4.92,7 -0.7,-5.26 -1.34,-10.11 -2,-15 a 5.72,5.72 0 0 1 -0.85,-1.52 c -1.34,0.35 -1.24,1.08 -1.42,5.69 -0.09,1 0.06,2.81 0,3.84 C 708,240.67 707,242 706.2,244 l -0.92,-0.35 -4,-12.93 -0.8,-1.18 -2,-1.08 h -0.05 c -0.1,0.69 -0.21,1.38 -0.31,2.07 l 0.32,3.1 c 1.86,4.16 0.22,7.68 -1.84,12.41 C 695,242.62 694,240.3 693,238 l -0.9,-1.18 -2,-1 v 3.09 a 50,50 0 0 1 0.95,7.54 c -0.11,6.26 -2.51,9.5 -8.83,10.3 a 46.76,46.76 0 0 1 -14.88,-0.6 9,9 0 0 1 -7.49,-8.85 l -2.13,-3 v 9.9 l -4.11,-1.83 c -0.16,0.16 -0.33,0.33 -0.49,0.51 0.47,1.27 1,2.55 1.43,3.82 l 1.07,0.85 1.4,1.07 h 0.31 l 0.28,0.16 16.21,2.91 c 0.06,0.46 0.13,0.93 0.19,1.4 l -16.38,5.32 a 0.56,0.56 0 0 1 -0.64,0.08 20.76,20.76 0 0 1 -2.61,1.6 c -6.55,2.79 -6.93,4.93 -6.15,10.72 1.72,0.69 4,1 5.63,1.76 2.07,1 4.16,0.34 5.85,-1.86 0.64,-0.84 2.68,-0.84 3.31,-0.42 1.1,0.75 2,3.46 1.77,4.56 -0.36,1.84 -2,3.37 -2.77,5.2 -0.77,1.83 -0.2,4.09 -1.25,5.32 -3.49,4.13 -7.23,7.61 -6.94,14 0.22,4.77 -2.65,9.67 0.56,14.43 0.08,0.12 -0.56,0.73 -0.86,1.11 l -1.34,0.78 -1.87,0.72 -2.71,0.64 -4.55,0.33 -2.18,0.23 -0.87,0.59 -0.9,0.86 z m 15,-51.42 c -0.87,-0.05 -1.84,-0.83 -1.81,-1.55 0.03,-0.72 0.83,-1.06 1.7,-1.5 0.34,-0.17 2.58,-1.32 3,-0.73 0.42,0.59 -1.04,3.88 -2.89,3.78 z m 19.8,-12.05 c 0.51,-1 2.45,-0.77 2.79,-0.72 1.19,0.15 2.84,0.87 2.84,1.7 0,1.07 -2.68,2.6 -4.39,1.66 -0.92,-0.51 -1.66,-1.8 -1.24,-2.64 z"
       transform="translate(-171.98,-216.53)"
       id="path62" />
    <path
       class="c"
       d="m 633.64,359.1 v -88.31 c -22.75,-9.93 -71.14,-10.45 -71.14,-10.45 0,0 -48.39,0.52 -71.14,10.45 v 88.31 c 0,8.82 -0.55,35.43 31.71,45.91 32.26,10.48 36.53,19.3 39.43,27.71 2.9,-8.41 7.17,-17.23 39.43,-27.71 32.26,-10.48 31.71,-37.09 31.71,-45.91 z m -4.75,4.13 c 0,8.07 -5.79,32.68 -33.3,39.09 -27.51,6.41 -33.09,17.78 -33.09,17.78 0,0 -5.58,-11.37 -33.09,-17.78 -27.51,-6.41 -33.3,-31 -33.3,-39.09 V 274.1 c 0,0 19.65,-9.1 66.39,-9.1 46.74,0 66.39,9.1 66.39,9.1 z"
       transform="translate(-171.98,-216.53)"
       id="path64" />
    <path
       class="c"
       d="m 622.48,237.63 c 0,0 -14.62,17.09 -34.75,9.1 -20.13,-7.99 -20.6,-30.2 -20.6,-30.2 h -9.26 c 0,0 -0.47,22.2 -20.6,30.2 -20.13,8 -34.75,-9.1 -34.75,-9.1 H 484.88 L 486,238 a 8.18,8.18 0 0 1 5.4,7.69 v 20.18 c 0,0 11.49,-4.1 33.69,-7.41 22.2,-3.31 37.45,-2.93 37.45,-2.93 0,0 15.26,-0.38 37.45,2.93 22.19,3.31 33.69,7.41 33.69,7.41 V 245.71 A 8.18,8.18 0 0 1 639,238 l 1.08,-0.39 z"
       transform="translate(-171.98,-216.53)"
       id="path66" />
    <path
       class="d"
       d="m 563.74,315.25 c 3.51,-0.2 9.72,5.79 9.72,5.79 0,0 13.24,0.62 22.54,3.1 9.3,2.48 14.89,5.17 13.86,7.66 -1.03,2.49 -8.69,2.89 -8.69,3.72 0,0.83 6.41,-1 7,0 0.59,1 0,3.51 -7.45,5.58 -7.45,2.07 -11,-0.2 -11.79,-1.45 -0.79,-1.25 -1.12,-3.72 -2.11,-3.51 -0.99,0.21 -0.09,3.79 0.66,4.89 0.75,1.1 1.59,0.76 1,1.52 -0.59,0.76 -13.24,0.83 -19.79,0.62 a 118.51,118.51 0 0 1 -12.41,-1.1 c 0,0 -2.82,2.89 -8.47,2.62 -5.65,-0.27 -5.45,-1.24 -5.52,-2.48 a 4.55,4.55 0 0 1 1,-2.56 l -3.31,-0.41 c 0,0 -2.69,2.76 -5.1,2.83 -2.41,0.07 -5.38,-3 -5.24,-3.93 a 5.7,5.7 0 0 0 0,-1.66 l -2.06,-1.1 c 0,0 -3.59,3.59 -5.24,5.31 -1.65,1.72 -3.1,3.93 -4.83,2.27 -1.73,-1.66 -0.82,-4.68 0,-7.23 0.82,-2.55 1.66,-3.73 1.66,-4.69 a 12.5,12.5 0 0 0 -1.31,-5 c -1,-2.2 -1.83,-5.72 -1.33,-7.3 0.5,-1.58 3.53,-1.73 5.33,0.55 1.8,2.28 7,8.62 7,8.62 l 2.83,-0.14 a 3.42,3.42 0 0 1 0.18,-2.72 c 0.75,-1 3.47,-0.87 5.54,-0.11 2.07,0.76 2.24,1.87 2.24,1.87 l 13.64,-2.57 a 4.41,4.41 0 0 1 0,-3.23 c 0.8,-1.28 6.87,-5.55 10.45,-5.76 z"
       transform="translate(-171.98,-216.53)"
       id="path68" />
    <path
       class="e"
       d="m 563.74,315.25 c 3.51,-0.2 9.72,5.79 9.72,5.79 0,0 13.24,0.62 22.54,3.1 9.3,2.48 14.89,5.17 13.86,7.66 -1.03,2.49 -8.69,2.89 -8.69,3.72 0,0.83 6.41,-1 7,0 0.59,1 0,3.51 -7.45,5.58 -7.45,2.07 -11,-0.2 -11.79,-1.45 -0.79,-1.25 -1.12,-3.72 -2.11,-3.51 -0.99,0.21 -0.09,3.79 0.66,4.89 0.75,1.1 1.59,0.76 1,1.52 -0.59,0.76 -13.24,0.83 -19.79,0.62 a 118.51,118.51 0 0 1 -12.41,-1.1 c 0,0 -2.82,2.89 -8.47,2.62 -5.65,-0.27 -5.45,-1.24 -5.52,-2.48 a 4.55,4.55 0 0 1 1,-2.56 l -3.31,-0.41 c 0,0 -2.69,2.76 -5.1,2.83 -2.41,0.07 -5.38,-3 -5.24,-3.93 a 5.7,5.7 0 0 0 0,-1.66 l -2.06,-1.1 c 0,0 -3.59,3.59 -5.24,5.31 -1.65,1.72 -3.1,3.93 -4.83,2.27 -1.73,-1.66 -0.82,-4.68 0,-7.23 0.82,-2.55 1.66,-3.73 1.66,-4.69 a 12.5,12.5 0 0 0 -1.31,-5 c -1,-2.2 -1.83,-5.72 -1.33,-7.3 0.5,-1.58 3.53,-1.73 5.33,0.55 1.8,2.28 7,8.62 7,8.62 l 2.83,-0.14 a 3.42,3.42 0 0 1 0.18,-2.72 c 0.75,-1 3.47,-0.87 5.54,-0.11 2.07,0.76 2.24,1.87 2.24,1.87 l 13.64,-2.57 a 4.41,4.41 0 0 1 0,-3.23 c 0.8,-1.28 6.87,-5.55 10.45,-5.76 z"
       transform="translate(-171.98,-216.53)"
       id="path70" />
    <path
       class="f"
       d="m 573.45,321.05 c 5.68,-0.31 13.24,0.62 22.54,3.11 9.3,2.49 14.89,5.17 13.86,7.65 -1.03,2.48 -8.69,2.89 -8.69,3.72 0,0.83 6.42,-1 7,0 0.58,1 0,3.52 -7.45,5.58 -7.45,2.06 -11,-0.2 -11.79,-1.44 -0.79,-1.24 -1.12,-3.73 -2.11,-3.52 -0.99,0.21 -0.09,3.79 0.66,4.9 0.75,1.11 1.59,0.75 1,1.51 -0.59,0.76 -13.24,0.83 -19.79,0.62 a 79.37,79.37 0 0 1 -12.41,-1.1 c -3.26,-0.55 -6.67,-0.82 -16.33,-2.83 a 83.44,83.44 0 0 1 -10.35,-2.75 c -0.54,-0.22 -2.06,-1.11 -2.06,-1.11 a 6.77,6.77 0 0 1 -1.21,-3.67 4.22,4.22 0 0 1 2.45,-3.77 c 0,0 2.12,-0.08 2.83,-0.14 2,-0.17 6,-0.65 8,-1 3.43,-0.54 10.22,-2 13.64,-2.57 5.07,-0.83 15.11,-2.9 20.21,-3.19 z"
       transform="translate(-171.98,-216.53)"
       id="path72" />
    <path
       class="g"
       d="m 602.41,326.83 a 1.24,1.24 0 0 0 -0.21,-0.79 c -1.81,-0.64 -3.89,-1.27 -6.21,-1.88 -9.3,-2.49 -16.86,-3.42 -22.54,-3.11 -5.1,0.29 -15.14,2.36 -20.17,3.23 -3.42,0.6 -10.21,2 -13.64,2.57 -1,0.15 -2.44,0.35 -3.91,0.52 v 0 c -1.74,1 -0.63,1.63 2.88,1.94 3.51,0.31 27.82,-3.72 39.81,-3.72 11.99,0 23.7,3.08 23.99,1.24 z"
       transform="translate(-171.98,-216.53)"
       id="path74" />
    <circle
       class="c"
       cx="426.82001"
       cy="113.94"
       r="1.14"
       id="circle76" />
    <path
       class="e"
       d="m 584.63,339.55 c 0.07,-0.78 -1.49,-1.5 -3.62,-2.48 -2.13,-0.98 -4.46,-2.06 -5.27,-1.24 -0.81,0.82 -0.49,4.58 1.65,4.86 3.21,0.41 7.13,0.14 7.24,-1.14 z"
       transform="translate(-171.98,-216.53)"
       id="path78" />
    <path
       class="d"
       d="m 562.66,352.68 c -3.51,-0.2 -9.72,5.79 -9.72,5.79 0,0 -13.24,0.63 -22.55,3.11 -9.31,2.48 -14.89,5.17 -13.85,7.65 1.04,2.48 8.68,2.89 8.68,3.72 0,0.83 -6.41,-1 -7,0 -0.59,1 0,3.52 7.45,5.59 7.45,2.07 11,-0.21 11.78,-1.45 0.78,-1.24 1.12,-3.72 2.12,-3.52 1,0.2 0.09,3.79 -0.67,4.9 -0.76,1.11 -1.58,0.75 -1,1.51 0.58,0.76 13.23,0.83 19.78,0.62 A 115.41,115.41 0 0 0 570,379.5 c 0,0 2.83,2.9 8.48,2.62 5.65,-0.28 5.45,-1.24 5.52,-2.48 a 4.54,4.54 0 0 0 -1,-2.55 l 3.31,-0.42 c 0,0 2.69,2.76 5.1,2.83 2.41,0.07 5.38,-3 5.24,-3.93 a 5.24,5.24 0 0 1 0,-1.65 l 2.06,-1.11 c 0,0 3.58,3.59 5.24,5.31 1.66,1.72 3.1,3.93 4.82,2.28 1.72,-1.65 0.83,-4.69 0,-7.24 -0.83,-2.55 -1.65,-3.72 -1.65,-4.69 a 12.47,12.47 0 0 1 1.31,-5 c 1,-2.21 1.83,-5.72 1.33,-7.31 -0.5,-1.59 -3.54,-1.72 -5.33,0.55 -1.79,2.27 -7,8.62 -7,8.62 l -2.83,-0.14 a 3.4,3.4 0 0 0 -0.18,-2.71 c -0.76,-1 -3.47,-0.87 -5.54,-0.12 -2.07,0.75 -2.24,1.87 -2.24,1.87 L 573,361.67 a 4.49,4.49 0 0 0 0,-3.24 c -0.69,-1.27 -6.76,-5.54 -10.34,-5.75 z"
       transform="translate(-171.98,-216.53)"
       id="path80" />
    <path
       class="e"
       d="m 562.66,352.68 c -3.51,-0.2 -9.72,5.79 -9.72,5.79 0,0 -13.24,0.63 -22.55,3.11 -9.31,2.48 -14.89,5.17 -13.85,7.65 1.04,2.48 8.68,2.89 8.68,3.72 0,0.83 -6.41,-1 -7,0 -0.59,1 0,3.52 7.45,5.59 7.45,2.07 11,-0.21 11.78,-1.45 0.78,-1.24 1.12,-3.72 2.12,-3.52 1,0.2 0.09,3.79 -0.67,4.9 -0.76,1.11 -1.58,0.75 -1,1.51 0.58,0.76 13.23,0.83 19.78,0.62 A 115.41,115.41 0 0 0 570,379.5 c 0,0 2.83,2.9 8.48,2.62 5.65,-0.28 5.45,-1.24 5.52,-2.48 a 4.54,4.54 0 0 0 -1,-2.55 l 3.31,-0.42 c 0,0 2.69,2.76 5.1,2.83 2.41,0.07 5.38,-3 5.24,-3.93 a 5.24,5.24 0 0 1 0,-1.65 l 2.06,-1.11 c 0,0 3.58,3.59 5.24,5.31 1.66,1.72 3.1,3.93 4.82,2.28 1.72,-1.65 0.83,-4.69 0,-7.24 -0.83,-2.55 -1.65,-3.72 -1.65,-4.69 a 12.47,12.47 0 0 1 1.31,-5 c 1,-2.21 1.83,-5.72 1.33,-7.31 -0.5,-1.59 -3.54,-1.72 -5.33,0.55 -1.79,2.27 -7,8.62 -7,8.62 l -2.83,-0.14 a 3.4,3.4 0 0 0 -0.18,-2.71 c -0.76,-1 -3.47,-0.87 -5.54,-0.12 -2.07,0.75 -2.24,1.87 -2.24,1.87 L 573,361.67 a 4.49,4.49 0 0 0 0,-3.24 c -0.69,-1.27 -6.76,-5.54 -10.34,-5.75 z"
       transform="translate(-171.98,-216.53)"
       id="path82" />
    <path
       class="f"
       d="m 553,358.49 c -5.68,-0.32 -13.24,0.62 -22.55,3.1 -9.31,2.48 -14.89,5.17 -13.85,7.65 1.04,2.48 8.68,2.9 8.68,3.72 0,0.82 -6.41,-1 -7,0 -0.59,1 0,3.52 7.45,5.59 7.45,2.07 11,-0.21 11.78,-1.45 0.78,-1.24 1.12,-3.72 2.11,-3.52 0.99,0.2 0.1,3.79 -0.66,4.9 -0.76,1.11 -1.58,0.76 -1,1.51 0.58,0.75 13.23,0.83 19.78,0.63 A 80.17,80.17 0 0 0 570,379.51 c 3.27,-0.55 6.68,-0.82 16.34,-2.82 a 85.27,85.27 0 0 0 10.35,-2.76 c 0.54,-0.22 2.06,-1.1 2.06,-1.1 a 6.78,6.78 0 0 0 1.21,-3.68 4.22,4.22 0 0 0 -2.45,-3.77 c 0,0 -2.12,-0.08 -2.83,-0.14 -2,-0.17 -6,-0.65 -8,-1 -3.42,-0.53 -10.21,-2 -13.63,-2.56 -4.96,-0.84 -15,-2.91 -20.05,-3.19 z"
       transform="translate(-171.98,-216.53)"
       id="path84" />
    <path
       class="g"
       d="m 524,364.27 a 1.21,1.21 0 0 1 0.22,-0.8 c 1.81,-0.64 3.89,-1.26 6.2,-1.88 9.31,-2.48 16.87,-3.42 22.55,-3.1 5.1,0.28 15.14,2.35 20.17,3.23 3.42,0.59 10.21,2 13.63,2.56 1,0.16 2.44,0.35 3.91,0.53 v 0 c 1.75,0.95 0.64,1.63 -2.88,1.94 C 584.28,367.06 560,363 548,363 c -12,0 -23.73,3.1 -24,1.27 z"
       transform="translate(-171.98,-216.53)"
       id="path86" />
    <circle
       class="c"
       cx="355.63"
       cy="151.37"
       r="1.14"
       id="circle88" />
    <path
       class="e"
       d="m 541.76,377 c -0.07,-0.78 1.5,-1.5 3.62,-2.48 2.12,-0.98 4.47,-2.05 5.28,-1.24 0.81,0.81 0.49,4.59 -1.66,4.86 -3.2,0.4 -7.12,0.12 -7.24,-1.14 z"
       transform="translate(-171.98,-216.53)"
       id="path90" />
    <path
       class="d"
       d="m 562.66,280.09 c -3.51,-0.2 -9.72,5.79 -9.72,5.79 0,0 -13.24,0.62 -22.55,3.11 -9.31,2.49 -14.89,5.17 -13.85,7.65 1.04,2.48 8.68,2.89 8.68,3.72 0,0.83 -6.41,-1 -7,0 -0.59,1 0,3.52 7.45,5.58 7.45,2.06 11,-0.2 11.78,-1.44 0.78,-1.24 1.12,-3.73 2.12,-3.52 1,0.21 0.09,3.79 -0.67,4.9 -0.76,1.11 -1.58,0.75 -1,1.51 0.58,0.76 13.23,0.83 19.78,0.62 a 115.41,115.41 0 0 0 12.41,-1.1 c 0,0 2.83,2.9 8.48,2.62 5.65,-0.28 5.45,-1.24 5.52,-2.48 a 4.54,4.54 0 0 0 -1,-2.55 l 3.31,-0.42 c 0,0 2.69,2.76 5.1,2.83 2.41,0.07 5.38,-3 5.24,-3.93 a 5.24,5.24 0 0 1 0,-1.65 l 2.06,-1.11 c 0,0 3.58,3.59 5.24,5.31 1.66,1.72 3.1,3.93 4.82,2.28 1.72,-1.65 0.83,-4.69 0,-7.24 -0.83,-2.55 -1.65,-3.73 -1.65,-4.69 a 12.43,12.43 0 0 1 1.31,-5 c 1,-2.21 1.83,-5.73 1.33,-7.31 -0.5,-1.58 -3.54,-1.72 -5.33,0.55 -1.79,2.27 -7,8.62 -7,8.62 l -2.83,-0.14 a 3.42,3.42 0 0 0 -0.18,-2.72 c -0.76,-1 -3.47,-0.86 -5.54,-0.11 -2.07,0.75 -2.24,1.87 -2.24,1.87 l -13.64,-2.57 a 4.46,4.46 0 0 0 0,-3.23 c -0.78,-1.27 -6.85,-5.54 -10.43,-5.75 z"
       transform="translate(-171.98,-216.53)"
       id="path92" />
    <path
       class="e"
       d="m 562.66,280.09 c -3.51,-0.2 -9.72,5.79 -9.72,5.79 0,0 -13.24,0.62 -22.55,3.11 -9.31,2.49 -14.89,5.17 -13.85,7.65 1.04,2.48 8.68,2.89 8.68,3.72 0,0.83 -6.41,-1 -7,0 -0.59,1 0,3.52 7.45,5.58 7.45,2.06 11,-0.2 11.78,-1.44 0.78,-1.24 1.12,-3.73 2.12,-3.52 1,0.21 0.09,3.79 -0.67,4.9 -0.76,1.11 -1.58,0.75 -1,1.51 0.58,0.76 13.23,0.83 19.78,0.62 a 115.41,115.41 0 0 0 12.41,-1.1 c 0,0 2.83,2.9 8.48,2.62 5.65,-0.28 5.45,-1.24 5.52,-2.48 a 4.54,4.54 0 0 0 -1,-2.55 l 3.31,-0.42 c 0,0 2.69,2.76 5.1,2.83 2.41,0.07 5.38,-3 5.24,-3.93 a 5.24,5.24 0 0 1 0,-1.65 l 2.06,-1.11 c 0,0 3.58,3.59 5.24,5.31 1.66,1.72 3.1,3.93 4.82,2.28 1.72,-1.65 0.83,-4.69 0,-7.24 -0.83,-2.55 -1.65,-3.73 -1.65,-4.69 a 12.43,12.43 0 0 1 1.31,-5 c 1,-2.21 1.83,-5.73 1.33,-7.31 -0.5,-1.58 -3.54,-1.72 -5.33,0.55 -1.79,2.27 -7,8.62 -7,8.62 l -2.83,-0.14 a 3.42,3.42 0 0 0 -0.18,-2.72 c -0.76,-1 -3.47,-0.86 -5.54,-0.11 -2.07,0.75 -2.24,1.87 -2.24,1.87 l -13.64,-2.57 a 4.46,4.46 0 0 0 0,-3.23 c -0.78,-1.27 -6.85,-5.54 -10.43,-5.75 z"
       transform="translate(-171.98,-216.53)"
       id="path94" />
    <path
       class="f"
       d="m 553,285.9 c -5.68,-0.32 -13.24,0.62 -22.55,3.1 -9.31,2.48 -14.89,5.17 -13.85,7.65 1.04,2.48 8.68,2.9 8.68,3.72 0,0.82 -6.41,-1 -7,0 -0.59,1 0,3.52 7.45,5.59 7.45,2.07 11,-0.21 11.78,-1.45 0.78,-1.24 1.12,-3.72 2.11,-3.52 0.99,0.2 0.1,3.79 -0.66,4.9 -0.76,1.11 -1.58,0.76 -1,1.51 0.58,0.75 13.23,0.83 19.78,0.62 a 79.24,79.24 0 0 0 12.41,-1.1 c 3.27,-0.55 6.68,-0.82 16.34,-2.83 a 83.44,83.44 0 0 0 10.35,-2.75 c 0.54,-0.22 2.06,-1.11 2.06,-1.11 a 6.72,6.72 0 0 0 1.21,-3.67 4.22,4.22 0 0 0 -2.45,-3.77 c 0,0 -2.12,-0.08 -2.83,-0.14 -2,-0.17 -6,-0.65 -8,-1 -3.42,-0.53 -10.21,-2 -13.63,-2.56 -5.11,-0.84 -15.15,-2.91 -20.2,-3.19 z"
       transform="translate(-171.98,-216.53)"
       id="path96" />
    <path
       class="g"
       d="m 524,291.67 a 1.2,1.2 0 0 1 0.22,-0.79 c 1.81,-0.64 3.89,-1.27 6.2,-1.88 9.31,-2.48 16.87,-3.42 22.55,-3.1 5.1,0.28 15.14,2.35 20.17,3.23 3.42,0.59 10.21,2 13.63,2.56 1,0.16 2.44,0.35 3.91,0.53 v 0 c 1.75,0.95 0.64,1.63 -2.88,1.94 -3.52,0.31 -27.8,-3.73 -39.8,-3.73 -12,0 -23.73,3.08 -24,1.24 z"
       transform="translate(-171.98,-216.53)"
       id="path98" />
    <circle
       class="c"
       cx="355.63"
       cy="78.779999"
       r="1.14"
       id="circle100" />
    <path
       class="e"
       d="m 541.76,304.39 c -0.07,-0.78 1.5,-1.5 3.62,-2.48 2.12,-0.98 4.47,-2.05 5.28,-1.24 0.81,0.81 0.49,4.58 -1.66,4.86 -3.2,0.41 -7.12,0.14 -7.24,-1.14 z"
       transform="translate(-171.98,-216.53)"
       id="path102" />
  </g>
  <metadata
     id="metadata399">
    <rdf:RDF>
      <cc:Work
         rdf:about="">
        <dc:title>logo</dc:title>
      </cc:Work>
    </rdf:RDF>
  </metadata>
</svg>
