<?xml version="1.0" encoding="utf-8"?>
<!-- Generator: Adobe Illustrator 23.0.1, SVG Export Plug-In . SVG Version: 6.00 Build 0)  -->
<svg version="1.1" id="Layer_1" xmlns="http://www.w3.org/2000/svg" xmlns:xlink="http://www.w3.org/1999/xlink" x="0px" y="0px"
	 viewBox="0 0 497.19 73.79" style="enable-background:new 0 0 497.19 73.79;" xml:space="preserve">
<style type="text/css">
	.st0{fill:#BE162F;}
</style>
<g>
	<path class="st0" d="M42.94,3.15v13.39c0,0-7.13-8.15-17.46-8.15S5.26,21.49,28.54,30.36s24.88,29.39,8.15,39.28
		S0.16,68.62,0.16,68.62V51.17c0,0,7.13,13.39,20.66,13.39c13.24,0,19.81-15.13-0.41-22.63C2.78,35.38-7.4,17.85,6.48,6.09
		C20.3-5.62,42.94,3.15,42.94,3.15z"/>
	<path class="st0" d="M322.29,3.15v13.39c0,0-7.13-8.15-17.46-8.15c-10.33,0-20.22,13.09,3.06,21.97s24.88,29.39,8.15,39.28
		s-36.52-1.02-36.52-1.02V51.17c0,0,7.13,13.39,20.66,13.39c13.24,0,19.81-15.13-0.41-22.63c-17.63-6.54-27.81-24.07-13.94-35.82
		C299.65-5.62,322.29,3.15,322.29,3.15z"/>
	<path class="st0" d="M179.05,72.83L179.05,72.83c-2.33-1.48-4.07-3.71-4.95-6.32L152.01,0.96h-22.24v0
		c1.95,1.8,2.67,4.57,1.84,7.09l-21.32,64.77h16.86l0,0c-1.96-1.85-2.67-4.67-1.81-7.22l3.27-9.79h24.42l2.84,8.53
		c0.99,2.97,0.23,6.25-1.97,8.48l0,0H179.05z M131.81,46.22l9.01-26.02l8.58,26.02H131.81z"/>
	<path class="st0" d="M109.34,0.96H83.76h0H54.55l-4.46,15.07l0.18-0.22c2.34-2.81,5.81-4.43,9.46-4.43h13.62v53.97
		c0,2.88-1.36,5.59-3.66,7.32l-0.22,0.16h25.01l-0.94-0.74c-2.1-1.66-3.32-4.18-3.32-6.86V11.38l13.94,0c3.66,0,7.12,1.62,9.46,4.43
		l0.18,0.22L109.34,0.96z"/>
	<path class="st0" d="M231.69,0.96H206.1h0h-29.21l-4.46,15.07l0.18-0.22c2.34-2.81,5.81-4.43,9.46-4.43h13.62v53.97
		c0,2.88-1.36,5.59-3.66,7.32l-0.22,0.16h25.01l-0.94-0.74c-2.1-1.66-3.32-4.18-3.32-6.86V11.38l13.94,0c3.66,0,7.12,1.62,9.46,4.43
		l0.18,0.22L231.69,0.96z"/>
	<path class="st0" d="M389.93,0.96h-25.59h0h-29.21l-4.46,15.07l0.18-0.22c2.34-2.81,5.81-4.43,9.46-4.43h13.62v53.97
		c0,2.88-1.36,5.59-3.66,7.32l-0.22,0.16h25.01l-0.94-0.74c-2.1-1.66-3.32-4.18-3.32-6.86V11.38l13.94,0c3.66,0,7.12,1.62,9.46,4.43
		l0.18,0.22L389.93,0.96z"/>
	<path class="st0" d="M264.05,65.23v-2.82h-0.06V8.44c0-2.88,1.36-5.59,3.66-7.32l0.22-0.16h-24.56l0.22,0.16
		c2.3,1.73,3.66,4.44,3.66,7.32v53.97h-0.06v2.82c0,2.67-1.22,5.2-3.32,6.86l-0.94,0.74h25.45l-0.94-0.74
		C265.27,70.43,264.05,67.9,264.05,65.23z"/>
	<path class="st0" d="M421.08,65.23v-2.82h-0.06V8.44c0-2.88,1.36-5.59,3.66-7.32l0.22-0.16h-24.56l0.22,0.16
		c2.3,1.73,3.66,4.44,3.66,7.32v53.97h-0.06v2.82c0,2.67-1.22,5.2-3.32,6.86l-0.94,0.74h25.45l-0.94-0.74
		C422.3,70.43,421.08,67.9,421.08,65.23z"/>
	<path class="st0" d="M475.9,41.76C475.9,41.76,475.9,41.76,475.9,41.76L475.9,41.76l-2.21-3.23l20.74-34.62
		c0.01-0.01,0.01-0.02,0.02-0.03l0.1-0.18l0.01,0.01c0.47-0.88,1.13-1.68,2.06-2.34l0.57-0.41h-14.6h-0.16h-3.46
		c0.83,1.99,0.67,4.28-0.49,6.15l-19.49,30.34l-0.67-0.17v-13.3v-13.3V8.34c0.03-2.84,1.38-5.5,3.65-7.21l0.22-0.16h-3.87
		c-2.04,0-4.11,0-6.13,0c-7.6,0-14.32,0-14.32,0l0.59,0.51c2.21,1.89,3.48,4.66,3.48,7.56V64.5c0,3.04-1.32,5.93-3.61,7.93
		l-0.46,0.4h25.01l-0.18-0.13c-2.81-2.02-4.48-5.27-4.48-8.73V43.03l16.07,24.58c2.13,3.26,5.76,5.22,9.64,5.22h13.25l-14.33-20.87
		L475.9,41.76z"/>
</g>
</svg>
